%TF.GenerationSoftware,KiCad,Pcbnew,9.0.6*%
%TF.CreationDate,2025-12-11T13:31:38+05:00*%
%TF.ProjectId,SEGA-Simple-Cart,53454741-2d53-4696-9d70-6c652d436172,rev?*%
%TF.SameCoordinates,Original*%
%TF.FileFunction,Drillmap*%
%TF.FilePolarity,Positive*%
%FSLAX45Y45*%
G04 Gerber Fmt 4.5, Leading zero omitted, Abs format (unit mm)*
G04 Created by KiCad (PCBNEW 9.0.6) date 2025-12-11 13:31:38*
%MOMM*%
%LPD*%
G01*
G04 APERTURE LIST*
%ADD10C,0.100000*%
%ADD11C,0.200000*%
G04 APERTURE END LIST*
D10*
X11102340Y-5334000D02*
G75*
G02*
X11102340Y-5943600I0J-304800D01*
G01*
X11673840Y-5041900D02*
X11673840Y-8966200D01*
X4409440Y-5638800D02*
G75*
G02*
X3799840Y-5638800I-304800J0D01*
G01*
X3799840Y-5638800D02*
G75*
G02*
X4409440Y-5638800I304800J0D01*
G01*
X11597640Y-9042400D02*
X3380740Y-9042400D01*
X3304540Y-5041900D02*
X11673840Y-5041900D01*
X11000740Y-5943600D02*
G75*
G02*
X11000740Y-5334000I0J304800D01*
G01*
X11102340Y-5334000D02*
X11000740Y-5334000D01*
X3380740Y-9042400D02*
X3304540Y-8966200D01*
X11597640Y-9042400D02*
X11673840Y-8966200D01*
X3304540Y-8966200D02*
X3304540Y-5041900D01*
X11000740Y-5943600D02*
X11102340Y-5943600D01*
D11*
D10*
X3536000Y-7981000D02*
X3576000Y-8021000D01*
X3576000Y-7981000D02*
X3536000Y-8021000D01*
X3536000Y-8082600D02*
X3576000Y-8122600D01*
X3576000Y-8082600D02*
X3536000Y-8122600D01*
X3536000Y-8184200D02*
X3576000Y-8224200D01*
X3576000Y-8184200D02*
X3536000Y-8224200D01*
X4044000Y-6584000D02*
X4084000Y-6624000D01*
X4084000Y-6584000D02*
X4044000Y-6624000D01*
X4044000Y-6965000D02*
X4084000Y-7005000D01*
X4084000Y-6965000D02*
X4044000Y-7005000D01*
X4044000Y-7346000D02*
X4084000Y-7386000D01*
X4084000Y-7346000D02*
X4044000Y-7386000D01*
X4425000Y-6812600D02*
X4465000Y-6852600D01*
X4465000Y-6812600D02*
X4425000Y-6852600D01*
X4425000Y-7473000D02*
X4465000Y-7513000D01*
X4465000Y-7473000D02*
X4425000Y-7513000D01*
X4679000Y-5822000D02*
X4719000Y-5862000D01*
X4719000Y-5822000D02*
X4679000Y-5862000D01*
X4679000Y-6812600D02*
X4719000Y-6852600D01*
X4719000Y-6812600D02*
X4679000Y-6852600D01*
X4806000Y-6190300D02*
X4846000Y-6230300D01*
X4846000Y-6190300D02*
X4806000Y-6230300D01*
X4806000Y-6622100D02*
X4846000Y-6662100D01*
X4846000Y-6622100D02*
X4806000Y-6662100D01*
X4933000Y-6812600D02*
X4973000Y-6852600D01*
X4973000Y-6812600D02*
X4933000Y-6852600D01*
X5060000Y-5822000D02*
X5100000Y-5862000D01*
X5100000Y-5822000D02*
X5060000Y-5862000D01*
X5060000Y-6431600D02*
X5100000Y-6471600D01*
X5100000Y-6431600D02*
X5060000Y-6471600D01*
X5187000Y-6812600D02*
X5227000Y-6852600D01*
X5227000Y-6812600D02*
X5187000Y-6852600D01*
X5314000Y-6190300D02*
X5354000Y-6230300D01*
X5354000Y-6190300D02*
X5314000Y-6230300D01*
X5441000Y-5822000D02*
X5481000Y-5862000D01*
X5481000Y-5822000D02*
X5441000Y-5862000D01*
X5441000Y-6812600D02*
X5481000Y-6852600D01*
X5481000Y-6812600D02*
X5441000Y-6852600D01*
X5695000Y-7625400D02*
X5735000Y-7665400D01*
X5735000Y-7625400D02*
X5695000Y-7665400D01*
X5720400Y-5910900D02*
X5760400Y-5950900D01*
X5760400Y-5910900D02*
X5720400Y-5950900D01*
X5720400Y-6431600D02*
X5760400Y-6471600D01*
X5760400Y-6431600D02*
X5720400Y-6471600D01*
X5720400Y-6622100D02*
X5760400Y-6662100D01*
X5760400Y-6622100D02*
X5720400Y-6662100D01*
X5720400Y-6787200D02*
X5760400Y-6827200D01*
X5760400Y-6787200D02*
X5720400Y-6827200D01*
X5898200Y-5885500D02*
X5938200Y-5925500D01*
X5938200Y-5885500D02*
X5898200Y-5925500D01*
X5898200Y-6812600D02*
X5938200Y-6852600D01*
X5938200Y-6812600D02*
X5898200Y-6852600D01*
X5949000Y-7625400D02*
X5989000Y-7665400D01*
X5989000Y-7625400D02*
X5949000Y-7665400D01*
X6076000Y-5847400D02*
X6116000Y-5887400D01*
X6116000Y-5847400D02*
X6076000Y-5887400D01*
X6076000Y-6838000D02*
X6116000Y-6878000D01*
X6116000Y-6838000D02*
X6076000Y-6878000D01*
X6203000Y-7625400D02*
X6243000Y-7665400D01*
X6243000Y-7625400D02*
X6203000Y-7665400D01*
X6253800Y-5822000D02*
X6293800Y-5862000D01*
X6293800Y-5822000D02*
X6253800Y-5862000D01*
X6253800Y-6863400D02*
X6293800Y-6903400D01*
X6293800Y-6863400D02*
X6253800Y-6903400D01*
X6457000Y-7625400D02*
X6497000Y-7665400D01*
X6497000Y-7625400D02*
X6457000Y-7665400D01*
X6660200Y-6406200D02*
X6700200Y-6446200D01*
X6700200Y-6406200D02*
X6660200Y-6446200D01*
X6711000Y-6584000D02*
X6751000Y-6624000D01*
X6751000Y-6584000D02*
X6711000Y-6624000D01*
X6711000Y-7625400D02*
X6751000Y-7665400D01*
X6751000Y-7625400D02*
X6711000Y-7665400D01*
X6736400Y-6076000D02*
X6776400Y-6116000D01*
X6776400Y-6076000D02*
X6736400Y-6116000D01*
X6761800Y-5834700D02*
X6801800Y-5874700D01*
X6801800Y-5834700D02*
X6761800Y-5874700D01*
X6761800Y-6774500D02*
X6801800Y-6814500D01*
X6801800Y-6774500D02*
X6761800Y-6814500D01*
X6939600Y-5809300D02*
X6979600Y-5849300D01*
X6979600Y-5809300D02*
X6939600Y-5849300D01*
X6939600Y-6584000D02*
X6979600Y-6624000D01*
X6979600Y-6584000D02*
X6939600Y-6624000D01*
X6939600Y-6799900D02*
X6979600Y-6839900D01*
X6979600Y-6799900D02*
X6939600Y-6839900D01*
X6965000Y-7625400D02*
X7005000Y-7665400D01*
X7005000Y-7625400D02*
X6965000Y-7665400D01*
X7092000Y-5314000D02*
X7132000Y-5354000D01*
X7132000Y-5314000D02*
X7092000Y-5354000D01*
X7092000Y-5618800D02*
X7132000Y-5658800D01*
X7132000Y-5618800D02*
X7092000Y-5658800D01*
X7092000Y-6965000D02*
X7132000Y-7005000D01*
X7132000Y-6965000D02*
X7092000Y-7005000D01*
X7193600Y-6076000D02*
X7233600Y-6116000D01*
X7233600Y-6076000D02*
X7193600Y-6116000D01*
X7193600Y-6584000D02*
X7233600Y-6624000D01*
X7233600Y-6584000D02*
X7193600Y-6624000D01*
X7219000Y-7625400D02*
X7259000Y-7665400D01*
X7259000Y-7625400D02*
X7219000Y-7665400D01*
X7473000Y-6380800D02*
X7513000Y-6420800D01*
X7513000Y-6380800D02*
X7473000Y-6420800D01*
X7473000Y-7092000D02*
X7513000Y-7132000D01*
X7513000Y-7092000D02*
X7473000Y-7132000D01*
X7473000Y-7625400D02*
X7513000Y-7665400D01*
X7513000Y-7625400D02*
X7473000Y-7665400D01*
X7600000Y-5314000D02*
X7640000Y-5354000D01*
X7640000Y-5314000D02*
X7600000Y-5354000D01*
X7600000Y-5618800D02*
X7640000Y-5658800D01*
X7640000Y-5618800D02*
X7600000Y-5658800D01*
X7650800Y-5809300D02*
X7690800Y-5849300D01*
X7690800Y-5809300D02*
X7650800Y-5849300D01*
X7854000Y-6076000D02*
X7894000Y-6116000D01*
X7894000Y-6076000D02*
X7854000Y-6116000D01*
X7854000Y-6380800D02*
X7894000Y-6420800D01*
X7894000Y-6380800D02*
X7854000Y-6420800D01*
X7854000Y-6965000D02*
X7894000Y-7005000D01*
X7894000Y-6965000D02*
X7854000Y-7005000D01*
X7854000Y-7625400D02*
X7894000Y-7665400D01*
X7894000Y-7625400D02*
X7854000Y-7665400D01*
X7854000Y-7981000D02*
X7894000Y-8021000D01*
X7894000Y-7981000D02*
X7854000Y-8021000D01*
X7854000Y-8082600D02*
X7894000Y-8122600D01*
X7894000Y-8082600D02*
X7854000Y-8122600D01*
X7854000Y-8184200D02*
X7894000Y-8224200D01*
X7894000Y-8184200D02*
X7854000Y-8224200D01*
X7981000Y-6253800D02*
X8021000Y-6293800D01*
X8021000Y-6253800D02*
X7981000Y-6293800D01*
X7981000Y-7346000D02*
X8021000Y-7386000D01*
X8021000Y-7346000D02*
X7981000Y-7386000D01*
X8031800Y-5618800D02*
X8071800Y-5658800D01*
X8071800Y-5618800D02*
X8031800Y-5658800D01*
X8108000Y-5961700D02*
X8148000Y-6001700D01*
X8148000Y-5961700D02*
X8108000Y-6001700D01*
X8209600Y-6533200D02*
X8249600Y-6573200D01*
X8249600Y-6533200D02*
X8209600Y-6573200D01*
X8209600Y-6672900D02*
X8249600Y-6712900D01*
X8249600Y-6672900D02*
X8209600Y-6712900D01*
X8235000Y-7041200D02*
X8275000Y-7081200D01*
X8275000Y-7041200D02*
X8235000Y-7081200D01*
X8260400Y-5466400D02*
X8300400Y-5506400D01*
X8300400Y-5466400D02*
X8260400Y-5506400D01*
X8260400Y-5834700D02*
X8300400Y-5874700D01*
X8300400Y-5834700D02*
X8260400Y-5874700D01*
X8260400Y-6279200D02*
X8300400Y-6319200D01*
X8300400Y-6279200D02*
X8260400Y-6319200D01*
X8362000Y-5466400D02*
X8402000Y-5506400D01*
X8402000Y-5466400D02*
X8362000Y-5506400D01*
X8489000Y-7041200D02*
X8529000Y-7081200D01*
X8529000Y-7041200D02*
X8489000Y-7081200D01*
X8743000Y-5872800D02*
X8783000Y-5912800D01*
X8783000Y-5872800D02*
X8743000Y-5912800D01*
X8743000Y-7587300D02*
X8783000Y-7627300D01*
X8783000Y-7587300D02*
X8743000Y-7627300D01*
X8870000Y-5314000D02*
X8910000Y-5354000D01*
X8910000Y-5314000D02*
X8870000Y-5354000D01*
X8870000Y-5644200D02*
X8910000Y-5684200D01*
X8910000Y-5644200D02*
X8870000Y-5684200D01*
X8870000Y-6025200D02*
X8910000Y-6065200D01*
X8910000Y-6025200D02*
X8870000Y-6065200D01*
X8997000Y-5872800D02*
X9037000Y-5912800D01*
X9037000Y-5872800D02*
X8997000Y-5912800D01*
X8997000Y-7587300D02*
X9037000Y-7627300D01*
X9037000Y-7587300D02*
X8997000Y-7627300D01*
X9124000Y-6063300D02*
X9164000Y-6103300D01*
X9164000Y-6063300D02*
X9124000Y-6103300D01*
X9124000Y-6825300D02*
X9164000Y-6865300D01*
X9164000Y-6825300D02*
X9124000Y-6865300D01*
X9251000Y-7587300D02*
X9291000Y-7627300D01*
X9291000Y-7587300D02*
X9251000Y-7627300D01*
X9276400Y-6114100D02*
X9316400Y-6154100D01*
X9316400Y-6114100D02*
X9276400Y-6154100D01*
X9378000Y-5314000D02*
X9418000Y-5354000D01*
X9418000Y-5314000D02*
X9378000Y-5354000D01*
X9378000Y-5644200D02*
X9418000Y-5684200D01*
X9418000Y-5644200D02*
X9378000Y-5684200D01*
X9378000Y-6825300D02*
X9418000Y-6865300D01*
X9418000Y-6825300D02*
X9378000Y-6865300D01*
X9428800Y-6164900D02*
X9468800Y-6204900D01*
X9468800Y-6164900D02*
X9428800Y-6204900D01*
X9505000Y-7193600D02*
X9545000Y-7233600D01*
X9545000Y-7193600D02*
X9505000Y-7233600D01*
X9505000Y-7587300D02*
X9545000Y-7627300D01*
X9545000Y-7587300D02*
X9505000Y-7627300D01*
X9581200Y-6215700D02*
X9621200Y-6255700D01*
X9621200Y-6215700D02*
X9581200Y-6255700D01*
X9759000Y-7587300D02*
X9799000Y-7627300D01*
X9799000Y-7587300D02*
X9759000Y-7627300D01*
X9886000Y-5314000D02*
X9926000Y-5354000D01*
X9926000Y-5314000D02*
X9886000Y-5354000D01*
X9886000Y-5644200D02*
X9926000Y-5684200D01*
X9926000Y-5644200D02*
X9886000Y-5684200D01*
X9886000Y-6965000D02*
X9926000Y-7005000D01*
X9926000Y-6965000D02*
X9886000Y-7005000D01*
X10000300Y-6444300D02*
X10040300Y-6484300D01*
X10040300Y-6444300D02*
X10000300Y-6484300D01*
X10013000Y-7193600D02*
X10053000Y-7233600D01*
X10053000Y-7193600D02*
X10013000Y-7233600D01*
X10013000Y-8158800D02*
X10053000Y-8198800D01*
X10053000Y-8158800D02*
X10013000Y-8198800D01*
X10140000Y-6965000D02*
X10180000Y-7005000D01*
X10180000Y-6965000D02*
X10140000Y-7005000D01*
X10152700Y-6393500D02*
X10192700Y-6433500D01*
X10192700Y-6393500D02*
X10152700Y-6433500D01*
X10267000Y-7193600D02*
X10307000Y-7233600D01*
X10307000Y-7193600D02*
X10267000Y-7233600D01*
X10444800Y-5644200D02*
X10484800Y-5684200D01*
X10484800Y-5644200D02*
X10444800Y-5684200D01*
X10495600Y-6177600D02*
X10535600Y-6217600D01*
X10535600Y-6177600D02*
X10495600Y-6217600D01*
X10521000Y-7193600D02*
X10561000Y-7233600D01*
X10561000Y-7193600D02*
X10521000Y-7233600D01*
X10521000Y-7676200D02*
X10561000Y-7716200D01*
X10561000Y-7676200D02*
X10521000Y-7716200D01*
X10698800Y-6634800D02*
X10738800Y-6674800D01*
X10738800Y-6634800D02*
X10698800Y-6674800D01*
X10775000Y-7193600D02*
X10815000Y-7233600D01*
X10815000Y-7193600D02*
X10775000Y-7233600D01*
X11079800Y-6177600D02*
X11119800Y-6217600D01*
X11119800Y-6177600D02*
X11079800Y-6217600D01*
X11079800Y-6634800D02*
X11119800Y-6674800D01*
X11119800Y-6634800D02*
X11079800Y-6674800D01*
X11156000Y-7981000D02*
X11196000Y-8021000D01*
X11196000Y-7981000D02*
X11156000Y-8021000D01*
X11156000Y-8082600D02*
X11196000Y-8122600D01*
X11196000Y-8082600D02*
X11156000Y-8122600D01*
X11156000Y-8184200D02*
X11196000Y-8224200D01*
X11196000Y-8184200D02*
X11156000Y-8224200D01*
X11410000Y-7981000D02*
X11450000Y-8021000D01*
X11450000Y-7981000D02*
X11410000Y-8021000D01*
X11410000Y-8082600D02*
X11450000Y-8122600D01*
X11450000Y-8082600D02*
X11410000Y-8122600D01*
X11410000Y-8184200D02*
X11450000Y-8224200D01*
X11450000Y-8184200D02*
X11410000Y-8224200D01*
D11*
X3560317Y-9358884D02*
X3560317Y-9158884D01*
X3560317Y-9158884D02*
X3607936Y-9158884D01*
X3607936Y-9158884D02*
X3636507Y-9168408D01*
X3636507Y-9168408D02*
X3655555Y-9187455D01*
X3655555Y-9187455D02*
X3665079Y-9206503D01*
X3665079Y-9206503D02*
X3674602Y-9244598D01*
X3674602Y-9244598D02*
X3674602Y-9273170D01*
X3674602Y-9273170D02*
X3665079Y-9311265D01*
X3665079Y-9311265D02*
X3655555Y-9330312D01*
X3655555Y-9330312D02*
X3636507Y-9349360D01*
X3636507Y-9349360D02*
X3607936Y-9358884D01*
X3607936Y-9358884D02*
X3560317Y-9358884D01*
X3760317Y-9358884D02*
X3760317Y-9225550D01*
X3760317Y-9263646D02*
X3769841Y-9244598D01*
X3769841Y-9244598D02*
X3779364Y-9235074D01*
X3779364Y-9235074D02*
X3798412Y-9225550D01*
X3798412Y-9225550D02*
X3817460Y-9225550D01*
X3884126Y-9358884D02*
X3884126Y-9225550D01*
X3884126Y-9158884D02*
X3874602Y-9168408D01*
X3874602Y-9168408D02*
X3884126Y-9177931D01*
X3884126Y-9177931D02*
X3893650Y-9168408D01*
X3893650Y-9168408D02*
X3884126Y-9158884D01*
X3884126Y-9158884D02*
X3884126Y-9177931D01*
X4007936Y-9358884D02*
X3988888Y-9349360D01*
X3988888Y-9349360D02*
X3979364Y-9330312D01*
X3979364Y-9330312D02*
X3979364Y-9158884D01*
X4112698Y-9358884D02*
X4093650Y-9349360D01*
X4093650Y-9349360D02*
X4084126Y-9330312D01*
X4084126Y-9330312D02*
X4084126Y-9158884D01*
X4341269Y-9358884D02*
X4341269Y-9158884D01*
X4341269Y-9158884D02*
X4407936Y-9301741D01*
X4407936Y-9301741D02*
X4474603Y-9158884D01*
X4474603Y-9158884D02*
X4474603Y-9358884D01*
X4655555Y-9358884D02*
X4655555Y-9254122D01*
X4655555Y-9254122D02*
X4646031Y-9235074D01*
X4646031Y-9235074D02*
X4626984Y-9225550D01*
X4626984Y-9225550D02*
X4588888Y-9225550D01*
X4588888Y-9225550D02*
X4569841Y-9235074D01*
X4655555Y-9349360D02*
X4636507Y-9358884D01*
X4636507Y-9358884D02*
X4588888Y-9358884D01*
X4588888Y-9358884D02*
X4569841Y-9349360D01*
X4569841Y-9349360D02*
X4560317Y-9330312D01*
X4560317Y-9330312D02*
X4560317Y-9311265D01*
X4560317Y-9311265D02*
X4569841Y-9292217D01*
X4569841Y-9292217D02*
X4588888Y-9282693D01*
X4588888Y-9282693D02*
X4636507Y-9282693D01*
X4636507Y-9282693D02*
X4655555Y-9273170D01*
X4750793Y-9225550D02*
X4750793Y-9425550D01*
X4750793Y-9235074D02*
X4769841Y-9225550D01*
X4769841Y-9225550D02*
X4807936Y-9225550D01*
X4807936Y-9225550D02*
X4826984Y-9235074D01*
X4826984Y-9235074D02*
X4836507Y-9244598D01*
X4836507Y-9244598D02*
X4846031Y-9263646D01*
X4846031Y-9263646D02*
X4846031Y-9320789D01*
X4846031Y-9320789D02*
X4836507Y-9339836D01*
X4836507Y-9339836D02*
X4826984Y-9349360D01*
X4826984Y-9349360D02*
X4807936Y-9358884D01*
X4807936Y-9358884D02*
X4769841Y-9358884D01*
X4769841Y-9358884D02*
X4750793Y-9349360D01*
X4931745Y-9339836D02*
X4941269Y-9349360D01*
X4941269Y-9349360D02*
X4931745Y-9358884D01*
X4931745Y-9358884D02*
X4922222Y-9349360D01*
X4922222Y-9349360D02*
X4931745Y-9339836D01*
X4931745Y-9339836D02*
X4931745Y-9358884D01*
X4931745Y-9235074D02*
X4941269Y-9244598D01*
X4941269Y-9244598D02*
X4931745Y-9254122D01*
X4931745Y-9254122D02*
X4922222Y-9244598D01*
X4922222Y-9244598D02*
X4931745Y-9235074D01*
X4931745Y-9235074D02*
X4931745Y-9254122D01*
D10*
X3259540Y-9667400D02*
X3299540Y-9707400D01*
X3299540Y-9667400D02*
X3259540Y-9707400D01*
D11*
X3598412Y-9578884D02*
X3617460Y-9578884D01*
X3617460Y-9578884D02*
X3636507Y-9588408D01*
X3636507Y-9588408D02*
X3646031Y-9597931D01*
X3646031Y-9597931D02*
X3655555Y-9616979D01*
X3655555Y-9616979D02*
X3665079Y-9655074D01*
X3665079Y-9655074D02*
X3665079Y-9702693D01*
X3665079Y-9702693D02*
X3655555Y-9740789D01*
X3655555Y-9740789D02*
X3646031Y-9759836D01*
X3646031Y-9759836D02*
X3636507Y-9769360D01*
X3636507Y-9769360D02*
X3617460Y-9778884D01*
X3617460Y-9778884D02*
X3598412Y-9778884D01*
X3598412Y-9778884D02*
X3579364Y-9769360D01*
X3579364Y-9769360D02*
X3569841Y-9759836D01*
X3569841Y-9759836D02*
X3560317Y-9740789D01*
X3560317Y-9740789D02*
X3550793Y-9702693D01*
X3550793Y-9702693D02*
X3550793Y-9655074D01*
X3550793Y-9655074D02*
X3560317Y-9616979D01*
X3560317Y-9616979D02*
X3569841Y-9597931D01*
X3569841Y-9597931D02*
X3579364Y-9588408D01*
X3579364Y-9588408D02*
X3598412Y-9578884D01*
X3750793Y-9759836D02*
X3760317Y-9769360D01*
X3760317Y-9769360D02*
X3750793Y-9778884D01*
X3750793Y-9778884D02*
X3741269Y-9769360D01*
X3741269Y-9769360D02*
X3750793Y-9759836D01*
X3750793Y-9759836D02*
X3750793Y-9778884D01*
X3931745Y-9645550D02*
X3931745Y-9778884D01*
X3884126Y-9569360D02*
X3836507Y-9712217D01*
X3836507Y-9712217D02*
X3960317Y-9712217D01*
X4074602Y-9578884D02*
X4093650Y-9578884D01*
X4093650Y-9578884D02*
X4112698Y-9588408D01*
X4112698Y-9588408D02*
X4122222Y-9597931D01*
X4122222Y-9597931D02*
X4131745Y-9616979D01*
X4131745Y-9616979D02*
X4141269Y-9655074D01*
X4141269Y-9655074D02*
X4141269Y-9702693D01*
X4141269Y-9702693D02*
X4131745Y-9740789D01*
X4131745Y-9740789D02*
X4122222Y-9759836D01*
X4122222Y-9759836D02*
X4112698Y-9769360D01*
X4112698Y-9769360D02*
X4093650Y-9778884D01*
X4093650Y-9778884D02*
X4074602Y-9778884D01*
X4074602Y-9778884D02*
X4055555Y-9769360D01*
X4055555Y-9769360D02*
X4046031Y-9759836D01*
X4046031Y-9759836D02*
X4036507Y-9740789D01*
X4036507Y-9740789D02*
X4026983Y-9702693D01*
X4026983Y-9702693D02*
X4026983Y-9655074D01*
X4026983Y-9655074D02*
X4036507Y-9616979D01*
X4036507Y-9616979D02*
X4046031Y-9597931D01*
X4046031Y-9597931D02*
X4055555Y-9588408D01*
X4055555Y-9588408D02*
X4074602Y-9578884D01*
X4265079Y-9578884D02*
X4284126Y-9578884D01*
X4284126Y-9578884D02*
X4303174Y-9588408D01*
X4303174Y-9588408D02*
X4312698Y-9597931D01*
X4312698Y-9597931D02*
X4322222Y-9616979D01*
X4322222Y-9616979D02*
X4331745Y-9655074D01*
X4331745Y-9655074D02*
X4331745Y-9702693D01*
X4331745Y-9702693D02*
X4322222Y-9740789D01*
X4322222Y-9740789D02*
X4312698Y-9759836D01*
X4312698Y-9759836D02*
X4303174Y-9769360D01*
X4303174Y-9769360D02*
X4284126Y-9778884D01*
X4284126Y-9778884D02*
X4265079Y-9778884D01*
X4265079Y-9778884D02*
X4246031Y-9769360D01*
X4246031Y-9769360D02*
X4236507Y-9759836D01*
X4236507Y-9759836D02*
X4226984Y-9740789D01*
X4226984Y-9740789D02*
X4217460Y-9702693D01*
X4217460Y-9702693D02*
X4217460Y-9655074D01*
X4217460Y-9655074D02*
X4226984Y-9616979D01*
X4226984Y-9616979D02*
X4236507Y-9597931D01*
X4236507Y-9597931D02*
X4246031Y-9588408D01*
X4246031Y-9588408D02*
X4265079Y-9578884D01*
X4417460Y-9778884D02*
X4417460Y-9645550D01*
X4417460Y-9664598D02*
X4426984Y-9655074D01*
X4426984Y-9655074D02*
X4446031Y-9645550D01*
X4446031Y-9645550D02*
X4474603Y-9645550D01*
X4474603Y-9645550D02*
X4493650Y-9655074D01*
X4493650Y-9655074D02*
X4503174Y-9674122D01*
X4503174Y-9674122D02*
X4503174Y-9778884D01*
X4503174Y-9674122D02*
X4512698Y-9655074D01*
X4512698Y-9655074D02*
X4531745Y-9645550D01*
X4531745Y-9645550D02*
X4560317Y-9645550D01*
X4560317Y-9645550D02*
X4579365Y-9655074D01*
X4579365Y-9655074D02*
X4588888Y-9674122D01*
X4588888Y-9674122D02*
X4588888Y-9778884D01*
X4684126Y-9778884D02*
X4684126Y-9645550D01*
X4684126Y-9664598D02*
X4693650Y-9655074D01*
X4693650Y-9655074D02*
X4712698Y-9645550D01*
X4712698Y-9645550D02*
X4741269Y-9645550D01*
X4741269Y-9645550D02*
X4760317Y-9655074D01*
X4760317Y-9655074D02*
X4769841Y-9674122D01*
X4769841Y-9674122D02*
X4769841Y-9778884D01*
X4769841Y-9674122D02*
X4779365Y-9655074D01*
X4779365Y-9655074D02*
X4798412Y-9645550D01*
X4798412Y-9645550D02*
X4826984Y-9645550D01*
X4826984Y-9645550D02*
X4846031Y-9655074D01*
X4846031Y-9655074D02*
X4855555Y-9674122D01*
X4855555Y-9674122D02*
X4855555Y-9778884D01*
X5246031Y-9569360D02*
X5074603Y-9826503D01*
X5503174Y-9578884D02*
X5522222Y-9578884D01*
X5522222Y-9578884D02*
X5541269Y-9588408D01*
X5541269Y-9588408D02*
X5550793Y-9597931D01*
X5550793Y-9597931D02*
X5560317Y-9616979D01*
X5560317Y-9616979D02*
X5569841Y-9655074D01*
X5569841Y-9655074D02*
X5569841Y-9702693D01*
X5569841Y-9702693D02*
X5560317Y-9740789D01*
X5560317Y-9740789D02*
X5550793Y-9759836D01*
X5550793Y-9759836D02*
X5541269Y-9769360D01*
X5541269Y-9769360D02*
X5522222Y-9778884D01*
X5522222Y-9778884D02*
X5503174Y-9778884D01*
X5503174Y-9778884D02*
X5484127Y-9769360D01*
X5484127Y-9769360D02*
X5474603Y-9759836D01*
X5474603Y-9759836D02*
X5465079Y-9740789D01*
X5465079Y-9740789D02*
X5455555Y-9702693D01*
X5455555Y-9702693D02*
X5455555Y-9655074D01*
X5455555Y-9655074D02*
X5465079Y-9616979D01*
X5465079Y-9616979D02*
X5474603Y-9597931D01*
X5474603Y-9597931D02*
X5484127Y-9588408D01*
X5484127Y-9588408D02*
X5503174Y-9578884D01*
X5655555Y-9759836D02*
X5665079Y-9769360D01*
X5665079Y-9769360D02*
X5655555Y-9778884D01*
X5655555Y-9778884D02*
X5646031Y-9769360D01*
X5646031Y-9769360D02*
X5655555Y-9759836D01*
X5655555Y-9759836D02*
X5655555Y-9778884D01*
X5788888Y-9578884D02*
X5807936Y-9578884D01*
X5807936Y-9578884D02*
X5826984Y-9588408D01*
X5826984Y-9588408D02*
X5836507Y-9597931D01*
X5836507Y-9597931D02*
X5846031Y-9616979D01*
X5846031Y-9616979D02*
X5855555Y-9655074D01*
X5855555Y-9655074D02*
X5855555Y-9702693D01*
X5855555Y-9702693D02*
X5846031Y-9740789D01*
X5846031Y-9740789D02*
X5836507Y-9759836D01*
X5836507Y-9759836D02*
X5826984Y-9769360D01*
X5826984Y-9769360D02*
X5807936Y-9778884D01*
X5807936Y-9778884D02*
X5788888Y-9778884D01*
X5788888Y-9778884D02*
X5769841Y-9769360D01*
X5769841Y-9769360D02*
X5760317Y-9759836D01*
X5760317Y-9759836D02*
X5750793Y-9740789D01*
X5750793Y-9740789D02*
X5741269Y-9702693D01*
X5741269Y-9702693D02*
X5741269Y-9655074D01*
X5741269Y-9655074D02*
X5750793Y-9616979D01*
X5750793Y-9616979D02*
X5760317Y-9597931D01*
X5760317Y-9597931D02*
X5769841Y-9588408D01*
X5769841Y-9588408D02*
X5788888Y-9578884D01*
X6046031Y-9778884D02*
X5931746Y-9778884D01*
X5988888Y-9778884D02*
X5988888Y-9578884D01*
X5988888Y-9578884D02*
X5969841Y-9607455D01*
X5969841Y-9607455D02*
X5950793Y-9626503D01*
X5950793Y-9626503D02*
X5931746Y-9636027D01*
X6226984Y-9578884D02*
X6131746Y-9578884D01*
X6131746Y-9578884D02*
X6122222Y-9674122D01*
X6122222Y-9674122D02*
X6131746Y-9664598D01*
X6131746Y-9664598D02*
X6150793Y-9655074D01*
X6150793Y-9655074D02*
X6198412Y-9655074D01*
X6198412Y-9655074D02*
X6217460Y-9664598D01*
X6217460Y-9664598D02*
X6226984Y-9674122D01*
X6226984Y-9674122D02*
X6236507Y-9693170D01*
X6236507Y-9693170D02*
X6236507Y-9740789D01*
X6236507Y-9740789D02*
X6226984Y-9759836D01*
X6226984Y-9759836D02*
X6217460Y-9769360D01*
X6217460Y-9769360D02*
X6198412Y-9778884D01*
X6198412Y-9778884D02*
X6150793Y-9778884D01*
X6150793Y-9778884D02*
X6131746Y-9769360D01*
X6131746Y-9769360D02*
X6122222Y-9759836D01*
X6303174Y-9578884D02*
X6436507Y-9578884D01*
X6436507Y-9578884D02*
X6350793Y-9778884D01*
X6503174Y-9578884D02*
X6503174Y-9616979D01*
X6579365Y-9578884D02*
X6579365Y-9616979D01*
X6874603Y-9855074D02*
X6865079Y-9845550D01*
X6865079Y-9845550D02*
X6846031Y-9816979D01*
X6846031Y-9816979D02*
X6836508Y-9797931D01*
X6836508Y-9797931D02*
X6826984Y-9769360D01*
X6826984Y-9769360D02*
X6817460Y-9721741D01*
X6817460Y-9721741D02*
X6817460Y-9683646D01*
X6817460Y-9683646D02*
X6826984Y-9636027D01*
X6826984Y-9636027D02*
X6836508Y-9607455D01*
X6836508Y-9607455D02*
X6846031Y-9588408D01*
X6846031Y-9588408D02*
X6865079Y-9559836D01*
X6865079Y-9559836D02*
X6874603Y-9550312D01*
X7055555Y-9778884D02*
X6941269Y-9778884D01*
X6998412Y-9778884D02*
X6998412Y-9578884D01*
X6998412Y-9578884D02*
X6979365Y-9607455D01*
X6979365Y-9607455D02*
X6960317Y-9626503D01*
X6960317Y-9626503D02*
X6941269Y-9636027D01*
X7246031Y-9778884D02*
X7131746Y-9778884D01*
X7188888Y-9778884D02*
X7188888Y-9578884D01*
X7188888Y-9578884D02*
X7169841Y-9607455D01*
X7169841Y-9607455D02*
X7150793Y-9626503D01*
X7150793Y-9626503D02*
X7131746Y-9636027D01*
X7417460Y-9578884D02*
X7379365Y-9578884D01*
X7379365Y-9578884D02*
X7360317Y-9588408D01*
X7360317Y-9588408D02*
X7350793Y-9597931D01*
X7350793Y-9597931D02*
X7331746Y-9626503D01*
X7331746Y-9626503D02*
X7322222Y-9664598D01*
X7322222Y-9664598D02*
X7322222Y-9740789D01*
X7322222Y-9740789D02*
X7331746Y-9759836D01*
X7331746Y-9759836D02*
X7341269Y-9769360D01*
X7341269Y-9769360D02*
X7360317Y-9778884D01*
X7360317Y-9778884D02*
X7398412Y-9778884D01*
X7398412Y-9778884D02*
X7417460Y-9769360D01*
X7417460Y-9769360D02*
X7426984Y-9759836D01*
X7426984Y-9759836D02*
X7436508Y-9740789D01*
X7436508Y-9740789D02*
X7436508Y-9693170D01*
X7436508Y-9693170D02*
X7426984Y-9674122D01*
X7426984Y-9674122D02*
X7417460Y-9664598D01*
X7417460Y-9664598D02*
X7398412Y-9655074D01*
X7398412Y-9655074D02*
X7360317Y-9655074D01*
X7360317Y-9655074D02*
X7341269Y-9664598D01*
X7341269Y-9664598D02*
X7331746Y-9674122D01*
X7331746Y-9674122D02*
X7322222Y-9693170D01*
X7674603Y-9778884D02*
X7674603Y-9578884D01*
X7760317Y-9778884D02*
X7760317Y-9674122D01*
X7760317Y-9674122D02*
X7750793Y-9655074D01*
X7750793Y-9655074D02*
X7731746Y-9645550D01*
X7731746Y-9645550D02*
X7703174Y-9645550D01*
X7703174Y-9645550D02*
X7684127Y-9655074D01*
X7684127Y-9655074D02*
X7674603Y-9664598D01*
X7884127Y-9778884D02*
X7865079Y-9769360D01*
X7865079Y-9769360D02*
X7855555Y-9759836D01*
X7855555Y-9759836D02*
X7846031Y-9740789D01*
X7846031Y-9740789D02*
X7846031Y-9683646D01*
X7846031Y-9683646D02*
X7855555Y-9664598D01*
X7855555Y-9664598D02*
X7865079Y-9655074D01*
X7865079Y-9655074D02*
X7884127Y-9645550D01*
X7884127Y-9645550D02*
X7912698Y-9645550D01*
X7912698Y-9645550D02*
X7931746Y-9655074D01*
X7931746Y-9655074D02*
X7941270Y-9664598D01*
X7941270Y-9664598D02*
X7950793Y-9683646D01*
X7950793Y-9683646D02*
X7950793Y-9740789D01*
X7950793Y-9740789D02*
X7941270Y-9759836D01*
X7941270Y-9759836D02*
X7931746Y-9769360D01*
X7931746Y-9769360D02*
X7912698Y-9778884D01*
X7912698Y-9778884D02*
X7884127Y-9778884D01*
X8065079Y-9778884D02*
X8046031Y-9769360D01*
X8046031Y-9769360D02*
X8036508Y-9750312D01*
X8036508Y-9750312D02*
X8036508Y-9578884D01*
X8217460Y-9769360D02*
X8198412Y-9778884D01*
X8198412Y-9778884D02*
X8160317Y-9778884D01*
X8160317Y-9778884D02*
X8141270Y-9769360D01*
X8141270Y-9769360D02*
X8131746Y-9750312D01*
X8131746Y-9750312D02*
X8131746Y-9674122D01*
X8131746Y-9674122D02*
X8141270Y-9655074D01*
X8141270Y-9655074D02*
X8160317Y-9645550D01*
X8160317Y-9645550D02*
X8198412Y-9645550D01*
X8198412Y-9645550D02*
X8217460Y-9655074D01*
X8217460Y-9655074D02*
X8226984Y-9674122D01*
X8226984Y-9674122D02*
X8226984Y-9693170D01*
X8226984Y-9693170D02*
X8131746Y-9712217D01*
X8303174Y-9769360D02*
X8322222Y-9778884D01*
X8322222Y-9778884D02*
X8360317Y-9778884D01*
X8360317Y-9778884D02*
X8379365Y-9769360D01*
X8379365Y-9769360D02*
X8388889Y-9750312D01*
X8388889Y-9750312D02*
X8388889Y-9740789D01*
X8388889Y-9740789D02*
X8379365Y-9721741D01*
X8379365Y-9721741D02*
X8360317Y-9712217D01*
X8360317Y-9712217D02*
X8331746Y-9712217D01*
X8331746Y-9712217D02*
X8312698Y-9702693D01*
X8312698Y-9702693D02*
X8303174Y-9683646D01*
X8303174Y-9683646D02*
X8303174Y-9674122D01*
X8303174Y-9674122D02*
X8312698Y-9655074D01*
X8312698Y-9655074D02*
X8331746Y-9645550D01*
X8331746Y-9645550D02*
X8360317Y-9645550D01*
X8360317Y-9645550D02*
X8379365Y-9655074D01*
X8455555Y-9855074D02*
X8465079Y-9845550D01*
X8465079Y-9845550D02*
X8484127Y-9816979D01*
X8484127Y-9816979D02*
X8493651Y-9797931D01*
X8493651Y-9797931D02*
X8503174Y-9769360D01*
X8503174Y-9769360D02*
X8512698Y-9721741D01*
X8512698Y-9721741D02*
X8512698Y-9683646D01*
X8512698Y-9683646D02*
X8503174Y-9636027D01*
X8503174Y-9636027D02*
X8493651Y-9607455D01*
X8493651Y-9607455D02*
X8484127Y-9588408D01*
X8484127Y-9588408D02*
X8465079Y-9559836D01*
X8465079Y-9559836D02*
X8455555Y-9550312D01*
M02*
