G04 #@! TF.GenerationSoftware,KiCad,Pcbnew,9.0.6*
G04 #@! TF.CreationDate,2025-12-11T13:31:27+05:00*
G04 #@! TF.ProjectId,SEGA-Simple-Cart,53454741-2d53-4696-9d70-6c652d436172,rev?*
G04 #@! TF.SameCoordinates,Original*
G04 #@! TF.FileFunction,Soldermask,Bot*
G04 #@! TF.FilePolarity,Negative*
%FSLAX46Y46*%
G04 Gerber Fmt 4.6, Leading zero omitted, Abs format (unit mm)*
G04 Created by KiCad (PCBNEW 9.0.6) date 2025-12-11 13:31:27*
%MOMM*%
%LPD*%
G01*
G04 APERTURE LIST*
G04 Aperture macros list*
%AMRoundRect*
0 Rectangle with rounded corners*
0 $1 Rounding radius*
0 $2 $3 $4 $5 $6 $7 $8 $9 X,Y pos of 4 corners*
0 Add a 4 corners polygon primitive as box body*
4,1,4,$2,$3,$4,$5,$6,$7,$8,$9,$2,$3,0*
0 Add four circle primitives for the rounded corners*
1,1,$1+$1,$2,$3*
1,1,$1+$1,$4,$5*
1,1,$1+$1,$6,$7*
1,1,$1+$1,$8,$9*
0 Add four rect primitives between the rounded corners*
20,1,$1+$1,$2,$3,$4,$5,0*
20,1,$1+$1,$4,$5,$6,$7,0*
20,1,$1+$1,$6,$7,$8,$9,0*
20,1,$1+$1,$8,$9,$2,$3,0*%
G04 Aperture macros list end*
%ADD10C,0.150000*%
%ADD11C,0.200000*%
%ADD12R,1.780000X6.858000*%
%ADD13RoundRect,0.250000X0.450000X-0.350000X0.450000X0.350000X-0.450000X0.350000X-0.450000X-0.350000X0*%
G04 APERTURE END LIST*
D10*
X32766000Y-83312000D02*
X117094000Y-83312000D01*
X117094000Y-90678000D01*
X32766000Y-90678000D01*
X32766000Y-83312000D01*
G36*
X32766000Y-83312000D02*
G01*
X117094000Y-83312000D01*
X117094000Y-90678000D01*
X32766000Y-90678000D01*
X32766000Y-83312000D01*
G37*
D11*
X59294993Y-52617742D02*
X59402136Y-53474885D01*
X59402136Y-53474885D02*
X59480707Y-53646314D01*
X59480707Y-53646314D02*
X59609279Y-53760600D01*
X59609279Y-53760600D02*
X59787850Y-53817742D01*
X59787850Y-53817742D02*
X59902136Y-53817742D01*
X58187850Y-53817742D02*
X58516421Y-53246314D01*
X58873564Y-53817742D02*
X58723564Y-52617742D01*
X58723564Y-52617742D02*
X58266421Y-52617742D01*
X58266421Y-52617742D02*
X58159278Y-52674885D01*
X58159278Y-52674885D02*
X58109278Y-52732028D01*
X58109278Y-52732028D02*
X58066421Y-52846314D01*
X58066421Y-52846314D02*
X58087850Y-53017742D01*
X58087850Y-53017742D02*
X58159278Y-53132028D01*
X58159278Y-53132028D02*
X58223564Y-53189171D01*
X58223564Y-53189171D02*
X58344993Y-53246314D01*
X58344993Y-53246314D02*
X58802136Y-53246314D01*
X57194993Y-53189171D02*
X57030707Y-53246314D01*
X57030707Y-53246314D02*
X56980707Y-53303457D01*
X56980707Y-53303457D02*
X56937850Y-53417742D01*
X56937850Y-53417742D02*
X56959278Y-53589171D01*
X56959278Y-53589171D02*
X57030707Y-53703457D01*
X57030707Y-53703457D02*
X57094993Y-53760600D01*
X57094993Y-53760600D02*
X57216421Y-53817742D01*
X57216421Y-53817742D02*
X57673564Y-53817742D01*
X57673564Y-53817742D02*
X57523564Y-52617742D01*
X57523564Y-52617742D02*
X57123564Y-52617742D01*
X57123564Y-52617742D02*
X57016421Y-52674885D01*
X57016421Y-52674885D02*
X56966421Y-52732028D01*
X56966421Y-52732028D02*
X56923564Y-52846314D01*
X56923564Y-52846314D02*
X56937850Y-52960600D01*
X56937850Y-52960600D02*
X57009278Y-53074885D01*
X57009278Y-53074885D02*
X57073564Y-53132028D01*
X57073564Y-53132028D02*
X57194993Y-53189171D01*
X57194993Y-53189171D02*
X57594993Y-53189171D01*
X56494993Y-52617742D02*
X56244993Y-53817742D01*
X56244993Y-53817742D02*
X55694993Y-52617742D01*
X55409279Y-52617742D02*
X54609279Y-52617742D01*
X54609279Y-52617742D02*
X55559279Y-53817742D01*
X55559279Y-53817742D02*
X54759279Y-53817742D01*
X53309279Y-52732028D02*
X53244993Y-52674885D01*
X53244993Y-52674885D02*
X53123564Y-52617742D01*
X53123564Y-52617742D02*
X52837850Y-52617742D01*
X52837850Y-52617742D02*
X52730707Y-52674885D01*
X52730707Y-52674885D02*
X52680707Y-52732028D01*
X52680707Y-52732028D02*
X52637850Y-52846314D01*
X52637850Y-52846314D02*
X52652136Y-52960600D01*
X52652136Y-52960600D02*
X52730707Y-53132028D01*
X52730707Y-53132028D02*
X53502136Y-53817742D01*
X53502136Y-53817742D02*
X52759279Y-53817742D01*
X51866422Y-52617742D02*
X51752136Y-52617742D01*
X51752136Y-52617742D02*
X51644993Y-52674885D01*
X51644993Y-52674885D02*
X51594993Y-52732028D01*
X51594993Y-52732028D02*
X51552136Y-52846314D01*
X51552136Y-52846314D02*
X51523565Y-53074885D01*
X51523565Y-53074885D02*
X51559279Y-53360600D01*
X51559279Y-53360600D02*
X51644993Y-53589171D01*
X51644993Y-53589171D02*
X51716422Y-53703457D01*
X51716422Y-53703457D02*
X51780707Y-53760600D01*
X51780707Y-53760600D02*
X51902136Y-53817742D01*
X51902136Y-53817742D02*
X52016422Y-53817742D01*
X52016422Y-53817742D02*
X52123565Y-53760600D01*
X52123565Y-53760600D02*
X52173565Y-53703457D01*
X52173565Y-53703457D02*
X52216422Y-53589171D01*
X52216422Y-53589171D02*
X52244993Y-53360600D01*
X52244993Y-53360600D02*
X52209279Y-53074885D01*
X52209279Y-53074885D02*
X52123565Y-52846314D01*
X52123565Y-52846314D02*
X52052136Y-52732028D01*
X52052136Y-52732028D02*
X51987850Y-52674885D01*
X51987850Y-52674885D02*
X51866422Y-52617742D01*
X51023565Y-52732028D02*
X50959279Y-52674885D01*
X50959279Y-52674885D02*
X50837850Y-52617742D01*
X50837850Y-52617742D02*
X50552136Y-52617742D01*
X50552136Y-52617742D02*
X50444993Y-52674885D01*
X50444993Y-52674885D02*
X50394993Y-52732028D01*
X50394993Y-52732028D02*
X50352136Y-52846314D01*
X50352136Y-52846314D02*
X50366422Y-52960600D01*
X50366422Y-52960600D02*
X50444993Y-53132028D01*
X50444993Y-53132028D02*
X51216422Y-53817742D01*
X51216422Y-53817742D02*
X50473565Y-53817742D01*
X49237851Y-52617742D02*
X49809279Y-52617742D01*
X49809279Y-52617742D02*
X49937851Y-53189171D01*
X49937851Y-53189171D02*
X49873565Y-53132028D01*
X49873565Y-53132028D02*
X49752136Y-53074885D01*
X49752136Y-53074885D02*
X49466422Y-53074885D01*
X49466422Y-53074885D02*
X49359279Y-53132028D01*
X49359279Y-53132028D02*
X49309279Y-53189171D01*
X49309279Y-53189171D02*
X49266422Y-53303457D01*
X49266422Y-53303457D02*
X49302136Y-53589171D01*
X49302136Y-53589171D02*
X49373565Y-53703457D01*
X49373565Y-53703457D02*
X49437851Y-53760600D01*
X49437851Y-53760600D02*
X49559279Y-53817742D01*
X49559279Y-53817742D02*
X49844993Y-53817742D01*
X49844993Y-53817742D02*
X49952136Y-53760600D01*
X49952136Y-53760600D02*
X50002136Y-53703457D01*
D12*
X35560000Y-86360000D03*
X38100000Y-86360000D03*
X40640000Y-86360000D03*
X43180000Y-86360000D03*
X45720000Y-86360000D03*
X48260000Y-86360000D03*
X50800000Y-86360000D03*
X53340000Y-86360000D03*
X55880000Y-86360000D03*
X58420000Y-86360000D03*
X60960000Y-86360000D03*
X63500000Y-86360000D03*
X66040000Y-86360000D03*
X68580000Y-86360000D03*
X71120000Y-86360000D03*
X73660000Y-86360000D03*
X76200000Y-86360000D03*
X78740000Y-86360000D03*
X81280000Y-86360000D03*
X83820000Y-86360000D03*
X86360000Y-86360000D03*
X88900000Y-86360000D03*
X91440000Y-86360000D03*
X93980000Y-86360000D03*
X96520000Y-86360000D03*
X99060000Y-86360000D03*
X101600000Y-86360000D03*
X104140000Y-86360000D03*
X106680000Y-86360000D03*
X109220000Y-86360000D03*
X111760000Y-86360000D03*
X114300000Y-86360000D03*
D13*
X50800000Y-80502000D03*
X50800000Y-78502000D03*
X104140000Y-80502000D03*
X104140000Y-78502000D03*
X96520000Y-80502000D03*
X96520000Y-78502000D03*
X53340000Y-80502000D03*
X53340000Y-78502000D03*
X99060000Y-80502000D03*
X99060000Y-78502000D03*
X83820000Y-80502000D03*
X83820000Y-78502000D03*
X68580000Y-80502000D03*
X68580000Y-78502000D03*
X91440000Y-80502000D03*
X91440000Y-78502000D03*
X109220000Y-80502000D03*
X109220000Y-78502000D03*
X88900000Y-80502000D03*
X88900000Y-78502000D03*
X81280000Y-80502000D03*
X81280000Y-78502000D03*
X76200000Y-80502000D03*
X76200000Y-78502000D03*
X55880000Y-80502000D03*
X55880000Y-78502000D03*
X63500000Y-80502000D03*
X63500000Y-78502000D03*
X48260000Y-80502000D03*
X48260000Y-78502000D03*
X93980000Y-80502000D03*
X93980000Y-78502000D03*
X60960000Y-80502000D03*
X60960000Y-78502000D03*
X66040000Y-80502000D03*
X66040000Y-78502000D03*
X86360000Y-80502000D03*
X86360000Y-78502000D03*
X73660000Y-80502000D03*
X73660000Y-78502000D03*
X106680000Y-80502000D03*
X106680000Y-78502000D03*
X40640000Y-80502000D03*
X40640000Y-78502000D03*
X58420000Y-80502000D03*
X58420000Y-78502000D03*
X43180000Y-80502000D03*
X43180000Y-78502000D03*
X101600000Y-80502000D03*
X101600000Y-78502000D03*
X71120000Y-80502000D03*
X71120000Y-78502000D03*
X45720000Y-80502000D03*
X45720000Y-78502000D03*
M02*
