G04 #@! TF.GenerationSoftware,KiCad,Pcbnew,9.0.6*
G04 #@! TF.CreationDate,2025-12-11T13:31:27+05:00*
G04 #@! TF.ProjectId,SEGA-Simple-Cart,53454741-2d53-4696-9d70-6c652d436172,rev?*
G04 #@! TF.SameCoordinates,Original*
G04 #@! TF.FileFunction,Legend,Top*
G04 #@! TF.FilePolarity,Positive*
%FSLAX46Y46*%
G04 Gerber Fmt 4.6, Leading zero omitted, Abs format (unit mm)*
G04 Created by KiCad (PCBNEW 9.0.6) date 2025-12-11 13:31:27*
%MOMM*%
%LPD*%
G01*
G04 APERTURE LIST*
G04 Aperture macros list*
%AMRoundRect*
0 Rectangle with rounded corners*
0 $1 Rounding radius*
0 $2 $3 $4 $5 $6 $7 $8 $9 X,Y pos of 4 corners*
0 Add a 4 corners polygon primitive as box body*
4,1,4,$2,$3,$4,$5,$6,$7,$8,$9,$2,$3,0*
0 Add four circle primitives for the rounded corners*
1,1,$1+$1,$2,$3*
1,1,$1+$1,$4,$5*
1,1,$1+$1,$6,$7*
1,1,$1+$1,$8,$9*
0 Add four rect primitives between the rounded corners*
20,1,$1+$1,$2,$3,$4,$5,0*
20,1,$1+$1,$4,$5,$6,$7,0*
20,1,$1+$1,$6,$7,$8,$9,0*
20,1,$1+$1,$8,$9,$2,$3,0*%
G04 Aperture macros list end*
%ADD10C,0.200000*%
%ADD11C,0.150000*%
%ADD12C,0.120000*%
%ADD13C,0.300000*%
%ADD14RoundRect,0.250000X-0.450000X0.350000X-0.450000X-0.350000X0.450000X-0.350000X0.450000X0.350000X0*%
%ADD15RoundRect,0.250000X-0.337500X-0.475000X0.337500X-0.475000X0.337500X0.475000X-0.337500X0.475000X0*%
%ADD16R,1.780000X6.858000*%
%ADD17RoundRect,0.075000X-0.712500X-0.075000X0.712500X-0.075000X0.712500X0.075000X-0.712500X0.075000X0*%
%ADD18RoundRect,0.250000X0.337500X0.475000X-0.337500X0.475000X-0.337500X-0.475000X0.337500X-0.475000X0*%
%ADD19RoundRect,0.375000X0.375000X-0.625000X0.375000X0.625000X-0.375000X0.625000X-0.375000X-0.625000X0*%
%ADD20RoundRect,0.500000X1.400000X-0.500000X1.400000X0.500000X-1.400000X0.500000X-1.400000X-0.500000X0*%
G04 APERTURE END LIST*
D10*
X70775292Y-72233266D02*
X71689578Y-72233266D01*
X72661006Y-72047552D02*
X72261006Y-72047552D01*
X72261006Y-72728504D02*
X72261006Y-71428504D01*
X72261006Y-71428504D02*
X72832434Y-71428504D01*
X73975291Y-72728504D02*
X73575291Y-72109457D01*
X73289577Y-72728504D02*
X73289577Y-71428504D01*
X73289577Y-71428504D02*
X73746720Y-71428504D01*
X73746720Y-71428504D02*
X73861005Y-71490409D01*
X73861005Y-71490409D02*
X73918148Y-71552314D01*
X73918148Y-71552314D02*
X73975291Y-71676123D01*
X73975291Y-71676123D02*
X73975291Y-71861838D01*
X73975291Y-71861838D02*
X73918148Y-71985647D01*
X73918148Y-71985647D02*
X73861005Y-72047552D01*
X73861005Y-72047552D02*
X73746720Y-72109457D01*
X73746720Y-72109457D02*
X73289577Y-72109457D01*
X74718148Y-71428504D02*
X74946720Y-71428504D01*
X74946720Y-71428504D02*
X75061005Y-71490409D01*
X75061005Y-71490409D02*
X75175291Y-71614219D01*
X75175291Y-71614219D02*
X75232434Y-71861838D01*
X75232434Y-71861838D02*
X75232434Y-72295171D01*
X75232434Y-72295171D02*
X75175291Y-72542790D01*
X75175291Y-72542790D02*
X75061005Y-72666600D01*
X75061005Y-72666600D02*
X74946720Y-72728504D01*
X74946720Y-72728504D02*
X74718148Y-72728504D01*
X74718148Y-72728504D02*
X74603863Y-72666600D01*
X74603863Y-72666600D02*
X74489577Y-72542790D01*
X74489577Y-72542790D02*
X74432434Y-72295171D01*
X74432434Y-72295171D02*
X74432434Y-71861838D01*
X74432434Y-71861838D02*
X74489577Y-71614219D01*
X74489577Y-71614219D02*
X74603863Y-71490409D01*
X74603863Y-71490409D02*
X74718148Y-71428504D01*
X75746720Y-72728504D02*
X75746720Y-71428504D01*
X75746720Y-71428504D02*
X76432434Y-72728504D01*
X76432434Y-72728504D02*
X76432434Y-71428504D01*
X76832434Y-71428504D02*
X77518149Y-71428504D01*
X77175291Y-72728504D02*
X77175291Y-71428504D01*
X77918149Y-72233266D02*
X78832435Y-72233266D01*
D11*
X93464142Y-77289819D02*
X93130809Y-76813628D01*
X92892714Y-77289819D02*
X92892714Y-76289819D01*
X92892714Y-76289819D02*
X93273666Y-76289819D01*
X93273666Y-76289819D02*
X93368904Y-76337438D01*
X93368904Y-76337438D02*
X93416523Y-76385057D01*
X93416523Y-76385057D02*
X93464142Y-76480295D01*
X93464142Y-76480295D02*
X93464142Y-76623152D01*
X93464142Y-76623152D02*
X93416523Y-76718390D01*
X93416523Y-76718390D02*
X93368904Y-76766009D01*
X93368904Y-76766009D02*
X93273666Y-76813628D01*
X93273666Y-76813628D02*
X92892714Y-76813628D01*
X94416523Y-77289819D02*
X93845095Y-77289819D01*
X94130809Y-77289819D02*
X94130809Y-76289819D01*
X94130809Y-76289819D02*
X94035571Y-76432676D01*
X94035571Y-76432676D02*
X93940333Y-76527914D01*
X93940333Y-76527914D02*
X93845095Y-76575533D01*
X95368904Y-77289819D02*
X94797476Y-77289819D01*
X95083190Y-77289819D02*
X95083190Y-76289819D01*
X95083190Y-76289819D02*
X94987952Y-76432676D01*
X94987952Y-76432676D02*
X94892714Y-76527914D01*
X94892714Y-76527914D02*
X94797476Y-76575533D01*
X80351333Y-53543581D02*
X80303714Y-53591201D01*
X80303714Y-53591201D02*
X80160857Y-53638820D01*
X80160857Y-53638820D02*
X80065619Y-53638820D01*
X80065619Y-53638820D02*
X79922762Y-53591201D01*
X79922762Y-53591201D02*
X79827524Y-53495962D01*
X79827524Y-53495962D02*
X79779905Y-53400724D01*
X79779905Y-53400724D02*
X79732286Y-53210248D01*
X79732286Y-53210248D02*
X79732286Y-53067391D01*
X79732286Y-53067391D02*
X79779905Y-52876915D01*
X79779905Y-52876915D02*
X79827524Y-52781677D01*
X79827524Y-52781677D02*
X79922762Y-52686439D01*
X79922762Y-52686439D02*
X80065619Y-52638820D01*
X80065619Y-52638820D02*
X80160857Y-52638820D01*
X80160857Y-52638820D02*
X80303714Y-52686439D01*
X80303714Y-52686439D02*
X80351333Y-52734058D01*
X80684667Y-52638820D02*
X81303714Y-52638820D01*
X81303714Y-52638820D02*
X80970381Y-53019772D01*
X80970381Y-53019772D02*
X81113238Y-53019772D01*
X81113238Y-53019772D02*
X81208476Y-53067391D01*
X81208476Y-53067391D02*
X81256095Y-53115010D01*
X81256095Y-53115010D02*
X81303714Y-53210248D01*
X81303714Y-53210248D02*
X81303714Y-53448343D01*
X81303714Y-53448343D02*
X81256095Y-53543581D01*
X81256095Y-53543581D02*
X81208476Y-53591201D01*
X81208476Y-53591201D02*
X81113238Y-53638820D01*
X81113238Y-53638820D02*
X80827524Y-53638820D01*
X80827524Y-53638820D02*
X80732286Y-53591201D01*
X80732286Y-53591201D02*
X80684667Y-53543581D01*
X76033333Y-77289819D02*
X75700000Y-76813628D01*
X75461905Y-77289819D02*
X75461905Y-76289819D01*
X75461905Y-76289819D02*
X75842857Y-76289819D01*
X75842857Y-76289819D02*
X75938095Y-76337438D01*
X75938095Y-76337438D02*
X75985714Y-76385057D01*
X75985714Y-76385057D02*
X76033333Y-76480295D01*
X76033333Y-76480295D02*
X76033333Y-76623152D01*
X76033333Y-76623152D02*
X75985714Y-76718390D01*
X75985714Y-76718390D02*
X75938095Y-76766009D01*
X75938095Y-76766009D02*
X75842857Y-76813628D01*
X75842857Y-76813628D02*
X75461905Y-76813628D01*
X76604762Y-76718390D02*
X76509524Y-76670771D01*
X76509524Y-76670771D02*
X76461905Y-76623152D01*
X76461905Y-76623152D02*
X76414286Y-76527914D01*
X76414286Y-76527914D02*
X76414286Y-76480295D01*
X76414286Y-76480295D02*
X76461905Y-76385057D01*
X76461905Y-76385057D02*
X76509524Y-76337438D01*
X76509524Y-76337438D02*
X76604762Y-76289819D01*
X76604762Y-76289819D02*
X76795238Y-76289819D01*
X76795238Y-76289819D02*
X76890476Y-76337438D01*
X76890476Y-76337438D02*
X76938095Y-76385057D01*
X76938095Y-76385057D02*
X76985714Y-76480295D01*
X76985714Y-76480295D02*
X76985714Y-76527914D01*
X76985714Y-76527914D02*
X76938095Y-76623152D01*
X76938095Y-76623152D02*
X76890476Y-76670771D01*
X76890476Y-76670771D02*
X76795238Y-76718390D01*
X76795238Y-76718390D02*
X76604762Y-76718390D01*
X76604762Y-76718390D02*
X76509524Y-76766009D01*
X76509524Y-76766009D02*
X76461905Y-76813628D01*
X76461905Y-76813628D02*
X76414286Y-76908866D01*
X76414286Y-76908866D02*
X76414286Y-77099342D01*
X76414286Y-77099342D02*
X76461905Y-77194580D01*
X76461905Y-77194580D02*
X76509524Y-77242200D01*
X76509524Y-77242200D02*
X76604762Y-77289819D01*
X76604762Y-77289819D02*
X76795238Y-77289819D01*
X76795238Y-77289819D02*
X76890476Y-77242200D01*
X76890476Y-77242200D02*
X76938095Y-77194580D01*
X76938095Y-77194580D02*
X76985714Y-77099342D01*
X76985714Y-77099342D02*
X76985714Y-76908866D01*
X76985714Y-76908866D02*
X76938095Y-76813628D01*
X76938095Y-76813628D02*
X76890476Y-76766009D01*
X76890476Y-76766009D02*
X76795238Y-76718390D01*
X74168095Y-56004819D02*
X74168095Y-56814342D01*
X74168095Y-56814342D02*
X74215714Y-56909580D01*
X74215714Y-56909580D02*
X74263333Y-56957200D01*
X74263333Y-56957200D02*
X74358571Y-57004819D01*
X74358571Y-57004819D02*
X74549047Y-57004819D01*
X74549047Y-57004819D02*
X74644285Y-56957200D01*
X74644285Y-56957200D02*
X74691904Y-56909580D01*
X74691904Y-56909580D02*
X74739523Y-56814342D01*
X74739523Y-56814342D02*
X74739523Y-56004819D01*
X75739523Y-57004819D02*
X75168095Y-57004819D01*
X75453809Y-57004819D02*
X75453809Y-56004819D01*
X75453809Y-56004819D02*
X75358571Y-56147676D01*
X75358571Y-56147676D02*
X75263333Y-56242914D01*
X75263333Y-56242914D02*
X75168095Y-56290533D01*
X45553333Y-77289819D02*
X45220000Y-76813628D01*
X44981905Y-77289819D02*
X44981905Y-76289819D01*
X44981905Y-76289819D02*
X45362857Y-76289819D01*
X45362857Y-76289819D02*
X45458095Y-76337438D01*
X45458095Y-76337438D02*
X45505714Y-76385057D01*
X45505714Y-76385057D02*
X45553333Y-76480295D01*
X45553333Y-76480295D02*
X45553333Y-76623152D01*
X45553333Y-76623152D02*
X45505714Y-76718390D01*
X45505714Y-76718390D02*
X45458095Y-76766009D01*
X45458095Y-76766009D02*
X45362857Y-76813628D01*
X45362857Y-76813628D02*
X44981905Y-76813628D01*
X45934286Y-76385057D02*
X45981905Y-76337438D01*
X45981905Y-76337438D02*
X46077143Y-76289819D01*
X46077143Y-76289819D02*
X46315238Y-76289819D01*
X46315238Y-76289819D02*
X46410476Y-76337438D01*
X46410476Y-76337438D02*
X46458095Y-76385057D01*
X46458095Y-76385057D02*
X46505714Y-76480295D01*
X46505714Y-76480295D02*
X46505714Y-76575533D01*
X46505714Y-76575533D02*
X46458095Y-76718390D01*
X46458095Y-76718390D02*
X45886667Y-77289819D01*
X45886667Y-77289819D02*
X46505714Y-77289819D01*
X50633333Y-77289819D02*
X50300000Y-76813628D01*
X50061905Y-77289819D02*
X50061905Y-76289819D01*
X50061905Y-76289819D02*
X50442857Y-76289819D01*
X50442857Y-76289819D02*
X50538095Y-76337438D01*
X50538095Y-76337438D02*
X50585714Y-76385057D01*
X50585714Y-76385057D02*
X50633333Y-76480295D01*
X50633333Y-76480295D02*
X50633333Y-76623152D01*
X50633333Y-76623152D02*
X50585714Y-76718390D01*
X50585714Y-76718390D02*
X50538095Y-76766009D01*
X50538095Y-76766009D02*
X50442857Y-76813628D01*
X50442857Y-76813628D02*
X50061905Y-76813628D01*
X51490476Y-76623152D02*
X51490476Y-77289819D01*
X51252381Y-76242200D02*
X51014286Y-76956485D01*
X51014286Y-76956485D02*
X51633333Y-76956485D01*
X55713333Y-77289819D02*
X55380000Y-76813628D01*
X55141905Y-77289819D02*
X55141905Y-76289819D01*
X55141905Y-76289819D02*
X55522857Y-76289819D01*
X55522857Y-76289819D02*
X55618095Y-76337438D01*
X55618095Y-76337438D02*
X55665714Y-76385057D01*
X55665714Y-76385057D02*
X55713333Y-76480295D01*
X55713333Y-76480295D02*
X55713333Y-76623152D01*
X55713333Y-76623152D02*
X55665714Y-76718390D01*
X55665714Y-76718390D02*
X55618095Y-76766009D01*
X55618095Y-76766009D02*
X55522857Y-76813628D01*
X55522857Y-76813628D02*
X55141905Y-76813628D01*
X56570476Y-76289819D02*
X56380000Y-76289819D01*
X56380000Y-76289819D02*
X56284762Y-76337438D01*
X56284762Y-76337438D02*
X56237143Y-76385057D01*
X56237143Y-76385057D02*
X56141905Y-76527914D01*
X56141905Y-76527914D02*
X56094286Y-76718390D01*
X56094286Y-76718390D02*
X56094286Y-77099342D01*
X56094286Y-77099342D02*
X56141905Y-77194580D01*
X56141905Y-77194580D02*
X56189524Y-77242200D01*
X56189524Y-77242200D02*
X56284762Y-77289819D01*
X56284762Y-77289819D02*
X56475238Y-77289819D01*
X56475238Y-77289819D02*
X56570476Y-77242200D01*
X56570476Y-77242200D02*
X56618095Y-77194580D01*
X56618095Y-77194580D02*
X56665714Y-77099342D01*
X56665714Y-77099342D02*
X56665714Y-76861247D01*
X56665714Y-76861247D02*
X56618095Y-76766009D01*
X56618095Y-76766009D02*
X56570476Y-76718390D01*
X56570476Y-76718390D02*
X56475238Y-76670771D01*
X56475238Y-76670771D02*
X56284762Y-76670771D01*
X56284762Y-76670771D02*
X56189524Y-76718390D01*
X56189524Y-76718390D02*
X56141905Y-76766009D01*
X56141905Y-76766009D02*
X56094286Y-76861247D01*
X88352333Y-77289819D02*
X88019000Y-76813628D01*
X87780905Y-77289819D02*
X87780905Y-76289819D01*
X87780905Y-76289819D02*
X88161857Y-76289819D01*
X88161857Y-76289819D02*
X88257095Y-76337438D01*
X88257095Y-76337438D02*
X88304714Y-76385057D01*
X88304714Y-76385057D02*
X88352333Y-76480295D01*
X88352333Y-76480295D02*
X88352333Y-76623152D01*
X88352333Y-76623152D02*
X88304714Y-76718390D01*
X88304714Y-76718390D02*
X88257095Y-76766009D01*
X88257095Y-76766009D02*
X88161857Y-76813628D01*
X88161857Y-76813628D02*
X87780905Y-76813628D01*
X88828524Y-77289819D02*
X89019000Y-77289819D01*
X89019000Y-77289819D02*
X89114238Y-77242200D01*
X89114238Y-77242200D02*
X89161857Y-77194580D01*
X89161857Y-77194580D02*
X89257095Y-77051723D01*
X89257095Y-77051723D02*
X89304714Y-76861247D01*
X89304714Y-76861247D02*
X89304714Y-76480295D01*
X89304714Y-76480295D02*
X89257095Y-76385057D01*
X89257095Y-76385057D02*
X89209476Y-76337438D01*
X89209476Y-76337438D02*
X89114238Y-76289819D01*
X89114238Y-76289819D02*
X88923762Y-76289819D01*
X88923762Y-76289819D02*
X88828524Y-76337438D01*
X88828524Y-76337438D02*
X88780905Y-76385057D01*
X88780905Y-76385057D02*
X88733286Y-76480295D01*
X88733286Y-76480295D02*
X88733286Y-76718390D01*
X88733286Y-76718390D02*
X88780905Y-76813628D01*
X88780905Y-76813628D02*
X88828524Y-76861247D01*
X88828524Y-76861247D02*
X88923762Y-76908866D01*
X88923762Y-76908866D02*
X89114238Y-76908866D01*
X89114238Y-76908866D02*
X89209476Y-76861247D01*
X89209476Y-76861247D02*
X89257095Y-76813628D01*
X89257095Y-76813628D02*
X89304714Y-76718390D01*
X90416142Y-77289819D02*
X90082809Y-76813628D01*
X89844714Y-77289819D02*
X89844714Y-76289819D01*
X89844714Y-76289819D02*
X90225666Y-76289819D01*
X90225666Y-76289819D02*
X90320904Y-76337438D01*
X90320904Y-76337438D02*
X90368523Y-76385057D01*
X90368523Y-76385057D02*
X90416142Y-76480295D01*
X90416142Y-76480295D02*
X90416142Y-76623152D01*
X90416142Y-76623152D02*
X90368523Y-76718390D01*
X90368523Y-76718390D02*
X90320904Y-76766009D01*
X90320904Y-76766009D02*
X90225666Y-76813628D01*
X90225666Y-76813628D02*
X89844714Y-76813628D01*
X91368523Y-77289819D02*
X90797095Y-77289819D01*
X91082809Y-77289819D02*
X91082809Y-76289819D01*
X91082809Y-76289819D02*
X90987571Y-76432676D01*
X90987571Y-76432676D02*
X90892333Y-76527914D01*
X90892333Y-76527914D02*
X90797095Y-76575533D01*
X91987571Y-76289819D02*
X92082809Y-76289819D01*
X92082809Y-76289819D02*
X92178047Y-76337438D01*
X92178047Y-76337438D02*
X92225666Y-76385057D01*
X92225666Y-76385057D02*
X92273285Y-76480295D01*
X92273285Y-76480295D02*
X92320904Y-76670771D01*
X92320904Y-76670771D02*
X92320904Y-76908866D01*
X92320904Y-76908866D02*
X92273285Y-77099342D01*
X92273285Y-77099342D02*
X92225666Y-77194580D01*
X92225666Y-77194580D02*
X92178047Y-77242200D01*
X92178047Y-77242200D02*
X92082809Y-77289819D01*
X92082809Y-77289819D02*
X91987571Y-77289819D01*
X91987571Y-77289819D02*
X91892333Y-77242200D01*
X91892333Y-77242200D02*
X91844714Y-77194580D01*
X91844714Y-77194580D02*
X91797095Y-77099342D01*
X91797095Y-77099342D02*
X91749476Y-76908866D01*
X91749476Y-76908866D02*
X91749476Y-76670771D01*
X91749476Y-76670771D02*
X91797095Y-76480295D01*
X91797095Y-76480295D02*
X91844714Y-76385057D01*
X91844714Y-76385057D02*
X91892333Y-76337438D01*
X91892333Y-76337438D02*
X91987571Y-76289819D01*
X48093333Y-77289819D02*
X47760000Y-76813628D01*
X47521905Y-77289819D02*
X47521905Y-76289819D01*
X47521905Y-76289819D02*
X47902857Y-76289819D01*
X47902857Y-76289819D02*
X47998095Y-76337438D01*
X47998095Y-76337438D02*
X48045714Y-76385057D01*
X48045714Y-76385057D02*
X48093333Y-76480295D01*
X48093333Y-76480295D02*
X48093333Y-76623152D01*
X48093333Y-76623152D02*
X48045714Y-76718390D01*
X48045714Y-76718390D02*
X47998095Y-76766009D01*
X47998095Y-76766009D02*
X47902857Y-76813628D01*
X47902857Y-76813628D02*
X47521905Y-76813628D01*
X48426667Y-76289819D02*
X49045714Y-76289819D01*
X49045714Y-76289819D02*
X48712381Y-76670771D01*
X48712381Y-76670771D02*
X48855238Y-76670771D01*
X48855238Y-76670771D02*
X48950476Y-76718390D01*
X48950476Y-76718390D02*
X48998095Y-76766009D01*
X48998095Y-76766009D02*
X49045714Y-76861247D01*
X49045714Y-76861247D02*
X49045714Y-77099342D01*
X49045714Y-77099342D02*
X48998095Y-77194580D01*
X48998095Y-77194580D02*
X48950476Y-77242200D01*
X48950476Y-77242200D02*
X48855238Y-77289819D01*
X48855238Y-77289819D02*
X48569524Y-77289819D01*
X48569524Y-77289819D02*
X48474286Y-77242200D01*
X48474286Y-77242200D02*
X48426667Y-77194580D01*
X103497142Y-77289819D02*
X103163809Y-76813628D01*
X102925714Y-77289819D02*
X102925714Y-76289819D01*
X102925714Y-76289819D02*
X103306666Y-76289819D01*
X103306666Y-76289819D02*
X103401904Y-76337438D01*
X103401904Y-76337438D02*
X103449523Y-76385057D01*
X103449523Y-76385057D02*
X103497142Y-76480295D01*
X103497142Y-76480295D02*
X103497142Y-76623152D01*
X103497142Y-76623152D02*
X103449523Y-76718390D01*
X103449523Y-76718390D02*
X103401904Y-76766009D01*
X103401904Y-76766009D02*
X103306666Y-76813628D01*
X103306666Y-76813628D02*
X102925714Y-76813628D01*
X104449523Y-77289819D02*
X103878095Y-77289819D01*
X104163809Y-77289819D02*
X104163809Y-76289819D01*
X104163809Y-76289819D02*
X104068571Y-76432676D01*
X104068571Y-76432676D02*
X103973333Y-76527914D01*
X103973333Y-76527914D02*
X103878095Y-76575533D01*
X104782857Y-76289819D02*
X105401904Y-76289819D01*
X105401904Y-76289819D02*
X105068571Y-76670771D01*
X105068571Y-76670771D02*
X105211428Y-76670771D01*
X105211428Y-76670771D02*
X105306666Y-76718390D01*
X105306666Y-76718390D02*
X105354285Y-76766009D01*
X105354285Y-76766009D02*
X105401904Y-76861247D01*
X105401904Y-76861247D02*
X105401904Y-77099342D01*
X105401904Y-77099342D02*
X105354285Y-77194580D01*
X105354285Y-77194580D02*
X105306666Y-77242200D01*
X105306666Y-77242200D02*
X105211428Y-77289819D01*
X105211428Y-77289819D02*
X104925714Y-77289819D01*
X104925714Y-77289819D02*
X104830476Y-77242200D01*
X104830476Y-77242200D02*
X104782857Y-77194580D01*
X107021333Y-63478580D02*
X106973714Y-63526200D01*
X106973714Y-63526200D02*
X106830857Y-63573819D01*
X106830857Y-63573819D02*
X106735619Y-63573819D01*
X106735619Y-63573819D02*
X106592762Y-63526200D01*
X106592762Y-63526200D02*
X106497524Y-63430961D01*
X106497524Y-63430961D02*
X106449905Y-63335723D01*
X106449905Y-63335723D02*
X106402286Y-63145247D01*
X106402286Y-63145247D02*
X106402286Y-63002390D01*
X106402286Y-63002390D02*
X106449905Y-62811914D01*
X106449905Y-62811914D02*
X106497524Y-62716676D01*
X106497524Y-62716676D02*
X106592762Y-62621438D01*
X106592762Y-62621438D02*
X106735619Y-62573819D01*
X106735619Y-62573819D02*
X106830857Y-62573819D01*
X106830857Y-62573819D02*
X106973714Y-62621438D01*
X106973714Y-62621438D02*
X107021333Y-62669057D01*
X107402286Y-62669057D02*
X107449905Y-62621438D01*
X107449905Y-62621438D02*
X107545143Y-62573819D01*
X107545143Y-62573819D02*
X107783238Y-62573819D01*
X107783238Y-62573819D02*
X107878476Y-62621438D01*
X107878476Y-62621438D02*
X107926095Y-62669057D01*
X107926095Y-62669057D02*
X107973714Y-62764295D01*
X107973714Y-62764295D02*
X107973714Y-62859533D01*
X107973714Y-62859533D02*
X107926095Y-63002390D01*
X107926095Y-63002390D02*
X107354667Y-63573819D01*
X107354667Y-63573819D02*
X107973714Y-63573819D01*
X43013333Y-77289819D02*
X42680000Y-76813628D01*
X42441905Y-77289819D02*
X42441905Y-76289819D01*
X42441905Y-76289819D02*
X42822857Y-76289819D01*
X42822857Y-76289819D02*
X42918095Y-76337438D01*
X42918095Y-76337438D02*
X42965714Y-76385057D01*
X42965714Y-76385057D02*
X43013333Y-76480295D01*
X43013333Y-76480295D02*
X43013333Y-76623152D01*
X43013333Y-76623152D02*
X42965714Y-76718390D01*
X42965714Y-76718390D02*
X42918095Y-76766009D01*
X42918095Y-76766009D02*
X42822857Y-76813628D01*
X42822857Y-76813628D02*
X42441905Y-76813628D01*
X43965714Y-77289819D02*
X43394286Y-77289819D01*
X43680000Y-77289819D02*
X43680000Y-76289819D01*
X43680000Y-76289819D02*
X43584762Y-76432676D01*
X43584762Y-76432676D02*
X43489524Y-76527914D01*
X43489524Y-76527914D02*
X43394286Y-76575533D01*
X53173333Y-77289819D02*
X52840000Y-76813628D01*
X52601905Y-77289819D02*
X52601905Y-76289819D01*
X52601905Y-76289819D02*
X52982857Y-76289819D01*
X52982857Y-76289819D02*
X53078095Y-76337438D01*
X53078095Y-76337438D02*
X53125714Y-76385057D01*
X53125714Y-76385057D02*
X53173333Y-76480295D01*
X53173333Y-76480295D02*
X53173333Y-76623152D01*
X53173333Y-76623152D02*
X53125714Y-76718390D01*
X53125714Y-76718390D02*
X53078095Y-76766009D01*
X53078095Y-76766009D02*
X52982857Y-76813628D01*
X52982857Y-76813628D02*
X52601905Y-76813628D01*
X54078095Y-76289819D02*
X53601905Y-76289819D01*
X53601905Y-76289819D02*
X53554286Y-76766009D01*
X53554286Y-76766009D02*
X53601905Y-76718390D01*
X53601905Y-76718390D02*
X53697143Y-76670771D01*
X53697143Y-76670771D02*
X53935238Y-76670771D01*
X53935238Y-76670771D02*
X54030476Y-76718390D01*
X54030476Y-76718390D02*
X54078095Y-76766009D01*
X54078095Y-76766009D02*
X54125714Y-76861247D01*
X54125714Y-76861247D02*
X54125714Y-77099342D01*
X54125714Y-77099342D02*
X54078095Y-77194580D01*
X54078095Y-77194580D02*
X54030476Y-77242200D01*
X54030476Y-77242200D02*
X53935238Y-77289819D01*
X53935238Y-77289819D02*
X53697143Y-77289819D01*
X53697143Y-77289819D02*
X53601905Y-77242200D01*
X53601905Y-77242200D02*
X53554286Y-77194580D01*
X73493333Y-77289819D02*
X73160000Y-76813628D01*
X72921905Y-77289819D02*
X72921905Y-76289819D01*
X72921905Y-76289819D02*
X73302857Y-76289819D01*
X73302857Y-76289819D02*
X73398095Y-76337438D01*
X73398095Y-76337438D02*
X73445714Y-76385057D01*
X73445714Y-76385057D02*
X73493333Y-76480295D01*
X73493333Y-76480295D02*
X73493333Y-76623152D01*
X73493333Y-76623152D02*
X73445714Y-76718390D01*
X73445714Y-76718390D02*
X73398095Y-76766009D01*
X73398095Y-76766009D02*
X73302857Y-76813628D01*
X73302857Y-76813628D02*
X72921905Y-76813628D01*
X73826667Y-76289819D02*
X74493333Y-76289819D01*
X74493333Y-76289819D02*
X74064762Y-77289819D01*
X109180333Y-78083580D02*
X109132714Y-78131200D01*
X109132714Y-78131200D02*
X108989857Y-78178819D01*
X108989857Y-78178819D02*
X108894619Y-78178819D01*
X108894619Y-78178819D02*
X108751762Y-78131200D01*
X108751762Y-78131200D02*
X108656524Y-78035961D01*
X108656524Y-78035961D02*
X108608905Y-77940723D01*
X108608905Y-77940723D02*
X108561286Y-77750247D01*
X108561286Y-77750247D02*
X108561286Y-77607390D01*
X108561286Y-77607390D02*
X108608905Y-77416914D01*
X108608905Y-77416914D02*
X108656524Y-77321676D01*
X108656524Y-77321676D02*
X108751762Y-77226438D01*
X108751762Y-77226438D02*
X108894619Y-77178819D01*
X108894619Y-77178819D02*
X108989857Y-77178819D01*
X108989857Y-77178819D02*
X109132714Y-77226438D01*
X109132714Y-77226438D02*
X109180333Y-77274057D01*
X110132714Y-78178819D02*
X109561286Y-78178819D01*
X109847000Y-78178819D02*
X109847000Y-77178819D01*
X109847000Y-77178819D02*
X109751762Y-77321676D01*
X109751762Y-77321676D02*
X109656524Y-77416914D01*
X109656524Y-77416914D02*
X109561286Y-77464533D01*
X96512142Y-77289819D02*
X96178809Y-76813628D01*
X95940714Y-77289819D02*
X95940714Y-76289819D01*
X95940714Y-76289819D02*
X96321666Y-76289819D01*
X96321666Y-76289819D02*
X96416904Y-76337438D01*
X96416904Y-76337438D02*
X96464523Y-76385057D01*
X96464523Y-76385057D02*
X96512142Y-76480295D01*
X96512142Y-76480295D02*
X96512142Y-76623152D01*
X96512142Y-76623152D02*
X96464523Y-76718390D01*
X96464523Y-76718390D02*
X96416904Y-76766009D01*
X96416904Y-76766009D02*
X96321666Y-76813628D01*
X96321666Y-76813628D02*
X95940714Y-76813628D01*
X97464523Y-77289819D02*
X96893095Y-77289819D01*
X97178809Y-77289819D02*
X97178809Y-76289819D01*
X97178809Y-76289819D02*
X97083571Y-76432676D01*
X97083571Y-76432676D02*
X96988333Y-76527914D01*
X96988333Y-76527914D02*
X96893095Y-76575533D01*
X97845476Y-76385057D02*
X97893095Y-76337438D01*
X97893095Y-76337438D02*
X97988333Y-76289819D01*
X97988333Y-76289819D02*
X98226428Y-76289819D01*
X98226428Y-76289819D02*
X98321666Y-76337438D01*
X98321666Y-76337438D02*
X98369285Y-76385057D01*
X98369285Y-76385057D02*
X98416904Y-76480295D01*
X98416904Y-76480295D02*
X98416904Y-76575533D01*
X98416904Y-76575533D02*
X98369285Y-76718390D01*
X98369285Y-76718390D02*
X97797857Y-77289819D01*
X97797857Y-77289819D02*
X98416904Y-77289819D01*
X104428818Y-72643904D02*
X105238341Y-72643904D01*
X105238341Y-72643904D02*
X105333579Y-72596285D01*
X105333579Y-72596285D02*
X105381199Y-72548666D01*
X105381199Y-72548666D02*
X105428818Y-72453428D01*
X105428818Y-72453428D02*
X105428818Y-72262952D01*
X105428818Y-72262952D02*
X105381199Y-72167714D01*
X105381199Y-72167714D02*
X105333579Y-72120095D01*
X105333579Y-72120095D02*
X105238341Y-72072476D01*
X105238341Y-72072476D02*
X104428818Y-72072476D01*
X104524056Y-71643904D02*
X104476437Y-71596285D01*
X104476437Y-71596285D02*
X104428818Y-71501047D01*
X104428818Y-71501047D02*
X104428818Y-71262952D01*
X104428818Y-71262952D02*
X104476437Y-71167714D01*
X104476437Y-71167714D02*
X104524056Y-71120095D01*
X104524056Y-71120095D02*
X104619294Y-71072476D01*
X104619294Y-71072476D02*
X104714532Y-71072476D01*
X104714532Y-71072476D02*
X104857389Y-71120095D01*
X104857389Y-71120095D02*
X105428818Y-71691523D01*
X105428818Y-71691523D02*
X105428818Y-71072476D01*
D12*
X93245000Y-79274936D02*
X93245000Y-79729064D01*
X94715000Y-79274936D02*
X94715000Y-79729064D01*
X80256747Y-54129000D02*
X80779253Y-54129000D01*
X80256747Y-55599000D02*
X80779253Y-55599000D01*
X75465000Y-79274936D02*
X75465000Y-79729064D01*
X76935000Y-79274936D02*
X76935000Y-79729064D01*
X65620000Y-57340000D02*
X84240000Y-57340000D01*
X84240000Y-69660000D02*
X65620000Y-69660000D01*
X64190000Y-57750000D02*
X63860000Y-57990000D01*
X63860000Y-57510000D01*
X64190000Y-57750000D01*
G36*
X64190000Y-57750000D02*
G01*
X63860000Y-57990000D01*
X63860000Y-57510000D01*
X64190000Y-57750000D01*
G37*
X44985000Y-79274936D02*
X44985000Y-79729064D01*
X46455000Y-79274936D02*
X46455000Y-79729064D01*
X50065000Y-79274936D02*
X50065000Y-79729064D01*
X51535000Y-79274936D02*
X51535000Y-79729064D01*
X55145000Y-79274936D02*
X55145000Y-79729064D01*
X56615000Y-79274936D02*
X56615000Y-79729064D01*
X88165000Y-79274936D02*
X88165000Y-79729064D01*
X89635000Y-79274936D02*
X89635000Y-79729064D01*
X90705000Y-79274936D02*
X90705000Y-79729064D01*
X92175000Y-79274936D02*
X92175000Y-79729064D01*
X47525000Y-79274936D02*
X47525000Y-79729064D01*
X48995000Y-79274936D02*
X48995000Y-79729064D01*
X103405000Y-79274936D02*
X103405000Y-79729064D01*
X104875000Y-79274936D02*
X104875000Y-79729064D01*
X107449253Y-64162000D02*
X106926747Y-64162000D01*
X107449253Y-65632000D02*
X106926747Y-65632000D01*
X42445000Y-79274936D02*
X42445000Y-79729064D01*
X43915000Y-79274936D02*
X43915000Y-79729064D01*
X52605000Y-79274936D02*
X52605000Y-79729064D01*
X54075000Y-79274936D02*
X54075000Y-79729064D01*
X72925000Y-79274936D02*
X72925000Y-79729064D01*
X74395000Y-79274936D02*
X74395000Y-79729064D01*
X109608253Y-78640000D02*
X109085747Y-78640000D01*
X109608253Y-80110000D02*
X109085747Y-80110000D01*
X95785000Y-79274936D02*
X95785000Y-79729064D01*
X97255000Y-79274936D02*
X97255000Y-79729064D01*
X106064000Y-69972000D02*
X107324000Y-69972000D01*
X106064000Y-73732000D02*
X106064000Y-69972000D01*
X112884000Y-69972000D02*
X111624000Y-69972000D01*
X112884000Y-73732000D02*
X112884000Y-69972000D01*
X106164000Y-75012000D02*
X105834000Y-75252000D01*
X105834000Y-74772000D01*
X106164000Y-75012000D01*
G36*
X106164000Y-75012000D02*
G01*
X105834000Y-75252000D01*
X105834000Y-74772000D01*
X106164000Y-75012000D01*
G37*
%LPC*%
D11*
X32766000Y-83312000D02*
X117094000Y-83312000D01*
X117094000Y-90678000D01*
X32766000Y-90678000D01*
X32766000Y-83312000D01*
G36*
X32766000Y-83312000D02*
G01*
X117094000Y-83312000D01*
X117094000Y-90678000D01*
X32766000Y-90678000D01*
X32766000Y-83312000D01*
G37*
D13*
X47346082Y-53958400D02*
X47551439Y-54029828D01*
X47551439Y-54029828D02*
X47908582Y-54029828D01*
X47908582Y-54029828D02*
X48060368Y-53958400D01*
X48060368Y-53958400D02*
X48140725Y-53886971D01*
X48140725Y-53886971D02*
X48230010Y-53744114D01*
X48230010Y-53744114D02*
X48247868Y-53601257D01*
X48247868Y-53601257D02*
X48194296Y-53458400D01*
X48194296Y-53458400D02*
X48131796Y-53386971D01*
X48131796Y-53386971D02*
X47997868Y-53315542D01*
X47997868Y-53315542D02*
X47721082Y-53244114D01*
X47721082Y-53244114D02*
X47587153Y-53172685D01*
X47587153Y-53172685D02*
X47524653Y-53101257D01*
X47524653Y-53101257D02*
X47471082Y-52958400D01*
X47471082Y-52958400D02*
X47488939Y-52815542D01*
X47488939Y-52815542D02*
X47578225Y-52672685D01*
X47578225Y-52672685D02*
X47658582Y-52601257D01*
X47658582Y-52601257D02*
X47810368Y-52529828D01*
X47810368Y-52529828D02*
X48167510Y-52529828D01*
X48167510Y-52529828D02*
X48372868Y-52601257D01*
X48935367Y-53244114D02*
X49435367Y-53244114D01*
X49551439Y-54029828D02*
X48837153Y-54029828D01*
X48837153Y-54029828D02*
X49024653Y-52529828D01*
X49024653Y-52529828D02*
X49738939Y-52529828D01*
X51158582Y-52601257D02*
X51024653Y-52529828D01*
X51024653Y-52529828D02*
X50810367Y-52529828D01*
X50810367Y-52529828D02*
X50587153Y-52601257D01*
X50587153Y-52601257D02*
X50426439Y-52744114D01*
X50426439Y-52744114D02*
X50337153Y-52886971D01*
X50337153Y-52886971D02*
X50230010Y-53172685D01*
X50230010Y-53172685D02*
X50203224Y-53386971D01*
X50203224Y-53386971D02*
X50238939Y-53672685D01*
X50238939Y-53672685D02*
X50292510Y-53815542D01*
X50292510Y-53815542D02*
X50417510Y-53958400D01*
X50417510Y-53958400D02*
X50622867Y-54029828D01*
X50622867Y-54029828D02*
X50765724Y-54029828D01*
X50765724Y-54029828D02*
X50988939Y-53958400D01*
X50988939Y-53958400D02*
X51069296Y-53886971D01*
X51069296Y-53886971D02*
X51131796Y-53386971D01*
X51131796Y-53386971D02*
X50846082Y-53386971D01*
X51676439Y-53601257D02*
X52390724Y-53601257D01*
X51480010Y-54029828D02*
X52167510Y-52529828D01*
X52167510Y-52529828D02*
X52480010Y-54029828D01*
X54122867Y-54029828D02*
X54310367Y-52529828D01*
X54310367Y-52529828D02*
X54676438Y-53601257D01*
X54676438Y-53601257D02*
X55310367Y-52529828D01*
X55310367Y-52529828D02*
X55122867Y-54029828D01*
X55837153Y-54029828D02*
X56024653Y-52529828D01*
X56024653Y-52529828D02*
X56381796Y-52529828D01*
X56381796Y-52529828D02*
X56587153Y-52601257D01*
X56587153Y-52601257D02*
X56712153Y-52744114D01*
X56712153Y-52744114D02*
X56765724Y-52886971D01*
X56765724Y-52886971D02*
X56801439Y-53172685D01*
X56801439Y-53172685D02*
X56774653Y-53386971D01*
X56774653Y-53386971D02*
X56667510Y-53672685D01*
X56667510Y-53672685D02*
X56578224Y-53815542D01*
X56578224Y-53815542D02*
X56417510Y-53958400D01*
X56417510Y-53958400D02*
X56194296Y-54029828D01*
X56194296Y-54029828D02*
X55837153Y-54029828D01*
X59355010Y-53886971D02*
X59274653Y-53958400D01*
X59274653Y-53958400D02*
X59051438Y-54029828D01*
X59051438Y-54029828D02*
X58908581Y-54029828D01*
X58908581Y-54029828D02*
X58703224Y-53958400D01*
X58703224Y-53958400D02*
X58578224Y-53815542D01*
X58578224Y-53815542D02*
X58524653Y-53672685D01*
X58524653Y-53672685D02*
X58488938Y-53386971D01*
X58488938Y-53386971D02*
X58515724Y-53172685D01*
X58515724Y-53172685D02*
X58622867Y-52886971D01*
X58622867Y-52886971D02*
X58712153Y-52744114D01*
X58712153Y-52744114D02*
X58872867Y-52601257D01*
X58872867Y-52601257D02*
X59096081Y-52529828D01*
X59096081Y-52529828D02*
X59238938Y-52529828D01*
X59238938Y-52529828D02*
X59444296Y-52601257D01*
X59444296Y-52601257D02*
X59506796Y-52672685D01*
X59962153Y-53601257D02*
X60676438Y-53601257D01*
X59765724Y-54029828D02*
X60453224Y-52529828D01*
X60453224Y-52529828D02*
X60765724Y-54029828D01*
X62122867Y-54029828D02*
X61712152Y-53315542D01*
X61265724Y-54029828D02*
X61453224Y-52529828D01*
X61453224Y-52529828D02*
X62024652Y-52529828D01*
X62024652Y-52529828D02*
X62158581Y-52601257D01*
X62158581Y-52601257D02*
X62221081Y-52672685D01*
X62221081Y-52672685D02*
X62274652Y-52815542D01*
X62274652Y-52815542D02*
X62247867Y-53029828D01*
X62247867Y-53029828D02*
X62158581Y-53172685D01*
X62158581Y-53172685D02*
X62078224Y-53244114D01*
X62078224Y-53244114D02*
X61926438Y-53315542D01*
X61926438Y-53315542D02*
X61355010Y-53315542D01*
X62738938Y-52529828D02*
X63596081Y-52529828D01*
X62980010Y-54029828D02*
X63167510Y-52529828D01*
D14*
X93980000Y-78502000D03*
X93980000Y-80502000D03*
D15*
X79480500Y-54864000D03*
X81555500Y-54864000D03*
D16*
X35560000Y-86360000D03*
X38100000Y-86360000D03*
X40640000Y-86360000D03*
X43180000Y-86360000D03*
X45720000Y-86360000D03*
X48260000Y-86360000D03*
X50800000Y-86360000D03*
X53340000Y-86360000D03*
X55880000Y-86360000D03*
X58420000Y-86360000D03*
X60960000Y-86360000D03*
X63500000Y-86360000D03*
X66040000Y-86360000D03*
X68580000Y-86360000D03*
X71120000Y-86360000D03*
X73660000Y-86360000D03*
X76200000Y-86360000D03*
X78740000Y-86360000D03*
X81280000Y-86360000D03*
X83820000Y-86360000D03*
X86360000Y-86360000D03*
X88900000Y-86360000D03*
X91440000Y-86360000D03*
X93980000Y-86360000D03*
X96520000Y-86360000D03*
X99060000Y-86360000D03*
X101600000Y-86360000D03*
X104140000Y-86360000D03*
X106680000Y-86360000D03*
X109220000Y-86360000D03*
X111760000Y-86360000D03*
X114300000Y-86360000D03*
D14*
X76200000Y-78502000D03*
X76200000Y-80502000D03*
D17*
X65242500Y-57750000D03*
X65242500Y-58250000D03*
X65242500Y-58750000D03*
X65242500Y-59250000D03*
X65242500Y-59750000D03*
X65242500Y-60250000D03*
X65242500Y-60750000D03*
X65242500Y-61250000D03*
X65242500Y-61750000D03*
X65242500Y-62250000D03*
X65242500Y-62750000D03*
X65242500Y-63250000D03*
X65242500Y-63750000D03*
X65242500Y-64250000D03*
X65242500Y-64750000D03*
X65242500Y-65250000D03*
X65242500Y-65750000D03*
X65242500Y-66250000D03*
X65242500Y-66750000D03*
X65242500Y-67250000D03*
X65242500Y-67750000D03*
X65242500Y-68250000D03*
X65242500Y-68750000D03*
X65242500Y-69250000D03*
X84617500Y-69250000D03*
X84617500Y-68750000D03*
X84617500Y-68250000D03*
X84617500Y-67750000D03*
X84617500Y-67250000D03*
X84617500Y-66750000D03*
X84617500Y-66250000D03*
X84617500Y-65750000D03*
X84617500Y-65250000D03*
X84617500Y-64750000D03*
X84617500Y-64250000D03*
X84617500Y-63750000D03*
X84617500Y-63250000D03*
X84617500Y-62750000D03*
X84617500Y-62250000D03*
X84617500Y-61750000D03*
X84617500Y-61250000D03*
X84617500Y-60750000D03*
X84617500Y-60250000D03*
X84617500Y-59750000D03*
X84617500Y-59250000D03*
X84617500Y-58750000D03*
X84617500Y-58250000D03*
X84617500Y-57750000D03*
D14*
X45720000Y-78502000D03*
X45720000Y-80502000D03*
X50800000Y-78502000D03*
X50800000Y-80502000D03*
X55880000Y-78502000D03*
X55880000Y-80502000D03*
X88900000Y-78502000D03*
X88900000Y-80502000D03*
X91440000Y-78502000D03*
X91440000Y-80502000D03*
X48260000Y-78502000D03*
X48260000Y-80502000D03*
X104140000Y-78502000D03*
X104140000Y-80502000D03*
D18*
X108225500Y-64897000D03*
X106150500Y-64897000D03*
D14*
X43180000Y-78502000D03*
X43180000Y-80502000D03*
X53340000Y-78502000D03*
X53340000Y-80502000D03*
X73660000Y-78502000D03*
X73660000Y-80502000D03*
D18*
X110384500Y-79375000D03*
X108309500Y-79375000D03*
D14*
X96520000Y-78502000D03*
X96520000Y-80502000D03*
D19*
X107174000Y-75032000D03*
X109474000Y-75032000D03*
D20*
X109474000Y-68732000D03*
D19*
X111774000Y-75032000D03*
%LPD*%
M02*
