M48
; DRILL file {KiCad 9.0.6} date 2025-12-11T13:31:38+0500
; FORMAT={-:-/ absolute / metric / decimal}
; #@! TF.CreationDate,2025-12-11T13:31:38+05:00
; #@! TF.GenerationSoftware,Kicad,Pcbnew,9.0.6
; #@! TF.FileFunction,Plated,1,2,PTH
FMAT,2
METRIC
; #@! TA.AperFunction,Plated,PTH,ViaDrill
T1C0.400
%
G90
G05
T1
X35.56Y-80.01
X35.56Y-81.026
X35.56Y-82.042
X40.64Y-66.04
X40.64Y-69.85
X40.64Y-73.66
X44.45Y-68.326
X44.45Y-74.93
X46.99Y-58.42
X46.99Y-68.326
X48.26Y-62.103
X48.26Y-66.421
X49.53Y-68.326
X50.8Y-58.42
X50.8Y-64.516
X52.07Y-68.326
X53.34Y-62.103
X54.61Y-58.42
X54.61Y-68.326
X57.15Y-76.454
X57.404Y-59.309
X57.404Y-64.516
X57.404Y-66.421
X57.404Y-68.072
X59.182Y-59.055
X59.182Y-68.326
X59.69Y-76.454
X60.96Y-58.674
X60.96Y-68.58
X62.23Y-76.454
X62.738Y-58.42
X62.738Y-68.834
X64.77Y-76.454
X66.802Y-64.262
X67.31Y-66.04
X67.31Y-76.454
X67.564Y-60.96
X67.818Y-58.547
X67.818Y-67.945
X69.596Y-58.293
X69.596Y-66.04
X69.596Y-68.199
X69.85Y-76.454
X71.12Y-53.34
X71.12Y-56.388
X71.12Y-69.85
X72.136Y-60.96
X72.136Y-66.04
X72.39Y-76.454
X74.93Y-64.008
X74.93Y-71.12
X74.93Y-76.454
X76.2Y-53.34
X76.2Y-56.388
X76.708Y-58.293
X78.74Y-60.96
X78.74Y-64.008
X78.74Y-69.85
X78.74Y-76.454
X78.74Y-80.01
X78.74Y-81.026
X78.74Y-82.042
X80.01Y-62.738
X80.01Y-73.66
X80.518Y-56.388
X81.28Y-59.817
X82.296Y-65.532
X82.296Y-66.929
X82.55Y-70.612
X82.804Y-54.864
X82.804Y-58.547
X82.804Y-62.992
X83.82Y-54.864
X85.09Y-70.612
X87.63Y-58.928
X87.63Y-76.073
X88.9Y-53.34
X88.9Y-56.642
X88.9Y-60.452
X90.17Y-58.928
X90.17Y-76.073
X91.44Y-60.833
X91.44Y-68.453
X92.71Y-76.073
X92.964Y-61.341
X93.98Y-53.34
X93.98Y-56.642
X93.98Y-68.453
X94.488Y-61.849
X95.25Y-72.136
X95.25Y-76.073
X96.012Y-62.357
X97.79Y-76.073
X99.06Y-53.34
X99.06Y-56.642
X99.06Y-69.85
X100.203Y-64.643
X100.33Y-72.136
X100.33Y-81.788
X101.6Y-69.85
X101.727Y-64.135
X102.87Y-72.136
X104.648Y-56.642
X105.156Y-61.976
X105.41Y-72.136
X105.41Y-76.962
X107.188Y-66.548
X107.95Y-72.136
X110.998Y-61.976
X110.998Y-66.548
X111.76Y-80.01
X111.76Y-81.026
X111.76Y-82.042
X114.3Y-80.01
X114.3Y-81.026
X114.3Y-82.042
M30
