G04 #@! TF.GenerationSoftware,KiCad,Pcbnew,9.0.6*
G04 #@! TF.CreationDate,2025-12-11T13:31:27+05:00*
G04 #@! TF.ProjectId,SEGA-Simple-Cart,53454741-2d53-4696-9d70-6c652d436172,rev?*
G04 #@! TF.SameCoordinates,Original*
G04 #@! TF.FileFunction,Paste,Top*
G04 #@! TF.FilePolarity,Positive*
%FSLAX46Y46*%
G04 Gerber Fmt 4.6, Leading zero omitted, Abs format (unit mm)*
G04 Created by KiCad (PCBNEW 9.0.6) date 2025-12-11 13:31:27*
%MOMM*%
%LPD*%
G01*
G04 APERTURE LIST*
G04 Aperture macros list*
%AMRoundRect*
0 Rectangle with rounded corners*
0 $1 Rounding radius*
0 $2 $3 $4 $5 $6 $7 $8 $9 X,Y pos of 4 corners*
0 Add a 4 corners polygon primitive as box body*
4,1,4,$2,$3,$4,$5,$6,$7,$8,$9,$2,$3,0*
0 Add four circle primitives for the rounded corners*
1,1,$1+$1,$2,$3*
1,1,$1+$1,$4,$5*
1,1,$1+$1,$6,$7*
1,1,$1+$1,$8,$9*
0 Add four rect primitives between the rounded corners*
20,1,$1+$1,$2,$3,$4,$5,0*
20,1,$1+$1,$4,$5,$6,$7,0*
20,1,$1+$1,$6,$7,$8,$9,0*
20,1,$1+$1,$8,$9,$2,$3,0*%
G04 Aperture macros list end*
%ADD10RoundRect,0.250000X-0.450000X0.350000X-0.450000X-0.350000X0.450000X-0.350000X0.450000X0.350000X0*%
%ADD11RoundRect,0.250000X-0.337500X-0.475000X0.337500X-0.475000X0.337500X0.475000X-0.337500X0.475000X0*%
%ADD12RoundRect,0.075000X-0.712500X-0.075000X0.712500X-0.075000X0.712500X0.075000X-0.712500X0.075000X0*%
%ADD13RoundRect,0.250000X0.337500X0.475000X-0.337500X0.475000X-0.337500X-0.475000X0.337500X-0.475000X0*%
%ADD14RoundRect,0.375000X0.375000X-0.625000X0.375000X0.625000X-0.375000X0.625000X-0.375000X-0.625000X0*%
%ADD15RoundRect,0.500000X1.400000X-0.500000X1.400000X0.500000X-1.400000X0.500000X-1.400000X-0.500000X0*%
G04 APERTURE END LIST*
D10*
X93980000Y-78502000D03*
X93980000Y-80502000D03*
D11*
X79480500Y-54864000D03*
X81555500Y-54864000D03*
D10*
X76200000Y-78502000D03*
X76200000Y-80502000D03*
D12*
X65242500Y-57750000D03*
X65242500Y-58250000D03*
X65242500Y-58750000D03*
X65242500Y-59250000D03*
X65242500Y-59750000D03*
X65242500Y-60250000D03*
X65242500Y-60750000D03*
X65242500Y-61250000D03*
X65242500Y-61750000D03*
X65242500Y-62250000D03*
X65242500Y-62750000D03*
X65242500Y-63250000D03*
X65242500Y-63750000D03*
X65242500Y-64250000D03*
X65242500Y-64750000D03*
X65242500Y-65250000D03*
X65242500Y-65750000D03*
X65242500Y-66250000D03*
X65242500Y-66750000D03*
X65242500Y-67250000D03*
X65242500Y-67750000D03*
X65242500Y-68250000D03*
X65242500Y-68750000D03*
X65242500Y-69250000D03*
X84617500Y-69250000D03*
X84617500Y-68750000D03*
X84617500Y-68250000D03*
X84617500Y-67750000D03*
X84617500Y-67250000D03*
X84617500Y-66750000D03*
X84617500Y-66250000D03*
X84617500Y-65750000D03*
X84617500Y-65250000D03*
X84617500Y-64750000D03*
X84617500Y-64250000D03*
X84617500Y-63750000D03*
X84617500Y-63250000D03*
X84617500Y-62750000D03*
X84617500Y-62250000D03*
X84617500Y-61750000D03*
X84617500Y-61250000D03*
X84617500Y-60750000D03*
X84617500Y-60250000D03*
X84617500Y-59750000D03*
X84617500Y-59250000D03*
X84617500Y-58750000D03*
X84617500Y-58250000D03*
X84617500Y-57750000D03*
D10*
X45720000Y-78502000D03*
X45720000Y-80502000D03*
X50800000Y-78502000D03*
X50800000Y-80502000D03*
X55880000Y-78502000D03*
X55880000Y-80502000D03*
X88900000Y-78502000D03*
X88900000Y-80502000D03*
X91440000Y-78502000D03*
X91440000Y-80502000D03*
X48260000Y-78502000D03*
X48260000Y-80502000D03*
X104140000Y-78502000D03*
X104140000Y-80502000D03*
D13*
X108225500Y-64897000D03*
X106150500Y-64897000D03*
D10*
X43180000Y-78502000D03*
X43180000Y-80502000D03*
X53340000Y-78502000D03*
X53340000Y-80502000D03*
X73660000Y-78502000D03*
X73660000Y-80502000D03*
D13*
X110384500Y-79375000D03*
X108309500Y-79375000D03*
D10*
X96520000Y-78502000D03*
X96520000Y-80502000D03*
D14*
X107174000Y-75032000D03*
X109474000Y-75032000D03*
D15*
X109474000Y-68732000D03*
D14*
X111774000Y-75032000D03*
M02*
