G04 #@! TF.GenerationSoftware,KiCad,Pcbnew,9.0.6*
G04 #@! TF.CreationDate,2025-12-11T13:31:27+05:00*
G04 #@! TF.ProjectId,SEGA-Simple-Cart,53454741-2d53-4696-9d70-6c652d436172,rev?*
G04 #@! TF.SameCoordinates,Original*
G04 #@! TF.FileFunction,Copper,L2,Bot*
G04 #@! TF.FilePolarity,Positive*
%FSLAX46Y46*%
G04 Gerber Fmt 4.6, Leading zero omitted, Abs format (unit mm)*
G04 Created by KiCad (PCBNEW 9.0.6) date 2025-12-11 13:31:27*
%MOMM*%
%LPD*%
G01*
G04 APERTURE LIST*
G04 Aperture macros list*
%AMRoundRect*
0 Rectangle with rounded corners*
0 $1 Rounding radius*
0 $2 $3 $4 $5 $6 $7 $8 $9 X,Y pos of 4 corners*
0 Add a 4 corners polygon primitive as box body*
4,1,4,$2,$3,$4,$5,$6,$7,$8,$9,$2,$3,0*
0 Add four circle primitives for the rounded corners*
1,1,$1+$1,$2,$3*
1,1,$1+$1,$4,$5*
1,1,$1+$1,$6,$7*
1,1,$1+$1,$8,$9*
0 Add four rect primitives between the rounded corners*
20,1,$1+$1,$2,$3,$4,$5,0*
20,1,$1+$1,$4,$5,$6,$7,0*
20,1,$1+$1,$6,$7,$8,$9,0*
20,1,$1+$1,$8,$9,$2,$3,0*%
G04 Aperture macros list end*
G04 #@! TA.AperFunction,ConnectorPad*
%ADD10R,1.780000X6.858000*%
G04 #@! TD*
G04 #@! TA.AperFunction,SMDPad,CuDef*
%ADD11RoundRect,0.250000X0.450000X-0.350000X0.450000X0.350000X-0.450000X0.350000X-0.450000X-0.350000X0*%
G04 #@! TD*
G04 #@! TA.AperFunction,ViaPad*
%ADD12C,0.800000*%
G04 #@! TD*
G04 #@! TA.AperFunction,Conductor*
%ADD13C,1.000000*%
G04 #@! TD*
G04 #@! TA.AperFunction,Conductor*
%ADD14C,0.600000*%
G04 #@! TD*
G04 #@! TA.AperFunction,Conductor*
%ADD15C,0.250000*%
G04 #@! TD*
G04 #@! TA.AperFunction,Conductor*
%ADD16C,0.400000*%
G04 #@! TD*
G04 APERTURE END LIST*
D10*
X35560000Y-86360000D03*
X38100000Y-86360000D03*
X40640000Y-86360000D03*
X43180000Y-86360000D03*
X45720000Y-86360000D03*
X48260000Y-86360000D03*
X50800000Y-86360000D03*
X53340000Y-86360000D03*
X55880000Y-86360000D03*
X58420000Y-86360000D03*
X60960000Y-86360000D03*
X63500000Y-86360000D03*
X66040000Y-86360000D03*
X68580000Y-86360000D03*
X71120000Y-86360000D03*
X73660000Y-86360000D03*
X76200000Y-86360000D03*
X78740000Y-86360000D03*
X81280000Y-86360000D03*
X83820000Y-86360000D03*
X86360000Y-86360000D03*
X88900000Y-86360000D03*
X91440000Y-86360000D03*
X93980000Y-86360000D03*
X96520000Y-86360000D03*
X99060000Y-86360000D03*
X101600000Y-86360000D03*
X104140000Y-86360000D03*
X106680000Y-86360000D03*
X109220000Y-86360000D03*
X111760000Y-86360000D03*
X114300000Y-86360000D03*
D11*
X50800000Y-80502000D03*
X50800000Y-78502000D03*
X104140000Y-80502000D03*
X104140000Y-78502000D03*
X96520000Y-80502000D03*
X96520000Y-78502000D03*
X53340000Y-80502000D03*
X53340000Y-78502000D03*
X99060000Y-80502000D03*
X99060000Y-78502000D03*
X83820000Y-80502000D03*
X83820000Y-78502000D03*
X68580000Y-80502000D03*
X68580000Y-78502000D03*
X91440000Y-80502000D03*
X91440000Y-78502000D03*
X109220000Y-80502000D03*
X109220000Y-78502000D03*
X88900000Y-80502000D03*
X88900000Y-78502000D03*
X81280000Y-80502000D03*
X81280000Y-78502000D03*
X76200000Y-80502000D03*
X76200000Y-78502000D03*
X55880000Y-80502000D03*
X55880000Y-78502000D03*
X63500000Y-80502000D03*
X63500000Y-78502000D03*
X48260000Y-80502000D03*
X48260000Y-78502000D03*
X93980000Y-80502000D03*
X93980000Y-78502000D03*
X60960000Y-80502000D03*
X60960000Y-78502000D03*
X66040000Y-80502000D03*
X66040000Y-78502000D03*
X86360000Y-80502000D03*
X86360000Y-78502000D03*
X73660000Y-80502000D03*
X73660000Y-78502000D03*
X106680000Y-80502000D03*
X106680000Y-78502000D03*
X40640000Y-80502000D03*
X40640000Y-78502000D03*
X58420000Y-80502000D03*
X58420000Y-78502000D03*
X43180000Y-80502000D03*
X43180000Y-78502000D03*
X101600000Y-80502000D03*
X101600000Y-78502000D03*
X71120000Y-80502000D03*
X71120000Y-78502000D03*
X45720000Y-80502000D03*
X45720000Y-78502000D03*
D12*
X111760000Y-80010000D03*
X111760000Y-82042000D03*
X111760000Y-81026000D03*
X78740000Y-60960000D03*
X74930000Y-64008000D03*
X69596000Y-66040000D03*
X93980000Y-53340000D03*
X105156000Y-61976000D03*
X82550000Y-70612000D03*
X49530000Y-68326000D03*
X46990000Y-68326000D03*
X67310000Y-76454000D03*
X78740000Y-64008000D03*
X78740000Y-82042000D03*
X107188000Y-66548000D03*
X74930000Y-76454000D03*
X40640000Y-73660000D03*
X52070000Y-68326000D03*
X40640000Y-69850000D03*
X100330000Y-72136000D03*
X78740000Y-80010000D03*
X46990000Y-58420000D03*
X80518000Y-56388000D03*
X54610000Y-68326000D03*
X99060000Y-53340000D03*
X88900000Y-53340000D03*
X114300000Y-81026000D03*
X78740000Y-76454000D03*
X62230000Y-76454000D03*
X102870000Y-72136000D03*
X95250000Y-76073000D03*
X35560000Y-81026000D03*
X88900000Y-56642000D03*
X76200000Y-53340000D03*
X114300000Y-82042000D03*
X57150000Y-76454000D03*
X72390000Y-76454000D03*
X59690000Y-76454000D03*
X44450000Y-68326000D03*
X105410000Y-72136000D03*
X78740000Y-81026000D03*
X93980000Y-56642000D03*
X74930000Y-71120000D03*
X69850000Y-76454000D03*
X64770000Y-76454000D03*
X100330000Y-81788000D03*
X72136000Y-66040000D03*
X54610000Y-58420000D03*
X35560000Y-80010000D03*
X104648000Y-56642000D03*
X110998000Y-61976000D03*
X50800000Y-58420000D03*
X107950000Y-72136000D03*
X105410000Y-76962000D03*
X71120000Y-53340000D03*
X85090000Y-70612000D03*
X99060000Y-56642000D03*
X35560000Y-82042000D03*
X114300000Y-80010000D03*
X95250000Y-72136000D03*
X44450000Y-74930000D03*
X40640000Y-66040000D03*
X72136000Y-60960000D03*
X67564000Y-60960000D03*
X67310000Y-66040000D03*
X71120000Y-56388000D03*
X76200000Y-56388000D03*
X110998000Y-66548000D03*
X83820000Y-54864000D03*
X66802000Y-64262000D03*
X82804000Y-54864000D03*
X82804000Y-62992000D03*
X82804000Y-58547000D03*
X53340000Y-62103000D03*
X48260000Y-62103000D03*
X57404000Y-66421000D03*
X48260000Y-66421000D03*
X57404000Y-64516000D03*
X50800000Y-64516000D03*
X87630000Y-76073000D03*
X87630000Y-58928000D03*
X90170000Y-76073000D03*
X90170000Y-58928000D03*
X92710000Y-76073000D03*
X91440000Y-60833000D03*
X97790000Y-76073000D03*
X94488000Y-61849000D03*
X80010000Y-62738000D03*
X80010000Y-73660000D03*
X57404000Y-68072000D03*
X57404000Y-59309000D03*
X59182000Y-68326000D03*
X59182000Y-59055000D03*
X60960000Y-68580000D03*
X60960000Y-58674000D03*
X62738000Y-68834000D03*
X62738000Y-58420000D03*
X67818000Y-67945000D03*
X67818000Y-58547000D03*
X69596000Y-68199000D03*
X69596000Y-58293000D03*
X71120000Y-69850000D03*
X76708000Y-58293000D03*
X78740000Y-69850000D03*
X81280000Y-59817000D03*
X82296000Y-66929000D03*
X82296000Y-65532000D03*
X88900000Y-60452000D03*
X91440000Y-68453000D03*
X93980000Y-68453000D03*
X92964000Y-61341000D03*
X99060000Y-69850000D03*
X101600000Y-69850000D03*
X96012000Y-62357000D03*
X100203000Y-64643000D03*
X101727000Y-64135000D03*
D13*
X111760000Y-81026000D02*
X111760000Y-80010000D01*
X111760000Y-82042000D02*
X111760000Y-81026000D01*
X111760000Y-86360000D02*
X111760000Y-82042000D01*
X78740000Y-81026000D02*
X78740000Y-80010000D01*
X78740000Y-86360000D02*
X78740000Y-82042000D01*
X114300000Y-81026000D02*
X114300000Y-80010000D01*
X35560000Y-86360000D02*
X35560000Y-80010000D01*
X78740000Y-82042000D02*
X78740000Y-81026000D01*
X114300000Y-86360000D02*
X114300000Y-81026000D01*
D14*
X83820000Y-54864000D02*
X82804000Y-54864000D01*
D15*
X66802000Y-64262000D02*
X66548000Y-64008000D01*
X68580000Y-54864000D02*
X82804000Y-54864000D01*
X66548000Y-64008000D02*
X66548000Y-56896000D01*
D16*
X82804000Y-58547000D02*
X82804000Y-62992000D01*
D15*
X66548000Y-56896000D02*
X68580000Y-54864000D01*
D16*
X82804000Y-58547000D02*
X82804000Y-54864000D01*
X71120000Y-80502000D02*
X71120000Y-86360000D01*
X76200000Y-80502000D02*
X76200000Y-86360000D01*
X48260000Y-80502000D02*
X48260000Y-86360000D01*
X68580000Y-80502000D02*
X68580000Y-86360000D01*
X58420000Y-80502000D02*
X58420000Y-86360000D01*
X101600000Y-80502000D02*
X101600000Y-86360000D01*
X81280000Y-80502000D02*
X81280000Y-86360000D01*
X50800000Y-80502000D02*
X50800000Y-86360000D01*
X66040000Y-80502000D02*
X66040000Y-86360000D01*
X63500000Y-80502000D02*
X63500000Y-86360000D01*
X93980000Y-80502000D02*
X93980000Y-86360000D01*
X104140000Y-80502000D02*
X104140000Y-86360000D01*
X53340000Y-80502000D02*
X53340000Y-86360000D01*
X91440000Y-80502000D02*
X91440000Y-86360000D01*
X96520000Y-80502000D02*
X96520000Y-86360000D01*
X83820000Y-80502000D02*
X83820000Y-86360000D01*
X60960000Y-80502000D02*
X60960000Y-86360000D01*
X43180000Y-80502000D02*
X43180000Y-86360000D01*
X88900000Y-80502000D02*
X88900000Y-86360000D01*
X73660000Y-80502000D02*
X73660000Y-86360000D01*
X99060000Y-80502000D02*
X99060000Y-86360000D01*
X109220000Y-80502000D02*
X109220000Y-86360000D01*
X86360000Y-80502000D02*
X86360000Y-86360000D01*
X55880000Y-80502000D02*
X55880000Y-86360000D01*
X106680000Y-80502000D02*
X106680000Y-86360000D01*
X45720000Y-80502000D02*
X45720000Y-86360000D01*
X40640000Y-80502000D02*
X40640000Y-86360000D01*
D15*
X48260000Y-62103000D02*
X53340000Y-62103000D01*
X57404000Y-66421000D02*
X48260000Y-66421000D01*
X57404000Y-64516000D02*
X50800000Y-64516000D01*
X87630000Y-76073000D02*
X87630000Y-58928000D01*
X90170000Y-76073000D02*
X90170000Y-58928000D01*
X91440000Y-60833000D02*
X91440000Y-64008000D01*
X92710000Y-76073000D02*
X92710000Y-65278000D01*
X91440000Y-64008000D02*
X92710000Y-65278000D01*
X94488000Y-61849000D02*
X94488000Y-62992000D01*
X94488000Y-62992000D02*
X97790000Y-66294000D01*
X97790000Y-76073000D02*
X97790000Y-66294000D01*
X80010000Y-73660000D02*
X80010000Y-62738000D01*
X52959000Y-72517000D02*
X45720000Y-72517000D01*
X57404000Y-68072000D02*
X52959000Y-72517000D01*
X45720000Y-72517000D02*
X40640000Y-77597000D01*
X40640000Y-77597000D02*
X40640000Y-78502000D01*
X47371000Y-73406000D02*
X43180000Y-77597000D01*
X43180000Y-77597000D02*
X43180000Y-78502000D01*
X57404000Y-59309000D02*
X58293000Y-60198000D01*
X58293000Y-68326000D02*
X53213000Y-73406000D01*
X58293000Y-60198000D02*
X58293000Y-68326000D01*
X53213000Y-73406000D02*
X47371000Y-73406000D01*
X53213000Y-74295000D02*
X49022000Y-74295000D01*
X49022000Y-74295000D02*
X45720000Y-77597000D01*
X45720000Y-77597000D02*
X45720000Y-78502000D01*
X59182000Y-68326000D02*
X53213000Y-74295000D01*
X60071000Y-59944000D02*
X60071000Y-68580000D01*
X48260000Y-77597000D02*
X48260000Y-78502000D01*
X59182000Y-59055000D02*
X60071000Y-59944000D01*
X53467000Y-75184000D02*
X50673000Y-75184000D01*
X50673000Y-75184000D02*
X48260000Y-77597000D01*
X60071000Y-68580000D02*
X53467000Y-75184000D01*
X50800000Y-77533500D02*
X50800000Y-78502000D01*
X52260500Y-76073000D02*
X50800000Y-77533500D01*
X53467000Y-76073000D02*
X52260500Y-76073000D01*
X60960000Y-68580000D02*
X53467000Y-76073000D01*
X53340000Y-78502000D02*
X53340000Y-77343000D01*
X53340000Y-77343000D02*
X61849000Y-68834000D01*
X61849000Y-59563000D02*
X61849000Y-68834000D01*
X60960000Y-58674000D02*
X61849000Y-59563000D01*
X55880000Y-75692000D02*
X62738000Y-68834000D01*
X55880000Y-78502000D02*
X55880000Y-75692000D01*
X58420000Y-74295000D02*
X63627000Y-69088000D01*
X58420000Y-78502000D02*
X58420000Y-74295000D01*
X63627000Y-59309000D02*
X63627000Y-69088000D01*
X62738000Y-58420000D02*
X63627000Y-59309000D01*
X60960000Y-78502000D02*
X60960000Y-74803000D01*
X67818000Y-67945000D02*
X60960000Y-74803000D01*
X63500000Y-78502000D02*
X63500000Y-73406000D01*
X68707000Y-59436000D02*
X68707000Y-68199000D01*
X67818000Y-58547000D02*
X68707000Y-59436000D01*
X68707000Y-68199000D02*
X63500000Y-73406000D01*
X66040000Y-78502000D02*
X66040000Y-71755000D01*
X69596000Y-68199000D02*
X66040000Y-71755000D01*
X69596000Y-58293000D02*
X70485000Y-59182000D01*
X70485000Y-68580000D02*
X68580000Y-70485000D01*
X68580000Y-78502000D02*
X68580000Y-70485000D01*
X70485000Y-59182000D02*
X70485000Y-68580000D01*
X71120000Y-78502000D02*
X71120000Y-69850000D01*
X73660000Y-78502000D02*
X73660000Y-61341000D01*
X76708000Y-58293000D02*
X73660000Y-61341000D01*
X76200000Y-78502000D02*
X76200000Y-72390000D01*
X78740000Y-69850000D02*
X76200000Y-72390000D01*
X81280000Y-78502000D02*
X81280000Y-59817000D01*
X82296000Y-66929000D02*
X83820000Y-68453000D01*
X83820000Y-78502000D02*
X83820000Y-68453000D01*
X86360000Y-69596000D02*
X82296000Y-65532000D01*
X86360000Y-78502000D02*
X86360000Y-69596000D01*
X88900000Y-78502000D02*
X88900000Y-60452000D01*
X91440000Y-78502000D02*
X91440000Y-68453000D01*
X93980000Y-78502000D02*
X93980000Y-68453000D01*
X96520000Y-78502000D02*
X96520000Y-67056000D01*
X92964000Y-63500000D02*
X96520000Y-67056000D01*
X92964000Y-61341000D02*
X92964000Y-63500000D01*
X99060000Y-69850000D02*
X99060000Y-78502000D01*
X101600000Y-69850000D02*
X101600000Y-78502000D01*
X104140000Y-78502000D02*
X104140000Y-70485000D01*
X96012000Y-62357000D02*
X104140000Y-70485000D01*
X100203000Y-64643000D02*
X106680000Y-71120000D01*
X106680000Y-78502000D02*
X106680000Y-71120000D01*
X101727000Y-64135000D02*
X109220000Y-71628000D01*
X109220000Y-78502000D02*
X109220000Y-71628000D01*
G04 #@! TA.AperFunction,Conductor*
G36*
X116180939Y-50939185D02*
G01*
X116226694Y-50991989D01*
X116237900Y-51043500D01*
X116237900Y-82426000D01*
X116218215Y-82493039D01*
X116165411Y-82538794D01*
X116113900Y-82550000D01*
X112634500Y-82550000D01*
X112567461Y-82530315D01*
X112521706Y-82477511D01*
X112510500Y-82426000D01*
X112510500Y-79936079D01*
X112481659Y-79791092D01*
X112481658Y-79791091D01*
X112481658Y-79791087D01*
X112426494Y-79657908D01*
X112425087Y-79654511D01*
X112425080Y-79654498D01*
X112342951Y-79531584D01*
X112342948Y-79531580D01*
X112238419Y-79427051D01*
X112238415Y-79427048D01*
X112115501Y-79344919D01*
X112115488Y-79344912D01*
X111978917Y-79288343D01*
X111978907Y-79288340D01*
X111833920Y-79259500D01*
X111833918Y-79259500D01*
X111686082Y-79259500D01*
X111686080Y-79259500D01*
X111541092Y-79288340D01*
X111541082Y-79288343D01*
X111404511Y-79344912D01*
X111404498Y-79344919D01*
X111281584Y-79427048D01*
X111281580Y-79427051D01*
X111177051Y-79531580D01*
X111177048Y-79531584D01*
X111094919Y-79654498D01*
X111094912Y-79654511D01*
X111038343Y-79791082D01*
X111038340Y-79791092D01*
X111009500Y-79936079D01*
X111009500Y-82426000D01*
X110989815Y-82493039D01*
X110937011Y-82538794D01*
X110885500Y-82550000D01*
X109794500Y-82550000D01*
X109727461Y-82530315D01*
X109681706Y-82477511D01*
X109670500Y-82426000D01*
X109670500Y-81468976D01*
X109690185Y-81401937D01*
X109742989Y-81356182D01*
X109770135Y-81348736D01*
X109769932Y-81347876D01*
X109777479Y-81346092D01*
X109777481Y-81346091D01*
X109777483Y-81346091D01*
X109912331Y-81295796D01*
X110027546Y-81209546D01*
X110113796Y-81094331D01*
X110164091Y-80959483D01*
X110170500Y-80899873D01*
X110170499Y-80104128D01*
X110164091Y-80044517D01*
X110123647Y-79936082D01*
X110113797Y-79909671D01*
X110113793Y-79909664D01*
X110027547Y-79794455D01*
X110027544Y-79794452D01*
X109912335Y-79708206D01*
X109912328Y-79708202D01*
X109777482Y-79657908D01*
X109777483Y-79657908D01*
X109717883Y-79651501D01*
X109717881Y-79651500D01*
X109717873Y-79651500D01*
X109717864Y-79651500D01*
X108722129Y-79651500D01*
X108722123Y-79651501D01*
X108662516Y-79657908D01*
X108527671Y-79708202D01*
X108527664Y-79708206D01*
X108412455Y-79794452D01*
X108412452Y-79794455D01*
X108326206Y-79909664D01*
X108326202Y-79909671D01*
X108275908Y-80044517D01*
X108269501Y-80104116D01*
X108269501Y-80104123D01*
X108269500Y-80104135D01*
X108269500Y-80899870D01*
X108269501Y-80899876D01*
X108275908Y-80959483D01*
X108326202Y-81094328D01*
X108326206Y-81094335D01*
X108412452Y-81209544D01*
X108412455Y-81209547D01*
X108527664Y-81295793D01*
X108527671Y-81295797D01*
X108662517Y-81346091D01*
X108670062Y-81347874D01*
X108669523Y-81350151D01*
X108723287Y-81372408D01*
X108763147Y-81429793D01*
X108769500Y-81468975D01*
X108769500Y-82426000D01*
X108749815Y-82493039D01*
X108697011Y-82538794D01*
X108645500Y-82550000D01*
X107254500Y-82550000D01*
X107187461Y-82530315D01*
X107141706Y-82477511D01*
X107130500Y-82426000D01*
X107130500Y-81468976D01*
X107150185Y-81401937D01*
X107202989Y-81356182D01*
X107230135Y-81348736D01*
X107229932Y-81347876D01*
X107237479Y-81346092D01*
X107237481Y-81346091D01*
X107237483Y-81346091D01*
X107372331Y-81295796D01*
X107487546Y-81209546D01*
X107573796Y-81094331D01*
X107624091Y-80959483D01*
X107630500Y-80899873D01*
X107630499Y-80104128D01*
X107624091Y-80044517D01*
X107583647Y-79936082D01*
X107573797Y-79909671D01*
X107573793Y-79909664D01*
X107487547Y-79794455D01*
X107487544Y-79794452D01*
X107372335Y-79708206D01*
X107372328Y-79708202D01*
X107237482Y-79657908D01*
X107237483Y-79657908D01*
X107177883Y-79651501D01*
X107177881Y-79651500D01*
X107177873Y-79651500D01*
X107177864Y-79651500D01*
X106182129Y-79651500D01*
X106182123Y-79651501D01*
X106122516Y-79657908D01*
X105987671Y-79708202D01*
X105987664Y-79708206D01*
X105872455Y-79794452D01*
X105872452Y-79794455D01*
X105786206Y-79909664D01*
X105786202Y-79909671D01*
X105735908Y-80044517D01*
X105729501Y-80104116D01*
X105729501Y-80104123D01*
X105729500Y-80104135D01*
X105729500Y-80899870D01*
X105729501Y-80899876D01*
X105735908Y-80959483D01*
X105786202Y-81094328D01*
X105786206Y-81094335D01*
X105872452Y-81209544D01*
X105872455Y-81209547D01*
X105987664Y-81295793D01*
X105987671Y-81295797D01*
X106122517Y-81346091D01*
X106130062Y-81347874D01*
X106129523Y-81350151D01*
X106183287Y-81372408D01*
X106223147Y-81429793D01*
X106229500Y-81468975D01*
X106229500Y-82426000D01*
X106209815Y-82493039D01*
X106157011Y-82538794D01*
X106105500Y-82550000D01*
X104714500Y-82550000D01*
X104647461Y-82530315D01*
X104601706Y-82477511D01*
X104590500Y-82426000D01*
X104590500Y-81468976D01*
X104610185Y-81401937D01*
X104662989Y-81356182D01*
X104690135Y-81348736D01*
X104689932Y-81347876D01*
X104697479Y-81346092D01*
X104697481Y-81346091D01*
X104697483Y-81346091D01*
X104832331Y-81295796D01*
X104947546Y-81209546D01*
X105033796Y-81094331D01*
X105084091Y-80959483D01*
X105090500Y-80899873D01*
X105090499Y-80104128D01*
X105084091Y-80044517D01*
X105043647Y-79936082D01*
X105033797Y-79909671D01*
X105033793Y-79909664D01*
X104947547Y-79794455D01*
X104947544Y-79794452D01*
X104832335Y-79708206D01*
X104832328Y-79708202D01*
X104697482Y-79657908D01*
X104697483Y-79657908D01*
X104637883Y-79651501D01*
X104637881Y-79651500D01*
X104637873Y-79651500D01*
X104637864Y-79651500D01*
X103642129Y-79651500D01*
X103642123Y-79651501D01*
X103582516Y-79657908D01*
X103447671Y-79708202D01*
X103447664Y-79708206D01*
X103332455Y-79794452D01*
X103332452Y-79794455D01*
X103246206Y-79909664D01*
X103246202Y-79909671D01*
X103195908Y-80044517D01*
X103189501Y-80104116D01*
X103189501Y-80104123D01*
X103189500Y-80104135D01*
X103189500Y-80899870D01*
X103189501Y-80899876D01*
X103195908Y-80959483D01*
X103246202Y-81094328D01*
X103246206Y-81094335D01*
X103332452Y-81209544D01*
X103332455Y-81209547D01*
X103447664Y-81295793D01*
X103447671Y-81295797D01*
X103582517Y-81346091D01*
X103590062Y-81347874D01*
X103589523Y-81350151D01*
X103643287Y-81372408D01*
X103683147Y-81429793D01*
X103689500Y-81468975D01*
X103689500Y-82426000D01*
X103669815Y-82493039D01*
X103617011Y-82538794D01*
X103565500Y-82550000D01*
X102174500Y-82550000D01*
X102107461Y-82530315D01*
X102061706Y-82477511D01*
X102050500Y-82426000D01*
X102050500Y-81468976D01*
X102070185Y-81401937D01*
X102122989Y-81356182D01*
X102150135Y-81348736D01*
X102149932Y-81347876D01*
X102157479Y-81346092D01*
X102157481Y-81346091D01*
X102157483Y-81346091D01*
X102292331Y-81295796D01*
X102407546Y-81209546D01*
X102493796Y-81094331D01*
X102544091Y-80959483D01*
X102550500Y-80899873D01*
X102550499Y-80104128D01*
X102544091Y-80044517D01*
X102503647Y-79936082D01*
X102493797Y-79909671D01*
X102493793Y-79909664D01*
X102407547Y-79794455D01*
X102407544Y-79794452D01*
X102292335Y-79708206D01*
X102292328Y-79708202D01*
X102157482Y-79657908D01*
X102157483Y-79657908D01*
X102097883Y-79651501D01*
X102097881Y-79651500D01*
X102097873Y-79651500D01*
X102097864Y-79651500D01*
X101102129Y-79651500D01*
X101102123Y-79651501D01*
X101042516Y-79657908D01*
X100907671Y-79708202D01*
X100907664Y-79708206D01*
X100792455Y-79794452D01*
X100792452Y-79794455D01*
X100706206Y-79909664D01*
X100706202Y-79909671D01*
X100655908Y-80044517D01*
X100649501Y-80104116D01*
X100649501Y-80104123D01*
X100649500Y-80104135D01*
X100649500Y-80899870D01*
X100649501Y-80899876D01*
X100655908Y-80959483D01*
X100706202Y-81094328D01*
X100706206Y-81094335D01*
X100792452Y-81209544D01*
X100792455Y-81209547D01*
X100907664Y-81295793D01*
X100907671Y-81295797D01*
X101042517Y-81346091D01*
X101050062Y-81347874D01*
X101049523Y-81350151D01*
X101103287Y-81372408D01*
X101143147Y-81429793D01*
X101149500Y-81468975D01*
X101149500Y-82426000D01*
X101129815Y-82493039D01*
X101077011Y-82538794D01*
X101025500Y-82550000D01*
X99634500Y-82550000D01*
X99567461Y-82530315D01*
X99521706Y-82477511D01*
X99510500Y-82426000D01*
X99510500Y-81468976D01*
X99530185Y-81401937D01*
X99582989Y-81356182D01*
X99610135Y-81348736D01*
X99609932Y-81347876D01*
X99617479Y-81346092D01*
X99617481Y-81346091D01*
X99617483Y-81346091D01*
X99752331Y-81295796D01*
X99867546Y-81209546D01*
X99953796Y-81094331D01*
X100004091Y-80959483D01*
X100010500Y-80899873D01*
X100010499Y-80104128D01*
X100004091Y-80044517D01*
X99963647Y-79936082D01*
X99953797Y-79909671D01*
X99953793Y-79909664D01*
X99867547Y-79794455D01*
X99867544Y-79794452D01*
X99752335Y-79708206D01*
X99752328Y-79708202D01*
X99617482Y-79657908D01*
X99617483Y-79657908D01*
X99557883Y-79651501D01*
X99557881Y-79651500D01*
X99557873Y-79651500D01*
X99557864Y-79651500D01*
X98562129Y-79651500D01*
X98562123Y-79651501D01*
X98502516Y-79657908D01*
X98367671Y-79708202D01*
X98367664Y-79708206D01*
X98252455Y-79794452D01*
X98252452Y-79794455D01*
X98166206Y-79909664D01*
X98166202Y-79909671D01*
X98115908Y-80044517D01*
X98109501Y-80104116D01*
X98109501Y-80104123D01*
X98109500Y-80104135D01*
X98109500Y-80899870D01*
X98109501Y-80899876D01*
X98115908Y-80959483D01*
X98166202Y-81094328D01*
X98166206Y-81094335D01*
X98252452Y-81209544D01*
X98252455Y-81209547D01*
X98367664Y-81295793D01*
X98367671Y-81295797D01*
X98502517Y-81346091D01*
X98510062Y-81347874D01*
X98509523Y-81350151D01*
X98563287Y-81372408D01*
X98603147Y-81429793D01*
X98609500Y-81468975D01*
X98609500Y-82426000D01*
X98589815Y-82493039D01*
X98537011Y-82538794D01*
X98485500Y-82550000D01*
X97094500Y-82550000D01*
X97027461Y-82530315D01*
X96981706Y-82477511D01*
X96970500Y-82426000D01*
X96970500Y-81468976D01*
X96990185Y-81401937D01*
X97042989Y-81356182D01*
X97070135Y-81348736D01*
X97069932Y-81347876D01*
X97077479Y-81346092D01*
X97077481Y-81346091D01*
X97077483Y-81346091D01*
X97212331Y-81295796D01*
X97327546Y-81209546D01*
X97413796Y-81094331D01*
X97464091Y-80959483D01*
X97470500Y-80899873D01*
X97470499Y-80104128D01*
X97464091Y-80044517D01*
X97423647Y-79936082D01*
X97413797Y-79909671D01*
X97413793Y-79909664D01*
X97327547Y-79794455D01*
X97327544Y-79794452D01*
X97212335Y-79708206D01*
X97212328Y-79708202D01*
X97077482Y-79657908D01*
X97077483Y-79657908D01*
X97017883Y-79651501D01*
X97017881Y-79651500D01*
X97017873Y-79651500D01*
X97017864Y-79651500D01*
X96022129Y-79651500D01*
X96022123Y-79651501D01*
X95962516Y-79657908D01*
X95827671Y-79708202D01*
X95827664Y-79708206D01*
X95712455Y-79794452D01*
X95712452Y-79794455D01*
X95626206Y-79909664D01*
X95626202Y-79909671D01*
X95575908Y-80044517D01*
X95569501Y-80104116D01*
X95569501Y-80104123D01*
X95569500Y-80104135D01*
X95569500Y-80899870D01*
X95569501Y-80899876D01*
X95575908Y-80959483D01*
X95626202Y-81094328D01*
X95626206Y-81094335D01*
X95712452Y-81209544D01*
X95712455Y-81209547D01*
X95827664Y-81295793D01*
X95827671Y-81295797D01*
X95962517Y-81346091D01*
X95970062Y-81347874D01*
X95969523Y-81350151D01*
X96023287Y-81372408D01*
X96063147Y-81429793D01*
X96069500Y-81468975D01*
X96069500Y-82426000D01*
X96049815Y-82493039D01*
X95997011Y-82538794D01*
X95945500Y-82550000D01*
X94554500Y-82550000D01*
X94487461Y-82530315D01*
X94441706Y-82477511D01*
X94430500Y-82426000D01*
X94430500Y-81468976D01*
X94450185Y-81401937D01*
X94502989Y-81356182D01*
X94530135Y-81348736D01*
X94529932Y-81347876D01*
X94537479Y-81346092D01*
X94537481Y-81346091D01*
X94537483Y-81346091D01*
X94672331Y-81295796D01*
X94787546Y-81209546D01*
X94873796Y-81094331D01*
X94924091Y-80959483D01*
X94930500Y-80899873D01*
X94930499Y-80104128D01*
X94924091Y-80044517D01*
X94883647Y-79936082D01*
X94873797Y-79909671D01*
X94873793Y-79909664D01*
X94787547Y-79794455D01*
X94787544Y-79794452D01*
X94672335Y-79708206D01*
X94672328Y-79708202D01*
X94537482Y-79657908D01*
X94537483Y-79657908D01*
X94477883Y-79651501D01*
X94477881Y-79651500D01*
X94477873Y-79651500D01*
X94477864Y-79651500D01*
X93482129Y-79651500D01*
X93482123Y-79651501D01*
X93422516Y-79657908D01*
X93287671Y-79708202D01*
X93287664Y-79708206D01*
X93172455Y-79794452D01*
X93172452Y-79794455D01*
X93086206Y-79909664D01*
X93086202Y-79909671D01*
X93035908Y-80044517D01*
X93029501Y-80104116D01*
X93029501Y-80104123D01*
X93029500Y-80104135D01*
X93029500Y-80899870D01*
X93029501Y-80899876D01*
X93035908Y-80959483D01*
X93086202Y-81094328D01*
X93086206Y-81094335D01*
X93172452Y-81209544D01*
X93172455Y-81209547D01*
X93287664Y-81295793D01*
X93287671Y-81295797D01*
X93422517Y-81346091D01*
X93430062Y-81347874D01*
X93429523Y-81350151D01*
X93483287Y-81372408D01*
X93523147Y-81429793D01*
X93529500Y-81468975D01*
X93529500Y-82426000D01*
X93509815Y-82493039D01*
X93457011Y-82538794D01*
X93405500Y-82550000D01*
X92014500Y-82550000D01*
X91947461Y-82530315D01*
X91901706Y-82477511D01*
X91890500Y-82426000D01*
X91890500Y-81468976D01*
X91910185Y-81401937D01*
X91962989Y-81356182D01*
X91990135Y-81348736D01*
X91989932Y-81347876D01*
X91997479Y-81346092D01*
X91997481Y-81346091D01*
X91997483Y-81346091D01*
X92132331Y-81295796D01*
X92247546Y-81209546D01*
X92333796Y-81094331D01*
X92384091Y-80959483D01*
X92390500Y-80899873D01*
X92390499Y-80104128D01*
X92384091Y-80044517D01*
X92343647Y-79936082D01*
X92333797Y-79909671D01*
X92333793Y-79909664D01*
X92247547Y-79794455D01*
X92247544Y-79794452D01*
X92132335Y-79708206D01*
X92132328Y-79708202D01*
X91997482Y-79657908D01*
X91997483Y-79657908D01*
X91937883Y-79651501D01*
X91937881Y-79651500D01*
X91937873Y-79651500D01*
X91937864Y-79651500D01*
X90942129Y-79651500D01*
X90942123Y-79651501D01*
X90882516Y-79657908D01*
X90747671Y-79708202D01*
X90747664Y-79708206D01*
X90632455Y-79794452D01*
X90632452Y-79794455D01*
X90546206Y-79909664D01*
X90546202Y-79909671D01*
X90495908Y-80044517D01*
X90489501Y-80104116D01*
X90489501Y-80104123D01*
X90489500Y-80104135D01*
X90489500Y-80899870D01*
X90489501Y-80899876D01*
X90495908Y-80959483D01*
X90546202Y-81094328D01*
X90546206Y-81094335D01*
X90632452Y-81209544D01*
X90632455Y-81209547D01*
X90747664Y-81295793D01*
X90747671Y-81295797D01*
X90882517Y-81346091D01*
X90890062Y-81347874D01*
X90889523Y-81350151D01*
X90943287Y-81372408D01*
X90983147Y-81429793D01*
X90989500Y-81468975D01*
X90989500Y-82426000D01*
X90969815Y-82493039D01*
X90917011Y-82538794D01*
X90865500Y-82550000D01*
X89474500Y-82550000D01*
X89407461Y-82530315D01*
X89361706Y-82477511D01*
X89350500Y-82426000D01*
X89350500Y-81468976D01*
X89370185Y-81401937D01*
X89422989Y-81356182D01*
X89450135Y-81348736D01*
X89449932Y-81347876D01*
X89457479Y-81346092D01*
X89457481Y-81346091D01*
X89457483Y-81346091D01*
X89592331Y-81295796D01*
X89707546Y-81209546D01*
X89793796Y-81094331D01*
X89844091Y-80959483D01*
X89850500Y-80899873D01*
X89850499Y-80104128D01*
X89844091Y-80044517D01*
X89803647Y-79936082D01*
X89793797Y-79909671D01*
X89793793Y-79909664D01*
X89707547Y-79794455D01*
X89707544Y-79794452D01*
X89592335Y-79708206D01*
X89592328Y-79708202D01*
X89457482Y-79657908D01*
X89457483Y-79657908D01*
X89397883Y-79651501D01*
X89397881Y-79651500D01*
X89397873Y-79651500D01*
X89397864Y-79651500D01*
X88402129Y-79651500D01*
X88402123Y-79651501D01*
X88342516Y-79657908D01*
X88207671Y-79708202D01*
X88207664Y-79708206D01*
X88092455Y-79794452D01*
X88092452Y-79794455D01*
X88006206Y-79909664D01*
X88006202Y-79909671D01*
X87955908Y-80044517D01*
X87949501Y-80104116D01*
X87949501Y-80104123D01*
X87949500Y-80104135D01*
X87949500Y-80899870D01*
X87949501Y-80899876D01*
X87955908Y-80959483D01*
X88006202Y-81094328D01*
X88006206Y-81094335D01*
X88092452Y-81209544D01*
X88092455Y-81209547D01*
X88207664Y-81295793D01*
X88207671Y-81295797D01*
X88342517Y-81346091D01*
X88350062Y-81347874D01*
X88349523Y-81350151D01*
X88403287Y-81372408D01*
X88443147Y-81429793D01*
X88449500Y-81468975D01*
X88449500Y-82426000D01*
X88429815Y-82493039D01*
X88377011Y-82538794D01*
X88325500Y-82550000D01*
X86934500Y-82550000D01*
X86867461Y-82530315D01*
X86821706Y-82477511D01*
X86810500Y-82426000D01*
X86810500Y-81468976D01*
X86830185Y-81401937D01*
X86882989Y-81356182D01*
X86910135Y-81348736D01*
X86909932Y-81347876D01*
X86917479Y-81346092D01*
X86917481Y-81346091D01*
X86917483Y-81346091D01*
X87052331Y-81295796D01*
X87167546Y-81209546D01*
X87253796Y-81094331D01*
X87304091Y-80959483D01*
X87310500Y-80899873D01*
X87310499Y-80104128D01*
X87304091Y-80044517D01*
X87263647Y-79936082D01*
X87253797Y-79909671D01*
X87253793Y-79909664D01*
X87167547Y-79794455D01*
X87167544Y-79794452D01*
X87052335Y-79708206D01*
X87052328Y-79708202D01*
X86917482Y-79657908D01*
X86917483Y-79657908D01*
X86857883Y-79651501D01*
X86857881Y-79651500D01*
X86857873Y-79651500D01*
X86857864Y-79651500D01*
X85862129Y-79651500D01*
X85862123Y-79651501D01*
X85802516Y-79657908D01*
X85667671Y-79708202D01*
X85667664Y-79708206D01*
X85552455Y-79794452D01*
X85552452Y-79794455D01*
X85466206Y-79909664D01*
X85466202Y-79909671D01*
X85415908Y-80044517D01*
X85409501Y-80104116D01*
X85409501Y-80104123D01*
X85409500Y-80104135D01*
X85409500Y-80899870D01*
X85409501Y-80899876D01*
X85415908Y-80959483D01*
X85466202Y-81094328D01*
X85466206Y-81094335D01*
X85552452Y-81209544D01*
X85552455Y-81209547D01*
X85667664Y-81295793D01*
X85667671Y-81295797D01*
X85802517Y-81346091D01*
X85810062Y-81347874D01*
X85809523Y-81350151D01*
X85863287Y-81372408D01*
X85903147Y-81429793D01*
X85909500Y-81468975D01*
X85909500Y-82426000D01*
X85889815Y-82493039D01*
X85837011Y-82538794D01*
X85785500Y-82550000D01*
X84394500Y-82550000D01*
X84327461Y-82530315D01*
X84281706Y-82477511D01*
X84270500Y-82426000D01*
X84270500Y-81468976D01*
X84290185Y-81401937D01*
X84342989Y-81356182D01*
X84370135Y-81348736D01*
X84369932Y-81347876D01*
X84377479Y-81346092D01*
X84377481Y-81346091D01*
X84377483Y-81346091D01*
X84512331Y-81295796D01*
X84627546Y-81209546D01*
X84713796Y-81094331D01*
X84764091Y-80959483D01*
X84770500Y-80899873D01*
X84770499Y-80104128D01*
X84764091Y-80044517D01*
X84723647Y-79936082D01*
X84713797Y-79909671D01*
X84713793Y-79909664D01*
X84627547Y-79794455D01*
X84627544Y-79794452D01*
X84512335Y-79708206D01*
X84512328Y-79708202D01*
X84377482Y-79657908D01*
X84377483Y-79657908D01*
X84317883Y-79651501D01*
X84317881Y-79651500D01*
X84317873Y-79651500D01*
X84317864Y-79651500D01*
X83322129Y-79651500D01*
X83322123Y-79651501D01*
X83262516Y-79657908D01*
X83127671Y-79708202D01*
X83127664Y-79708206D01*
X83012455Y-79794452D01*
X83012452Y-79794455D01*
X82926206Y-79909664D01*
X82926202Y-79909671D01*
X82875908Y-80044517D01*
X82869501Y-80104116D01*
X82869501Y-80104123D01*
X82869500Y-80104135D01*
X82869500Y-80899870D01*
X82869501Y-80899876D01*
X82875908Y-80959483D01*
X82926202Y-81094328D01*
X82926206Y-81094335D01*
X83012452Y-81209544D01*
X83012455Y-81209547D01*
X83127664Y-81295793D01*
X83127671Y-81295797D01*
X83262517Y-81346091D01*
X83270062Y-81347874D01*
X83269523Y-81350151D01*
X83323287Y-81372408D01*
X83363147Y-81429793D01*
X83369500Y-81468975D01*
X83369500Y-82426000D01*
X83349815Y-82493039D01*
X83297011Y-82538794D01*
X83245500Y-82550000D01*
X81854500Y-82550000D01*
X81787461Y-82530315D01*
X81741706Y-82477511D01*
X81730500Y-82426000D01*
X81730500Y-81468976D01*
X81750185Y-81401937D01*
X81802989Y-81356182D01*
X81830135Y-81348736D01*
X81829932Y-81347876D01*
X81837479Y-81346092D01*
X81837481Y-81346091D01*
X81837483Y-81346091D01*
X81972331Y-81295796D01*
X82087546Y-81209546D01*
X82173796Y-81094331D01*
X82224091Y-80959483D01*
X82230500Y-80899873D01*
X82230499Y-80104128D01*
X82224091Y-80044517D01*
X82183647Y-79936082D01*
X82173797Y-79909671D01*
X82173793Y-79909664D01*
X82087547Y-79794455D01*
X82087544Y-79794452D01*
X81972335Y-79708206D01*
X81972328Y-79708202D01*
X81837482Y-79657908D01*
X81837483Y-79657908D01*
X81777883Y-79651501D01*
X81777881Y-79651500D01*
X81777873Y-79651500D01*
X81777864Y-79651500D01*
X80782129Y-79651500D01*
X80782123Y-79651501D01*
X80722516Y-79657908D01*
X80587671Y-79708202D01*
X80587664Y-79708206D01*
X80472455Y-79794452D01*
X80472452Y-79794455D01*
X80386206Y-79909664D01*
X80386202Y-79909671D01*
X80335908Y-80044517D01*
X80329501Y-80104116D01*
X80329501Y-80104123D01*
X80329500Y-80104135D01*
X80329500Y-80899870D01*
X80329501Y-80899876D01*
X80335908Y-80959483D01*
X80386202Y-81094328D01*
X80386206Y-81094335D01*
X80472452Y-81209544D01*
X80472455Y-81209547D01*
X80587664Y-81295793D01*
X80587671Y-81295797D01*
X80722517Y-81346091D01*
X80730062Y-81347874D01*
X80729523Y-81350151D01*
X80783287Y-81372408D01*
X80823147Y-81429793D01*
X80829500Y-81468975D01*
X80829500Y-82426000D01*
X80809815Y-82493039D01*
X80757011Y-82538794D01*
X80705500Y-82550000D01*
X76774500Y-82550000D01*
X76707461Y-82530315D01*
X76661706Y-82477511D01*
X76650500Y-82426000D01*
X76650500Y-81468976D01*
X76670185Y-81401937D01*
X76722989Y-81356182D01*
X76750135Y-81348736D01*
X76749932Y-81347876D01*
X76757479Y-81346092D01*
X76757481Y-81346091D01*
X76757483Y-81346091D01*
X76892331Y-81295796D01*
X77007546Y-81209546D01*
X77093796Y-81094331D01*
X77144091Y-80959483D01*
X77150500Y-80899873D01*
X77150499Y-80104128D01*
X77144091Y-80044517D01*
X77103647Y-79936082D01*
X77093797Y-79909671D01*
X77093793Y-79909664D01*
X77007547Y-79794455D01*
X77007544Y-79794452D01*
X76892335Y-79708206D01*
X76892328Y-79708202D01*
X76757482Y-79657908D01*
X76757483Y-79657908D01*
X76697883Y-79651501D01*
X76697881Y-79651500D01*
X76697873Y-79651500D01*
X76697864Y-79651500D01*
X75702129Y-79651500D01*
X75702123Y-79651501D01*
X75642516Y-79657908D01*
X75507671Y-79708202D01*
X75507664Y-79708206D01*
X75392455Y-79794452D01*
X75392452Y-79794455D01*
X75306206Y-79909664D01*
X75306202Y-79909671D01*
X75255908Y-80044517D01*
X75249501Y-80104116D01*
X75249501Y-80104123D01*
X75249500Y-80104135D01*
X75249500Y-80899870D01*
X75249501Y-80899876D01*
X75255908Y-80959483D01*
X75306202Y-81094328D01*
X75306206Y-81094335D01*
X75392452Y-81209544D01*
X75392455Y-81209547D01*
X75507664Y-81295793D01*
X75507671Y-81295797D01*
X75642517Y-81346091D01*
X75650062Y-81347874D01*
X75649523Y-81350151D01*
X75703287Y-81372408D01*
X75743147Y-81429793D01*
X75749500Y-81468975D01*
X75749500Y-82426000D01*
X75729815Y-82493039D01*
X75677011Y-82538794D01*
X75625500Y-82550000D01*
X74234500Y-82550000D01*
X74167461Y-82530315D01*
X74121706Y-82477511D01*
X74110500Y-82426000D01*
X74110500Y-81468976D01*
X74130185Y-81401937D01*
X74182989Y-81356182D01*
X74210135Y-81348736D01*
X74209932Y-81347876D01*
X74217479Y-81346092D01*
X74217481Y-81346091D01*
X74217483Y-81346091D01*
X74352331Y-81295796D01*
X74467546Y-81209546D01*
X74553796Y-81094331D01*
X74604091Y-80959483D01*
X74610500Y-80899873D01*
X74610499Y-80104128D01*
X74604091Y-80044517D01*
X74563647Y-79936082D01*
X74553797Y-79909671D01*
X74553793Y-79909664D01*
X74467547Y-79794455D01*
X74467544Y-79794452D01*
X74352335Y-79708206D01*
X74352328Y-79708202D01*
X74217482Y-79657908D01*
X74217483Y-79657908D01*
X74157883Y-79651501D01*
X74157881Y-79651500D01*
X74157873Y-79651500D01*
X74157864Y-79651500D01*
X73162129Y-79651500D01*
X73162123Y-79651501D01*
X73102516Y-79657908D01*
X72967671Y-79708202D01*
X72967664Y-79708206D01*
X72852455Y-79794452D01*
X72852452Y-79794455D01*
X72766206Y-79909664D01*
X72766202Y-79909671D01*
X72715908Y-80044517D01*
X72709501Y-80104116D01*
X72709501Y-80104123D01*
X72709500Y-80104135D01*
X72709500Y-80899870D01*
X72709501Y-80899876D01*
X72715908Y-80959483D01*
X72766202Y-81094328D01*
X72766206Y-81094335D01*
X72852452Y-81209544D01*
X72852455Y-81209547D01*
X72967664Y-81295793D01*
X72967671Y-81295797D01*
X73102517Y-81346091D01*
X73110062Y-81347874D01*
X73109523Y-81350151D01*
X73163287Y-81372408D01*
X73203147Y-81429793D01*
X73209500Y-81468975D01*
X73209500Y-82426000D01*
X73189815Y-82493039D01*
X73137011Y-82538794D01*
X73085500Y-82550000D01*
X71694500Y-82550000D01*
X71627461Y-82530315D01*
X71581706Y-82477511D01*
X71570500Y-82426000D01*
X71570500Y-81468976D01*
X71590185Y-81401937D01*
X71642989Y-81356182D01*
X71670135Y-81348736D01*
X71669932Y-81347876D01*
X71677479Y-81346092D01*
X71677481Y-81346091D01*
X71677483Y-81346091D01*
X71812331Y-81295796D01*
X71927546Y-81209546D01*
X72013796Y-81094331D01*
X72064091Y-80959483D01*
X72070500Y-80899873D01*
X72070499Y-80104128D01*
X72064091Y-80044517D01*
X72023647Y-79936082D01*
X72013797Y-79909671D01*
X72013793Y-79909664D01*
X71927547Y-79794455D01*
X71927544Y-79794452D01*
X71812335Y-79708206D01*
X71812328Y-79708202D01*
X71677482Y-79657908D01*
X71677483Y-79657908D01*
X71617883Y-79651501D01*
X71617881Y-79651500D01*
X71617873Y-79651500D01*
X71617864Y-79651500D01*
X70622129Y-79651500D01*
X70622123Y-79651501D01*
X70562516Y-79657908D01*
X70427671Y-79708202D01*
X70427664Y-79708206D01*
X70312455Y-79794452D01*
X70312452Y-79794455D01*
X70226206Y-79909664D01*
X70226202Y-79909671D01*
X70175908Y-80044517D01*
X70169501Y-80104116D01*
X70169501Y-80104123D01*
X70169500Y-80104135D01*
X70169500Y-80899870D01*
X70169501Y-80899876D01*
X70175908Y-80959483D01*
X70226202Y-81094328D01*
X70226206Y-81094335D01*
X70312452Y-81209544D01*
X70312455Y-81209547D01*
X70427664Y-81295793D01*
X70427671Y-81295797D01*
X70562517Y-81346091D01*
X70570062Y-81347874D01*
X70569523Y-81350151D01*
X70623287Y-81372408D01*
X70663147Y-81429793D01*
X70669500Y-81468975D01*
X70669500Y-82426000D01*
X70649815Y-82493039D01*
X70597011Y-82538794D01*
X70545500Y-82550000D01*
X69154500Y-82550000D01*
X69087461Y-82530315D01*
X69041706Y-82477511D01*
X69030500Y-82426000D01*
X69030500Y-81468976D01*
X69050185Y-81401937D01*
X69102989Y-81356182D01*
X69130135Y-81348736D01*
X69129932Y-81347876D01*
X69137479Y-81346092D01*
X69137481Y-81346091D01*
X69137483Y-81346091D01*
X69272331Y-81295796D01*
X69387546Y-81209546D01*
X69473796Y-81094331D01*
X69524091Y-80959483D01*
X69530500Y-80899873D01*
X69530499Y-80104128D01*
X69524091Y-80044517D01*
X69483647Y-79936082D01*
X69473797Y-79909671D01*
X69473793Y-79909664D01*
X69387547Y-79794455D01*
X69387544Y-79794452D01*
X69272335Y-79708206D01*
X69272328Y-79708202D01*
X69137482Y-79657908D01*
X69137483Y-79657908D01*
X69077883Y-79651501D01*
X69077881Y-79651500D01*
X69077873Y-79651500D01*
X69077864Y-79651500D01*
X68082129Y-79651500D01*
X68082123Y-79651501D01*
X68022516Y-79657908D01*
X67887671Y-79708202D01*
X67887664Y-79708206D01*
X67772455Y-79794452D01*
X67772452Y-79794455D01*
X67686206Y-79909664D01*
X67686202Y-79909671D01*
X67635908Y-80044517D01*
X67629501Y-80104116D01*
X67629501Y-80104123D01*
X67629500Y-80104135D01*
X67629500Y-80899870D01*
X67629501Y-80899876D01*
X67635908Y-80959483D01*
X67686202Y-81094328D01*
X67686206Y-81094335D01*
X67772452Y-81209544D01*
X67772455Y-81209547D01*
X67887664Y-81295793D01*
X67887671Y-81295797D01*
X68022517Y-81346091D01*
X68030062Y-81347874D01*
X68029523Y-81350151D01*
X68083287Y-81372408D01*
X68123147Y-81429793D01*
X68129500Y-81468975D01*
X68129500Y-82426000D01*
X68109815Y-82493039D01*
X68057011Y-82538794D01*
X68005500Y-82550000D01*
X66614500Y-82550000D01*
X66547461Y-82530315D01*
X66501706Y-82477511D01*
X66490500Y-82426000D01*
X66490500Y-81468976D01*
X66510185Y-81401937D01*
X66562989Y-81356182D01*
X66590135Y-81348736D01*
X66589932Y-81347876D01*
X66597479Y-81346092D01*
X66597481Y-81346091D01*
X66597483Y-81346091D01*
X66732331Y-81295796D01*
X66847546Y-81209546D01*
X66933796Y-81094331D01*
X66984091Y-80959483D01*
X66990500Y-80899873D01*
X66990499Y-80104128D01*
X66984091Y-80044517D01*
X66943647Y-79936082D01*
X66933797Y-79909671D01*
X66933793Y-79909664D01*
X66847547Y-79794455D01*
X66847544Y-79794452D01*
X66732335Y-79708206D01*
X66732328Y-79708202D01*
X66597482Y-79657908D01*
X66597483Y-79657908D01*
X66537883Y-79651501D01*
X66537881Y-79651500D01*
X66537873Y-79651500D01*
X66537864Y-79651500D01*
X65542129Y-79651500D01*
X65542123Y-79651501D01*
X65482516Y-79657908D01*
X65347671Y-79708202D01*
X65347664Y-79708206D01*
X65232455Y-79794452D01*
X65232452Y-79794455D01*
X65146206Y-79909664D01*
X65146202Y-79909671D01*
X65095908Y-80044517D01*
X65089501Y-80104116D01*
X65089501Y-80104123D01*
X65089500Y-80104135D01*
X65089500Y-80899870D01*
X65089501Y-80899876D01*
X65095908Y-80959483D01*
X65146202Y-81094328D01*
X65146206Y-81094335D01*
X65232452Y-81209544D01*
X65232455Y-81209547D01*
X65347664Y-81295793D01*
X65347671Y-81295797D01*
X65482517Y-81346091D01*
X65490062Y-81347874D01*
X65489523Y-81350151D01*
X65543287Y-81372408D01*
X65583147Y-81429793D01*
X65589500Y-81468975D01*
X65589500Y-82426000D01*
X65569815Y-82493039D01*
X65517011Y-82538794D01*
X65465500Y-82550000D01*
X64074500Y-82550000D01*
X64007461Y-82530315D01*
X63961706Y-82477511D01*
X63950500Y-82426000D01*
X63950500Y-81468976D01*
X63970185Y-81401937D01*
X64022989Y-81356182D01*
X64050135Y-81348736D01*
X64049932Y-81347876D01*
X64057479Y-81346092D01*
X64057481Y-81346091D01*
X64057483Y-81346091D01*
X64192331Y-81295796D01*
X64307546Y-81209546D01*
X64393796Y-81094331D01*
X64444091Y-80959483D01*
X64450500Y-80899873D01*
X64450499Y-80104128D01*
X64444091Y-80044517D01*
X64403647Y-79936082D01*
X64393797Y-79909671D01*
X64393793Y-79909664D01*
X64307547Y-79794455D01*
X64307544Y-79794452D01*
X64192335Y-79708206D01*
X64192328Y-79708202D01*
X64057482Y-79657908D01*
X64057483Y-79657908D01*
X63997883Y-79651501D01*
X63997881Y-79651500D01*
X63997873Y-79651500D01*
X63997864Y-79651500D01*
X63002129Y-79651500D01*
X63002123Y-79651501D01*
X62942516Y-79657908D01*
X62807671Y-79708202D01*
X62807664Y-79708206D01*
X62692455Y-79794452D01*
X62692452Y-79794455D01*
X62606206Y-79909664D01*
X62606202Y-79909671D01*
X62555908Y-80044517D01*
X62549501Y-80104116D01*
X62549501Y-80104123D01*
X62549500Y-80104135D01*
X62549500Y-80899870D01*
X62549501Y-80899876D01*
X62555908Y-80959483D01*
X62606202Y-81094328D01*
X62606206Y-81094335D01*
X62692452Y-81209544D01*
X62692455Y-81209547D01*
X62807664Y-81295793D01*
X62807671Y-81295797D01*
X62942517Y-81346091D01*
X62950062Y-81347874D01*
X62949523Y-81350151D01*
X63003287Y-81372408D01*
X63043147Y-81429793D01*
X63049500Y-81468975D01*
X63049500Y-82426000D01*
X63029815Y-82493039D01*
X62977011Y-82538794D01*
X62925500Y-82550000D01*
X61534500Y-82550000D01*
X61467461Y-82530315D01*
X61421706Y-82477511D01*
X61410500Y-82426000D01*
X61410500Y-81468976D01*
X61430185Y-81401937D01*
X61482989Y-81356182D01*
X61510135Y-81348736D01*
X61509932Y-81347876D01*
X61517479Y-81346092D01*
X61517481Y-81346091D01*
X61517483Y-81346091D01*
X61652331Y-81295796D01*
X61767546Y-81209546D01*
X61853796Y-81094331D01*
X61904091Y-80959483D01*
X61910500Y-80899873D01*
X61910499Y-80104128D01*
X61904091Y-80044517D01*
X61863647Y-79936082D01*
X61853797Y-79909671D01*
X61853793Y-79909664D01*
X61767547Y-79794455D01*
X61767544Y-79794452D01*
X61652335Y-79708206D01*
X61652328Y-79708202D01*
X61517482Y-79657908D01*
X61517483Y-79657908D01*
X61457883Y-79651501D01*
X61457881Y-79651500D01*
X61457873Y-79651500D01*
X61457864Y-79651500D01*
X60462129Y-79651500D01*
X60462123Y-79651501D01*
X60402516Y-79657908D01*
X60267671Y-79708202D01*
X60267664Y-79708206D01*
X60152455Y-79794452D01*
X60152452Y-79794455D01*
X60066206Y-79909664D01*
X60066202Y-79909671D01*
X60015908Y-80044517D01*
X60009501Y-80104116D01*
X60009501Y-80104123D01*
X60009500Y-80104135D01*
X60009500Y-80899870D01*
X60009501Y-80899876D01*
X60015908Y-80959483D01*
X60066202Y-81094328D01*
X60066206Y-81094335D01*
X60152452Y-81209544D01*
X60152455Y-81209547D01*
X60267664Y-81295793D01*
X60267671Y-81295797D01*
X60402517Y-81346091D01*
X60410062Y-81347874D01*
X60409523Y-81350151D01*
X60463287Y-81372408D01*
X60503147Y-81429793D01*
X60509500Y-81468975D01*
X60509500Y-82426000D01*
X60489815Y-82493039D01*
X60437011Y-82538794D01*
X60385500Y-82550000D01*
X58994500Y-82550000D01*
X58927461Y-82530315D01*
X58881706Y-82477511D01*
X58870500Y-82426000D01*
X58870500Y-81468976D01*
X58890185Y-81401937D01*
X58942989Y-81356182D01*
X58970135Y-81348736D01*
X58969932Y-81347876D01*
X58977479Y-81346092D01*
X58977481Y-81346091D01*
X58977483Y-81346091D01*
X59112331Y-81295796D01*
X59227546Y-81209546D01*
X59313796Y-81094331D01*
X59364091Y-80959483D01*
X59370500Y-80899873D01*
X59370499Y-80104128D01*
X59364091Y-80044517D01*
X59323647Y-79936082D01*
X59313797Y-79909671D01*
X59313793Y-79909664D01*
X59227547Y-79794455D01*
X59227544Y-79794452D01*
X59112335Y-79708206D01*
X59112328Y-79708202D01*
X58977482Y-79657908D01*
X58977483Y-79657908D01*
X58917883Y-79651501D01*
X58917881Y-79651500D01*
X58917873Y-79651500D01*
X58917864Y-79651500D01*
X57922129Y-79651500D01*
X57922123Y-79651501D01*
X57862516Y-79657908D01*
X57727671Y-79708202D01*
X57727664Y-79708206D01*
X57612455Y-79794452D01*
X57612452Y-79794455D01*
X57526206Y-79909664D01*
X57526202Y-79909671D01*
X57475908Y-80044517D01*
X57469501Y-80104116D01*
X57469501Y-80104123D01*
X57469500Y-80104135D01*
X57469500Y-80899870D01*
X57469501Y-80899876D01*
X57475908Y-80959483D01*
X57526202Y-81094328D01*
X57526206Y-81094335D01*
X57612452Y-81209544D01*
X57612455Y-81209547D01*
X57727664Y-81295793D01*
X57727671Y-81295797D01*
X57862517Y-81346091D01*
X57870062Y-81347874D01*
X57869523Y-81350151D01*
X57923287Y-81372408D01*
X57963147Y-81429793D01*
X57969500Y-81468975D01*
X57969500Y-82426000D01*
X57949815Y-82493039D01*
X57897011Y-82538794D01*
X57845500Y-82550000D01*
X56454500Y-82550000D01*
X56387461Y-82530315D01*
X56341706Y-82477511D01*
X56330500Y-82426000D01*
X56330500Y-81468976D01*
X56350185Y-81401937D01*
X56402989Y-81356182D01*
X56430135Y-81348736D01*
X56429932Y-81347876D01*
X56437479Y-81346092D01*
X56437481Y-81346091D01*
X56437483Y-81346091D01*
X56572331Y-81295796D01*
X56687546Y-81209546D01*
X56773796Y-81094331D01*
X56824091Y-80959483D01*
X56830500Y-80899873D01*
X56830499Y-80104128D01*
X56824091Y-80044517D01*
X56783647Y-79936082D01*
X56773797Y-79909671D01*
X56773793Y-79909664D01*
X56687547Y-79794455D01*
X56687544Y-79794452D01*
X56572335Y-79708206D01*
X56572328Y-79708202D01*
X56437482Y-79657908D01*
X56437483Y-79657908D01*
X56377883Y-79651501D01*
X56377881Y-79651500D01*
X56377873Y-79651500D01*
X56377864Y-79651500D01*
X55382129Y-79651500D01*
X55382123Y-79651501D01*
X55322516Y-79657908D01*
X55187671Y-79708202D01*
X55187664Y-79708206D01*
X55072455Y-79794452D01*
X55072452Y-79794455D01*
X54986206Y-79909664D01*
X54986202Y-79909671D01*
X54935908Y-80044517D01*
X54929501Y-80104116D01*
X54929501Y-80104123D01*
X54929500Y-80104135D01*
X54929500Y-80899870D01*
X54929501Y-80899876D01*
X54935908Y-80959483D01*
X54986202Y-81094328D01*
X54986206Y-81094335D01*
X55072452Y-81209544D01*
X55072455Y-81209547D01*
X55187664Y-81295793D01*
X55187671Y-81295797D01*
X55322517Y-81346091D01*
X55330062Y-81347874D01*
X55329523Y-81350151D01*
X55383287Y-81372408D01*
X55423147Y-81429793D01*
X55429500Y-81468975D01*
X55429500Y-82426000D01*
X55409815Y-82493039D01*
X55357011Y-82538794D01*
X55305500Y-82550000D01*
X53914500Y-82550000D01*
X53847461Y-82530315D01*
X53801706Y-82477511D01*
X53790500Y-82426000D01*
X53790500Y-81468976D01*
X53810185Y-81401937D01*
X53862989Y-81356182D01*
X53890135Y-81348736D01*
X53889932Y-81347876D01*
X53897479Y-81346092D01*
X53897481Y-81346091D01*
X53897483Y-81346091D01*
X54032331Y-81295796D01*
X54147546Y-81209546D01*
X54233796Y-81094331D01*
X54284091Y-80959483D01*
X54290500Y-80899873D01*
X54290499Y-80104128D01*
X54284091Y-80044517D01*
X54243647Y-79936082D01*
X54233797Y-79909671D01*
X54233793Y-79909664D01*
X54147547Y-79794455D01*
X54147544Y-79794452D01*
X54032335Y-79708206D01*
X54032328Y-79708202D01*
X53897482Y-79657908D01*
X53897483Y-79657908D01*
X53837883Y-79651501D01*
X53837881Y-79651500D01*
X53837873Y-79651500D01*
X53837864Y-79651500D01*
X52842129Y-79651500D01*
X52842123Y-79651501D01*
X52782516Y-79657908D01*
X52647671Y-79708202D01*
X52647664Y-79708206D01*
X52532455Y-79794452D01*
X52532452Y-79794455D01*
X52446206Y-79909664D01*
X52446202Y-79909671D01*
X52395908Y-80044517D01*
X52389501Y-80104116D01*
X52389501Y-80104123D01*
X52389500Y-80104135D01*
X52389500Y-80899870D01*
X52389501Y-80899876D01*
X52395908Y-80959483D01*
X52446202Y-81094328D01*
X52446206Y-81094335D01*
X52532452Y-81209544D01*
X52532455Y-81209547D01*
X52647664Y-81295793D01*
X52647671Y-81295797D01*
X52782517Y-81346091D01*
X52790062Y-81347874D01*
X52789523Y-81350151D01*
X52843287Y-81372408D01*
X52883147Y-81429793D01*
X52889500Y-81468975D01*
X52889500Y-82426000D01*
X52869815Y-82493039D01*
X52817011Y-82538794D01*
X52765500Y-82550000D01*
X51374500Y-82550000D01*
X51307461Y-82530315D01*
X51261706Y-82477511D01*
X51250500Y-82426000D01*
X51250500Y-81468976D01*
X51270185Y-81401937D01*
X51322989Y-81356182D01*
X51350135Y-81348736D01*
X51349932Y-81347876D01*
X51357479Y-81346092D01*
X51357481Y-81346091D01*
X51357483Y-81346091D01*
X51492331Y-81295796D01*
X51607546Y-81209546D01*
X51693796Y-81094331D01*
X51744091Y-80959483D01*
X51750500Y-80899873D01*
X51750499Y-80104128D01*
X51744091Y-80044517D01*
X51703647Y-79936082D01*
X51693797Y-79909671D01*
X51693793Y-79909664D01*
X51607547Y-79794455D01*
X51607544Y-79794452D01*
X51492335Y-79708206D01*
X51492328Y-79708202D01*
X51357482Y-79657908D01*
X51357483Y-79657908D01*
X51297883Y-79651501D01*
X51297881Y-79651500D01*
X51297873Y-79651500D01*
X51297864Y-79651500D01*
X50302129Y-79651500D01*
X50302123Y-79651501D01*
X50242516Y-79657908D01*
X50107671Y-79708202D01*
X50107664Y-79708206D01*
X49992455Y-79794452D01*
X49992452Y-79794455D01*
X49906206Y-79909664D01*
X49906202Y-79909671D01*
X49855908Y-80044517D01*
X49849501Y-80104116D01*
X49849501Y-80104123D01*
X49849500Y-80104135D01*
X49849500Y-80899870D01*
X49849501Y-80899876D01*
X49855908Y-80959483D01*
X49906202Y-81094328D01*
X49906206Y-81094335D01*
X49992452Y-81209544D01*
X49992455Y-81209547D01*
X50107664Y-81295793D01*
X50107671Y-81295797D01*
X50242517Y-81346091D01*
X50250062Y-81347874D01*
X50249523Y-81350151D01*
X50303287Y-81372408D01*
X50343147Y-81429793D01*
X50349500Y-81468975D01*
X50349500Y-82426000D01*
X50329815Y-82493039D01*
X50277011Y-82538794D01*
X50225500Y-82550000D01*
X48834500Y-82550000D01*
X48767461Y-82530315D01*
X48721706Y-82477511D01*
X48710500Y-82426000D01*
X48710500Y-81468976D01*
X48730185Y-81401937D01*
X48782989Y-81356182D01*
X48810135Y-81348736D01*
X48809932Y-81347876D01*
X48817479Y-81346092D01*
X48817481Y-81346091D01*
X48817483Y-81346091D01*
X48952331Y-81295796D01*
X49067546Y-81209546D01*
X49153796Y-81094331D01*
X49204091Y-80959483D01*
X49210500Y-80899873D01*
X49210499Y-80104128D01*
X49204091Y-80044517D01*
X49163647Y-79936082D01*
X49153797Y-79909671D01*
X49153793Y-79909664D01*
X49067547Y-79794455D01*
X49067544Y-79794452D01*
X48952335Y-79708206D01*
X48952328Y-79708202D01*
X48817482Y-79657908D01*
X48817483Y-79657908D01*
X48757883Y-79651501D01*
X48757881Y-79651500D01*
X48757873Y-79651500D01*
X48757864Y-79651500D01*
X47762129Y-79651500D01*
X47762123Y-79651501D01*
X47702516Y-79657908D01*
X47567671Y-79708202D01*
X47567664Y-79708206D01*
X47452455Y-79794452D01*
X47452452Y-79794455D01*
X47366206Y-79909664D01*
X47366202Y-79909671D01*
X47315908Y-80044517D01*
X47309501Y-80104116D01*
X47309501Y-80104123D01*
X47309500Y-80104135D01*
X47309500Y-80899870D01*
X47309501Y-80899876D01*
X47315908Y-80959483D01*
X47366202Y-81094328D01*
X47366206Y-81094335D01*
X47452452Y-81209544D01*
X47452455Y-81209547D01*
X47567664Y-81295793D01*
X47567671Y-81295797D01*
X47702517Y-81346091D01*
X47710062Y-81347874D01*
X47709523Y-81350151D01*
X47763287Y-81372408D01*
X47803147Y-81429793D01*
X47809500Y-81468975D01*
X47809500Y-82426000D01*
X47789815Y-82493039D01*
X47737011Y-82538794D01*
X47685500Y-82550000D01*
X46294500Y-82550000D01*
X46227461Y-82530315D01*
X46181706Y-82477511D01*
X46170500Y-82426000D01*
X46170500Y-81468976D01*
X46190185Y-81401937D01*
X46242989Y-81356182D01*
X46270135Y-81348736D01*
X46269932Y-81347876D01*
X46277479Y-81346092D01*
X46277481Y-81346091D01*
X46277483Y-81346091D01*
X46412331Y-81295796D01*
X46527546Y-81209546D01*
X46613796Y-81094331D01*
X46664091Y-80959483D01*
X46670500Y-80899873D01*
X46670499Y-80104128D01*
X46664091Y-80044517D01*
X46623647Y-79936082D01*
X46613797Y-79909671D01*
X46613793Y-79909664D01*
X46527547Y-79794455D01*
X46527544Y-79794452D01*
X46412335Y-79708206D01*
X46412328Y-79708202D01*
X46277482Y-79657908D01*
X46277483Y-79657908D01*
X46217883Y-79651501D01*
X46217881Y-79651500D01*
X46217873Y-79651500D01*
X46217864Y-79651500D01*
X45222129Y-79651500D01*
X45222123Y-79651501D01*
X45162516Y-79657908D01*
X45027671Y-79708202D01*
X45027664Y-79708206D01*
X44912455Y-79794452D01*
X44912452Y-79794455D01*
X44826206Y-79909664D01*
X44826202Y-79909671D01*
X44775908Y-80044517D01*
X44769501Y-80104116D01*
X44769501Y-80104123D01*
X44769500Y-80104135D01*
X44769500Y-80899870D01*
X44769501Y-80899876D01*
X44775908Y-80959483D01*
X44826202Y-81094328D01*
X44826206Y-81094335D01*
X44912452Y-81209544D01*
X44912455Y-81209547D01*
X45027664Y-81295793D01*
X45027671Y-81295797D01*
X45162517Y-81346091D01*
X45170062Y-81347874D01*
X45169523Y-81350151D01*
X45223287Y-81372408D01*
X45263147Y-81429793D01*
X45269500Y-81468975D01*
X45269500Y-82426000D01*
X45249815Y-82493039D01*
X45197011Y-82538794D01*
X45145500Y-82550000D01*
X43754500Y-82550000D01*
X43687461Y-82530315D01*
X43641706Y-82477511D01*
X43630500Y-82426000D01*
X43630500Y-81468976D01*
X43650185Y-81401937D01*
X43702989Y-81356182D01*
X43730135Y-81348736D01*
X43729932Y-81347876D01*
X43737479Y-81346092D01*
X43737481Y-81346091D01*
X43737483Y-81346091D01*
X43872331Y-81295796D01*
X43987546Y-81209546D01*
X44073796Y-81094331D01*
X44124091Y-80959483D01*
X44130500Y-80899873D01*
X44130499Y-80104128D01*
X44124091Y-80044517D01*
X44083647Y-79936082D01*
X44073797Y-79909671D01*
X44073793Y-79909664D01*
X43987547Y-79794455D01*
X43987544Y-79794452D01*
X43872335Y-79708206D01*
X43872328Y-79708202D01*
X43737482Y-79657908D01*
X43737483Y-79657908D01*
X43677883Y-79651501D01*
X43677881Y-79651500D01*
X43677873Y-79651500D01*
X43677864Y-79651500D01*
X42682129Y-79651500D01*
X42682123Y-79651501D01*
X42622516Y-79657908D01*
X42487671Y-79708202D01*
X42487664Y-79708206D01*
X42372455Y-79794452D01*
X42372452Y-79794455D01*
X42286206Y-79909664D01*
X42286202Y-79909671D01*
X42235908Y-80044517D01*
X42229501Y-80104116D01*
X42229501Y-80104123D01*
X42229500Y-80104135D01*
X42229500Y-80899870D01*
X42229501Y-80899876D01*
X42235908Y-80959483D01*
X42286202Y-81094328D01*
X42286206Y-81094335D01*
X42372452Y-81209544D01*
X42372455Y-81209547D01*
X42487664Y-81295793D01*
X42487671Y-81295797D01*
X42622517Y-81346091D01*
X42630062Y-81347874D01*
X42629523Y-81350151D01*
X42683287Y-81372408D01*
X42723147Y-81429793D01*
X42729500Y-81468975D01*
X42729500Y-82426000D01*
X42709815Y-82493039D01*
X42657011Y-82538794D01*
X42605500Y-82550000D01*
X41214500Y-82550000D01*
X41147461Y-82530315D01*
X41101706Y-82477511D01*
X41090500Y-82426000D01*
X41090500Y-81468976D01*
X41110185Y-81401937D01*
X41162989Y-81356182D01*
X41190135Y-81348736D01*
X41189932Y-81347876D01*
X41197479Y-81346092D01*
X41197481Y-81346091D01*
X41197483Y-81346091D01*
X41332331Y-81295796D01*
X41447546Y-81209546D01*
X41533796Y-81094331D01*
X41584091Y-80959483D01*
X41590500Y-80899873D01*
X41590499Y-80104128D01*
X41584091Y-80044517D01*
X41543647Y-79936082D01*
X41533797Y-79909671D01*
X41533793Y-79909664D01*
X41447547Y-79794455D01*
X41447544Y-79794452D01*
X41332335Y-79708206D01*
X41332328Y-79708202D01*
X41197482Y-79657908D01*
X41197483Y-79657908D01*
X41137883Y-79651501D01*
X41137881Y-79651500D01*
X41137873Y-79651500D01*
X41137864Y-79651500D01*
X40142129Y-79651500D01*
X40142123Y-79651501D01*
X40082516Y-79657908D01*
X39947671Y-79708202D01*
X39947664Y-79708206D01*
X39832455Y-79794452D01*
X39832452Y-79794455D01*
X39746206Y-79909664D01*
X39746202Y-79909671D01*
X39695908Y-80044517D01*
X39689501Y-80104116D01*
X39689501Y-80104123D01*
X39689500Y-80104135D01*
X39689500Y-80899870D01*
X39689501Y-80899876D01*
X39695908Y-80959483D01*
X39746202Y-81094328D01*
X39746206Y-81094335D01*
X39832452Y-81209544D01*
X39832455Y-81209547D01*
X39947664Y-81295793D01*
X39947671Y-81295797D01*
X40082517Y-81346091D01*
X40090062Y-81347874D01*
X40089523Y-81350151D01*
X40143287Y-81372408D01*
X40183147Y-81429793D01*
X40189500Y-81468975D01*
X40189500Y-82426000D01*
X40169815Y-82493039D01*
X40117011Y-82538794D01*
X40065500Y-82550000D01*
X33669900Y-82550000D01*
X33602861Y-82530315D01*
X33557106Y-82477511D01*
X33545900Y-82426000D01*
X33545900Y-78104135D01*
X39689500Y-78104135D01*
X39689500Y-78899870D01*
X39689501Y-78899876D01*
X39695908Y-78959483D01*
X39746202Y-79094328D01*
X39746206Y-79094335D01*
X39832452Y-79209544D01*
X39832455Y-79209547D01*
X39947664Y-79295793D01*
X39947671Y-79295797D01*
X40082517Y-79346091D01*
X40082516Y-79346091D01*
X40089444Y-79346835D01*
X40142127Y-79352500D01*
X41137872Y-79352499D01*
X41197483Y-79346091D01*
X41332331Y-79295796D01*
X41447546Y-79209546D01*
X41533796Y-79094331D01*
X41584091Y-78959483D01*
X41590500Y-78899873D01*
X41590499Y-78104128D01*
X41584091Y-78044517D01*
X41533796Y-77909669D01*
X41533795Y-77909668D01*
X41533793Y-77909664D01*
X41447547Y-77794455D01*
X41447544Y-77794452D01*
X41332335Y-77708206D01*
X41332327Y-77708202D01*
X41314638Y-77701604D01*
X41258706Y-77659732D01*
X41234290Y-77594267D01*
X41249143Y-77525994D01*
X41270289Y-77497746D01*
X45839218Y-72928819D01*
X45900541Y-72895334D01*
X45926899Y-72892500D01*
X47054101Y-72892500D01*
X47121140Y-72912185D01*
X47166895Y-72964989D01*
X47176839Y-73034147D01*
X47147814Y-73097703D01*
X47141782Y-73104181D01*
X42879526Y-77366436D01*
X42830091Y-77452059D01*
X42830091Y-77452060D01*
X42830090Y-77452062D01*
X42804500Y-77547565D01*
X42804500Y-77547567D01*
X42802397Y-77555416D01*
X42800099Y-77554800D01*
X42776726Y-77607603D01*
X42718392Y-77646061D01*
X42685418Y-77651003D01*
X42685423Y-77651099D01*
X42685429Y-77651146D01*
X42685426Y-77651146D01*
X42685436Y-77651324D01*
X42682123Y-77651501D01*
X42622516Y-77657908D01*
X42487671Y-77708202D01*
X42487664Y-77708206D01*
X42372455Y-77794452D01*
X42372452Y-77794455D01*
X42286206Y-77909664D01*
X42286202Y-77909671D01*
X42235908Y-78044517D01*
X42229501Y-78104116D01*
X42229501Y-78104123D01*
X42229500Y-78104135D01*
X42229500Y-78899870D01*
X42229501Y-78899876D01*
X42235908Y-78959483D01*
X42286202Y-79094328D01*
X42286206Y-79094335D01*
X42372452Y-79209544D01*
X42372455Y-79209547D01*
X42487664Y-79295793D01*
X42487671Y-79295797D01*
X42622517Y-79346091D01*
X42622516Y-79346091D01*
X42629444Y-79346835D01*
X42682127Y-79352500D01*
X43677872Y-79352499D01*
X43737483Y-79346091D01*
X43872331Y-79295796D01*
X43987546Y-79209546D01*
X44073796Y-79094331D01*
X44124091Y-78959483D01*
X44130500Y-78899873D01*
X44130499Y-78104128D01*
X44124091Y-78044517D01*
X44073796Y-77909669D01*
X44073795Y-77909668D01*
X44073793Y-77909664D01*
X43987547Y-77794455D01*
X43987544Y-77794452D01*
X43872335Y-77708206D01*
X43872327Y-77708202D01*
X43854638Y-77701604D01*
X43798706Y-77659732D01*
X43774290Y-77594267D01*
X43789143Y-77525994D01*
X43810289Y-77497746D01*
X47490218Y-73817819D01*
X47551541Y-73784334D01*
X47577899Y-73781500D01*
X48705101Y-73781500D01*
X48772140Y-73801185D01*
X48817895Y-73853989D01*
X48827839Y-73923147D01*
X48798814Y-73986703D01*
X48792782Y-73993181D01*
X45419526Y-77366436D01*
X45370091Y-77452059D01*
X45370091Y-77452060D01*
X45370090Y-77452062D01*
X45344500Y-77547565D01*
X45344500Y-77547567D01*
X45342397Y-77555416D01*
X45340099Y-77554800D01*
X45316726Y-77607603D01*
X45258392Y-77646061D01*
X45225418Y-77651003D01*
X45225423Y-77651099D01*
X45225429Y-77651146D01*
X45225426Y-77651146D01*
X45225436Y-77651324D01*
X45222123Y-77651501D01*
X45162516Y-77657908D01*
X45027671Y-77708202D01*
X45027664Y-77708206D01*
X44912455Y-77794452D01*
X44912452Y-77794455D01*
X44826206Y-77909664D01*
X44826202Y-77909671D01*
X44775908Y-78044517D01*
X44769501Y-78104116D01*
X44769501Y-78104123D01*
X44769500Y-78104135D01*
X44769500Y-78899870D01*
X44769501Y-78899876D01*
X44775908Y-78959483D01*
X44826202Y-79094328D01*
X44826206Y-79094335D01*
X44912452Y-79209544D01*
X44912455Y-79209547D01*
X45027664Y-79295793D01*
X45027671Y-79295797D01*
X45162517Y-79346091D01*
X45162516Y-79346091D01*
X45169444Y-79346835D01*
X45222127Y-79352500D01*
X46217872Y-79352499D01*
X46277483Y-79346091D01*
X46412331Y-79295796D01*
X46527546Y-79209546D01*
X46613796Y-79094331D01*
X46664091Y-78959483D01*
X46670500Y-78899873D01*
X46670499Y-78104128D01*
X46664091Y-78044517D01*
X46613796Y-77909669D01*
X46613795Y-77909668D01*
X46613793Y-77909664D01*
X46527547Y-77794455D01*
X46527544Y-77794452D01*
X46412335Y-77708206D01*
X46412327Y-77708202D01*
X46394638Y-77701604D01*
X46338706Y-77659732D01*
X46314290Y-77594267D01*
X46329143Y-77525994D01*
X46350289Y-77497746D01*
X49141218Y-74706819D01*
X49202541Y-74673334D01*
X49228899Y-74670500D01*
X50356101Y-74670500D01*
X50423140Y-74690185D01*
X50468895Y-74742989D01*
X50478839Y-74812147D01*
X50449814Y-74875703D01*
X50443782Y-74882181D01*
X47959526Y-77366436D01*
X47910091Y-77452059D01*
X47910091Y-77452060D01*
X47910090Y-77452062D01*
X47884500Y-77547565D01*
X47884500Y-77547567D01*
X47882397Y-77555416D01*
X47880099Y-77554800D01*
X47856726Y-77607603D01*
X47798392Y-77646061D01*
X47765418Y-77651003D01*
X47765423Y-77651099D01*
X47765429Y-77651146D01*
X47765426Y-77651146D01*
X47765436Y-77651324D01*
X47762123Y-77651501D01*
X47702516Y-77657908D01*
X47567671Y-77708202D01*
X47567664Y-77708206D01*
X47452455Y-77794452D01*
X47452452Y-77794455D01*
X47366206Y-77909664D01*
X47366202Y-77909671D01*
X47315908Y-78044517D01*
X47309501Y-78104116D01*
X47309501Y-78104123D01*
X47309500Y-78104135D01*
X47309500Y-78899870D01*
X47309501Y-78899876D01*
X47315908Y-78959483D01*
X47366202Y-79094328D01*
X47366206Y-79094335D01*
X47452452Y-79209544D01*
X47452455Y-79209547D01*
X47567664Y-79295793D01*
X47567671Y-79295797D01*
X47702517Y-79346091D01*
X47702516Y-79346091D01*
X47709444Y-79346835D01*
X47762127Y-79352500D01*
X48757872Y-79352499D01*
X48817483Y-79346091D01*
X48952331Y-79295796D01*
X49067546Y-79209546D01*
X49153796Y-79094331D01*
X49204091Y-78959483D01*
X49210500Y-78899873D01*
X49210499Y-78104128D01*
X49204091Y-78044517D01*
X49153796Y-77909669D01*
X49153795Y-77909668D01*
X49153793Y-77909664D01*
X49067547Y-77794455D01*
X49067544Y-77794452D01*
X48952335Y-77708206D01*
X48952327Y-77708202D01*
X48934638Y-77701604D01*
X48878706Y-77659732D01*
X48854290Y-77594267D01*
X48869143Y-77525994D01*
X48890289Y-77497746D01*
X50792218Y-75595819D01*
X50853541Y-75562334D01*
X50879899Y-75559500D01*
X51943601Y-75559500D01*
X52010640Y-75579185D01*
X52056395Y-75631989D01*
X52066339Y-75701147D01*
X52037314Y-75764703D01*
X52031282Y-75771181D01*
X50499526Y-77302936D01*
X50450091Y-77388559D01*
X50450091Y-77388560D01*
X50450090Y-77388562D01*
X50424500Y-77484065D01*
X50424500Y-77484067D01*
X50424500Y-77527500D01*
X50404815Y-77594539D01*
X50352011Y-77640294D01*
X50305389Y-77650450D01*
X50305423Y-77651099D01*
X50305429Y-77651146D01*
X50305426Y-77651146D01*
X50305436Y-77651324D01*
X50302123Y-77651501D01*
X50242516Y-77657908D01*
X50107671Y-77708202D01*
X50107664Y-77708206D01*
X49992455Y-77794452D01*
X49992452Y-77794455D01*
X49906206Y-77909664D01*
X49906202Y-77909671D01*
X49855908Y-78044517D01*
X49849501Y-78104116D01*
X49849501Y-78104123D01*
X49849500Y-78104135D01*
X49849500Y-78899870D01*
X49849501Y-78899876D01*
X49855908Y-78959483D01*
X49906202Y-79094328D01*
X49906206Y-79094335D01*
X49992452Y-79209544D01*
X49992455Y-79209547D01*
X50107664Y-79295793D01*
X50107671Y-79295797D01*
X50242517Y-79346091D01*
X50242516Y-79346091D01*
X50249444Y-79346835D01*
X50302127Y-79352500D01*
X51297872Y-79352499D01*
X51357483Y-79346091D01*
X51492331Y-79295796D01*
X51607546Y-79209546D01*
X51693796Y-79094331D01*
X51744091Y-78959483D01*
X51750500Y-78899873D01*
X51750499Y-78104128D01*
X51744091Y-78044517D01*
X51693796Y-77909669D01*
X51693795Y-77909668D01*
X51693793Y-77909664D01*
X51607547Y-77794455D01*
X51607544Y-77794452D01*
X51492335Y-77708206D01*
X51492330Y-77708203D01*
X51428390Y-77684355D01*
X51372457Y-77642483D01*
X51348040Y-77577019D01*
X51362892Y-77508746D01*
X51384039Y-77480496D01*
X52379718Y-76484819D01*
X52441041Y-76451334D01*
X52467399Y-76448500D01*
X53404101Y-76448500D01*
X53471140Y-76468185D01*
X53516895Y-76520989D01*
X53526839Y-76590147D01*
X53497814Y-76653703D01*
X53491782Y-76660181D01*
X53039526Y-77112436D01*
X52990091Y-77198059D01*
X52990091Y-77198060D01*
X52990090Y-77198062D01*
X52964500Y-77293565D01*
X52964500Y-77293567D01*
X52964500Y-77527500D01*
X52944815Y-77594539D01*
X52892011Y-77640294D01*
X52845389Y-77650450D01*
X52845423Y-77651099D01*
X52845429Y-77651146D01*
X52845426Y-77651146D01*
X52845436Y-77651324D01*
X52842123Y-77651501D01*
X52782516Y-77657908D01*
X52647671Y-77708202D01*
X52647664Y-77708206D01*
X52532455Y-77794452D01*
X52532452Y-77794455D01*
X52446206Y-77909664D01*
X52446202Y-77909671D01*
X52395908Y-78044517D01*
X52389501Y-78104116D01*
X52389501Y-78104123D01*
X52389500Y-78104135D01*
X52389500Y-78899870D01*
X52389501Y-78899876D01*
X52395908Y-78959483D01*
X52446202Y-79094328D01*
X52446206Y-79094335D01*
X52532452Y-79209544D01*
X52532455Y-79209547D01*
X52647664Y-79295793D01*
X52647671Y-79295797D01*
X52782517Y-79346091D01*
X52782516Y-79346091D01*
X52789444Y-79346835D01*
X52842127Y-79352500D01*
X53837872Y-79352499D01*
X53897483Y-79346091D01*
X54032331Y-79295796D01*
X54147546Y-79209546D01*
X54233796Y-79094331D01*
X54284091Y-78959483D01*
X54290500Y-78899873D01*
X54290499Y-78104128D01*
X54284091Y-78044517D01*
X54233796Y-77909669D01*
X54233795Y-77909668D01*
X54233793Y-77909664D01*
X54147547Y-77794455D01*
X54147544Y-77794452D01*
X54032335Y-77708206D01*
X54032328Y-77708202D01*
X53897482Y-77657908D01*
X53897483Y-77657908D01*
X53846955Y-77652476D01*
X53782404Y-77625738D01*
X53742556Y-77568345D01*
X53740063Y-77498520D01*
X53772528Y-77441508D01*
X55292819Y-75921218D01*
X55354142Y-75887733D01*
X55423834Y-75892717D01*
X55479767Y-75934589D01*
X55504184Y-76000053D01*
X55504500Y-76008899D01*
X55504500Y-77527500D01*
X55484815Y-77594539D01*
X55432011Y-77640294D01*
X55385389Y-77650450D01*
X55385423Y-77651099D01*
X55385429Y-77651146D01*
X55385426Y-77651146D01*
X55385436Y-77651324D01*
X55382123Y-77651501D01*
X55322516Y-77657908D01*
X55187671Y-77708202D01*
X55187664Y-77708206D01*
X55072455Y-77794452D01*
X55072452Y-77794455D01*
X54986206Y-77909664D01*
X54986202Y-77909671D01*
X54935908Y-78044517D01*
X54929501Y-78104116D01*
X54929501Y-78104123D01*
X54929500Y-78104135D01*
X54929500Y-78899870D01*
X54929501Y-78899876D01*
X54935908Y-78959483D01*
X54986202Y-79094328D01*
X54986206Y-79094335D01*
X55072452Y-79209544D01*
X55072455Y-79209547D01*
X55187664Y-79295793D01*
X55187671Y-79295797D01*
X55322517Y-79346091D01*
X55322516Y-79346091D01*
X55329444Y-79346835D01*
X55382127Y-79352500D01*
X56377872Y-79352499D01*
X56437483Y-79346091D01*
X56572331Y-79295796D01*
X56687546Y-79209546D01*
X56773796Y-79094331D01*
X56824091Y-78959483D01*
X56830500Y-78899873D01*
X56830499Y-78104128D01*
X56824091Y-78044517D01*
X56773796Y-77909669D01*
X56773795Y-77909668D01*
X56773793Y-77909664D01*
X56687547Y-77794455D01*
X56687544Y-77794452D01*
X56572335Y-77708206D01*
X56572328Y-77708202D01*
X56437482Y-77657908D01*
X56437483Y-77657908D01*
X56377883Y-77651501D01*
X56377881Y-77651500D01*
X56377873Y-77651500D01*
X56377864Y-77651500D01*
X56374548Y-77651322D01*
X56374615Y-77650065D01*
X56312461Y-77631815D01*
X56266706Y-77579011D01*
X56255500Y-77527500D01*
X56255500Y-75898898D01*
X56275185Y-75831859D01*
X56291814Y-75811222D01*
X57832820Y-74270216D01*
X57894142Y-74236732D01*
X57963834Y-74241716D01*
X58019767Y-74283588D01*
X58044184Y-74349052D01*
X58044500Y-74357898D01*
X58044500Y-77527500D01*
X58024815Y-77594539D01*
X57972011Y-77640294D01*
X57925389Y-77650450D01*
X57925423Y-77651099D01*
X57925429Y-77651146D01*
X57925426Y-77651146D01*
X57925436Y-77651324D01*
X57922123Y-77651501D01*
X57862516Y-77657908D01*
X57727671Y-77708202D01*
X57727664Y-77708206D01*
X57612455Y-77794452D01*
X57612452Y-77794455D01*
X57526206Y-77909664D01*
X57526202Y-77909671D01*
X57475908Y-78044517D01*
X57469501Y-78104116D01*
X57469501Y-78104123D01*
X57469500Y-78104135D01*
X57469500Y-78899870D01*
X57469501Y-78899876D01*
X57475908Y-78959483D01*
X57526202Y-79094328D01*
X57526206Y-79094335D01*
X57612452Y-79209544D01*
X57612455Y-79209547D01*
X57727664Y-79295793D01*
X57727671Y-79295797D01*
X57862517Y-79346091D01*
X57862516Y-79346091D01*
X57869444Y-79346835D01*
X57922127Y-79352500D01*
X58917872Y-79352499D01*
X58977483Y-79346091D01*
X59112331Y-79295796D01*
X59227546Y-79209546D01*
X59313796Y-79094331D01*
X59364091Y-78959483D01*
X59370500Y-78899873D01*
X59370499Y-78104135D01*
X60009500Y-78104135D01*
X60009500Y-78899870D01*
X60009501Y-78899876D01*
X60015908Y-78959483D01*
X60066202Y-79094328D01*
X60066206Y-79094335D01*
X60152452Y-79209544D01*
X60152455Y-79209547D01*
X60267664Y-79295793D01*
X60267671Y-79295797D01*
X60402517Y-79346091D01*
X60402516Y-79346091D01*
X60409444Y-79346835D01*
X60462127Y-79352500D01*
X61457872Y-79352499D01*
X61517483Y-79346091D01*
X61652331Y-79295796D01*
X61767546Y-79209546D01*
X61853796Y-79094331D01*
X61904091Y-78959483D01*
X61910500Y-78899873D01*
X61910499Y-78104128D01*
X61904091Y-78044517D01*
X61853796Y-77909669D01*
X61853795Y-77909668D01*
X61853793Y-77909664D01*
X61767547Y-77794455D01*
X61767544Y-77794452D01*
X61652335Y-77708206D01*
X61652328Y-77708202D01*
X61517482Y-77657908D01*
X61517483Y-77657908D01*
X61457883Y-77651501D01*
X61457881Y-77651500D01*
X61457873Y-77651500D01*
X61457864Y-77651500D01*
X61454548Y-77651322D01*
X61454615Y-77650065D01*
X61392461Y-77631815D01*
X61346706Y-77579011D01*
X61335500Y-77527500D01*
X61335500Y-75009898D01*
X61355185Y-74942859D01*
X61371814Y-74922222D01*
X62912820Y-73381216D01*
X62974142Y-73347732D01*
X63043834Y-73352716D01*
X63099767Y-73394588D01*
X63124184Y-73460052D01*
X63124500Y-73468898D01*
X63124500Y-77527500D01*
X63104815Y-77594539D01*
X63052011Y-77640294D01*
X63005389Y-77650450D01*
X63005423Y-77651099D01*
X63005429Y-77651146D01*
X63005426Y-77651146D01*
X63005436Y-77651324D01*
X63002123Y-77651501D01*
X62942516Y-77657908D01*
X62807671Y-77708202D01*
X62807664Y-77708206D01*
X62692455Y-77794452D01*
X62692452Y-77794455D01*
X62606206Y-77909664D01*
X62606202Y-77909671D01*
X62555908Y-78044517D01*
X62549501Y-78104116D01*
X62549501Y-78104123D01*
X62549500Y-78104135D01*
X62549500Y-78899870D01*
X62549501Y-78899876D01*
X62555908Y-78959483D01*
X62606202Y-79094328D01*
X62606206Y-79094335D01*
X62692452Y-79209544D01*
X62692455Y-79209547D01*
X62807664Y-79295793D01*
X62807671Y-79295797D01*
X62942517Y-79346091D01*
X62942516Y-79346091D01*
X62949444Y-79346835D01*
X63002127Y-79352500D01*
X63997872Y-79352499D01*
X64057483Y-79346091D01*
X64192331Y-79295796D01*
X64307546Y-79209546D01*
X64393796Y-79094331D01*
X64444091Y-78959483D01*
X64450500Y-78899873D01*
X64450499Y-78104128D01*
X64444091Y-78044517D01*
X64393796Y-77909669D01*
X64393795Y-77909668D01*
X64393793Y-77909664D01*
X64307547Y-77794455D01*
X64307544Y-77794452D01*
X64192335Y-77708206D01*
X64192328Y-77708202D01*
X64057482Y-77657908D01*
X64057483Y-77657908D01*
X63997883Y-77651501D01*
X63997881Y-77651500D01*
X63997873Y-77651500D01*
X63997864Y-77651500D01*
X63994548Y-77651322D01*
X63994615Y-77650065D01*
X63932461Y-77631815D01*
X63886706Y-77579011D01*
X63875500Y-77527500D01*
X63875500Y-73612899D01*
X63895185Y-73545860D01*
X63911819Y-73525218D01*
X65452819Y-71984218D01*
X65514142Y-71950733D01*
X65583834Y-71955717D01*
X65639767Y-71997589D01*
X65664184Y-72063053D01*
X65664500Y-72071899D01*
X65664500Y-77527500D01*
X65644815Y-77594539D01*
X65592011Y-77640294D01*
X65545389Y-77650450D01*
X65545423Y-77651099D01*
X65545429Y-77651146D01*
X65545426Y-77651146D01*
X65545436Y-77651324D01*
X65542123Y-77651501D01*
X65482516Y-77657908D01*
X65347671Y-77708202D01*
X65347664Y-77708206D01*
X65232455Y-77794452D01*
X65232452Y-77794455D01*
X65146206Y-77909664D01*
X65146202Y-77909671D01*
X65095908Y-78044517D01*
X65089501Y-78104116D01*
X65089501Y-78104123D01*
X65089500Y-78104135D01*
X65089500Y-78899870D01*
X65089501Y-78899876D01*
X65095908Y-78959483D01*
X65146202Y-79094328D01*
X65146206Y-79094335D01*
X65232452Y-79209544D01*
X65232455Y-79209547D01*
X65347664Y-79295793D01*
X65347671Y-79295797D01*
X65482517Y-79346091D01*
X65482516Y-79346091D01*
X65489444Y-79346835D01*
X65542127Y-79352500D01*
X66537872Y-79352499D01*
X66597483Y-79346091D01*
X66732331Y-79295796D01*
X66847546Y-79209546D01*
X66933796Y-79094331D01*
X66984091Y-78959483D01*
X66990500Y-78899873D01*
X66990499Y-78104128D01*
X66984091Y-78044517D01*
X66933796Y-77909669D01*
X66933795Y-77909668D01*
X66933793Y-77909664D01*
X66847547Y-77794455D01*
X66847544Y-77794452D01*
X66732335Y-77708206D01*
X66732328Y-77708202D01*
X66597482Y-77657908D01*
X66597483Y-77657908D01*
X66537883Y-77651501D01*
X66537881Y-77651500D01*
X66537873Y-77651500D01*
X66537864Y-77651500D01*
X66534548Y-77651322D01*
X66534615Y-77650065D01*
X66472461Y-77631815D01*
X66426706Y-77579011D01*
X66415500Y-77527500D01*
X66415500Y-71961898D01*
X66435185Y-71894859D01*
X66451814Y-71874222D01*
X67993813Y-70332223D01*
X68055133Y-70298740D01*
X68124825Y-70303724D01*
X68180758Y-70345596D01*
X68205175Y-70411060D01*
X68204500Y-70433761D01*
X68204500Y-77527500D01*
X68184815Y-77594539D01*
X68132011Y-77640294D01*
X68085389Y-77650450D01*
X68085423Y-77651099D01*
X68085429Y-77651146D01*
X68085426Y-77651146D01*
X68085436Y-77651324D01*
X68082123Y-77651501D01*
X68022516Y-77657908D01*
X67887671Y-77708202D01*
X67887664Y-77708206D01*
X67772455Y-77794452D01*
X67772452Y-77794455D01*
X67686206Y-77909664D01*
X67686202Y-77909671D01*
X67635908Y-78044517D01*
X67629501Y-78104116D01*
X67629501Y-78104123D01*
X67629500Y-78104135D01*
X67629500Y-78899870D01*
X67629501Y-78899876D01*
X67635908Y-78959483D01*
X67686202Y-79094328D01*
X67686206Y-79094335D01*
X67772452Y-79209544D01*
X67772455Y-79209547D01*
X67887664Y-79295793D01*
X67887671Y-79295797D01*
X68022517Y-79346091D01*
X68022516Y-79346091D01*
X68029444Y-79346835D01*
X68082127Y-79352500D01*
X69077872Y-79352499D01*
X69137483Y-79346091D01*
X69272331Y-79295796D01*
X69387546Y-79209546D01*
X69473796Y-79094331D01*
X69524091Y-78959483D01*
X69530500Y-78899873D01*
X69530499Y-78104135D01*
X70169500Y-78104135D01*
X70169500Y-78899870D01*
X70169501Y-78899876D01*
X70175908Y-78959483D01*
X70226202Y-79094328D01*
X70226206Y-79094335D01*
X70312452Y-79209544D01*
X70312455Y-79209547D01*
X70427664Y-79295793D01*
X70427671Y-79295797D01*
X70562517Y-79346091D01*
X70562516Y-79346091D01*
X70569444Y-79346835D01*
X70622127Y-79352500D01*
X71617872Y-79352499D01*
X71677483Y-79346091D01*
X71812331Y-79295796D01*
X71927546Y-79209546D01*
X72013796Y-79094331D01*
X72064091Y-78959483D01*
X72070500Y-78899873D01*
X72070499Y-78104135D01*
X72709500Y-78104135D01*
X72709500Y-78899870D01*
X72709501Y-78899876D01*
X72715908Y-78959483D01*
X72766202Y-79094328D01*
X72766206Y-79094335D01*
X72852452Y-79209544D01*
X72852455Y-79209547D01*
X72967664Y-79295793D01*
X72967671Y-79295797D01*
X73102517Y-79346091D01*
X73102516Y-79346091D01*
X73109444Y-79346835D01*
X73162127Y-79352500D01*
X74157872Y-79352499D01*
X74217483Y-79346091D01*
X74352331Y-79295796D01*
X74467546Y-79209546D01*
X74553796Y-79094331D01*
X74604091Y-78959483D01*
X74610500Y-78899873D01*
X74610499Y-78104135D01*
X75249500Y-78104135D01*
X75249500Y-78899870D01*
X75249501Y-78899876D01*
X75255908Y-78959483D01*
X75306202Y-79094328D01*
X75306206Y-79094335D01*
X75392452Y-79209544D01*
X75392455Y-79209547D01*
X75507664Y-79295793D01*
X75507671Y-79295797D01*
X75642517Y-79346091D01*
X75642516Y-79346091D01*
X75649444Y-79346835D01*
X75702127Y-79352500D01*
X76697872Y-79352499D01*
X76757483Y-79346091D01*
X76892331Y-79295796D01*
X77007546Y-79209546D01*
X77093796Y-79094331D01*
X77144091Y-78959483D01*
X77150500Y-78899873D01*
X77150499Y-78104135D01*
X80329500Y-78104135D01*
X80329500Y-78899870D01*
X80329501Y-78899876D01*
X80335908Y-78959483D01*
X80386202Y-79094328D01*
X80386206Y-79094335D01*
X80472452Y-79209544D01*
X80472455Y-79209547D01*
X80587664Y-79295793D01*
X80587671Y-79295797D01*
X80722517Y-79346091D01*
X80722516Y-79346091D01*
X80729444Y-79346835D01*
X80782127Y-79352500D01*
X81777872Y-79352499D01*
X81837483Y-79346091D01*
X81972331Y-79295796D01*
X82087546Y-79209546D01*
X82173796Y-79094331D01*
X82224091Y-78959483D01*
X82230500Y-78899873D01*
X82230499Y-78104128D01*
X82224091Y-78044517D01*
X82173796Y-77909669D01*
X82173795Y-77909668D01*
X82173793Y-77909664D01*
X82087547Y-77794455D01*
X82087544Y-77794452D01*
X81972335Y-77708206D01*
X81972328Y-77708202D01*
X81837482Y-77657908D01*
X81837483Y-77657908D01*
X81777883Y-77651501D01*
X81777881Y-77651500D01*
X81777873Y-77651500D01*
X81777864Y-77651500D01*
X81774548Y-77651322D01*
X81774615Y-77650065D01*
X81712461Y-77631815D01*
X81666706Y-77579011D01*
X81655500Y-77527500D01*
X81655500Y-67507808D01*
X81675185Y-67440769D01*
X81727989Y-67395014D01*
X81797147Y-67385070D01*
X81860703Y-67414095D01*
X81867181Y-67420127D01*
X81881327Y-67434273D01*
X81881331Y-67434276D01*
X81987866Y-67505461D01*
X81987872Y-67505464D01*
X81987873Y-67505465D01*
X82106256Y-67554501D01*
X82106260Y-67554501D01*
X82106261Y-67554502D01*
X82231928Y-67579500D01*
X82364101Y-67579500D01*
X82431140Y-67599185D01*
X82451782Y-67615819D01*
X83408181Y-68572218D01*
X83441666Y-68633541D01*
X83444500Y-68659899D01*
X83444500Y-77527500D01*
X83424815Y-77594539D01*
X83372011Y-77640294D01*
X83325389Y-77650450D01*
X83325423Y-77651099D01*
X83325429Y-77651146D01*
X83325426Y-77651146D01*
X83325436Y-77651324D01*
X83322123Y-77651501D01*
X83262516Y-77657908D01*
X83127671Y-77708202D01*
X83127664Y-77708206D01*
X83012455Y-77794452D01*
X83012452Y-77794455D01*
X82926206Y-77909664D01*
X82926202Y-77909671D01*
X82875908Y-78044517D01*
X82869501Y-78104116D01*
X82869501Y-78104123D01*
X82869500Y-78104135D01*
X82869500Y-78899870D01*
X82869501Y-78899876D01*
X82875908Y-78959483D01*
X82926202Y-79094328D01*
X82926206Y-79094335D01*
X83012452Y-79209544D01*
X83012455Y-79209547D01*
X83127664Y-79295793D01*
X83127671Y-79295797D01*
X83262517Y-79346091D01*
X83262516Y-79346091D01*
X83269444Y-79346835D01*
X83322127Y-79352500D01*
X84317872Y-79352499D01*
X84377483Y-79346091D01*
X84512331Y-79295796D01*
X84627546Y-79209546D01*
X84713796Y-79094331D01*
X84764091Y-78959483D01*
X84770500Y-78899873D01*
X84770499Y-78104128D01*
X84764091Y-78044517D01*
X84713796Y-77909669D01*
X84713795Y-77909668D01*
X84713793Y-77909664D01*
X84627547Y-77794455D01*
X84627544Y-77794452D01*
X84512335Y-77708206D01*
X84512328Y-77708202D01*
X84377482Y-77657908D01*
X84377483Y-77657908D01*
X84317883Y-77651501D01*
X84317881Y-77651500D01*
X84317873Y-77651500D01*
X84317864Y-77651500D01*
X84314548Y-77651322D01*
X84314615Y-77650065D01*
X84252461Y-77631815D01*
X84206706Y-77579011D01*
X84195500Y-77527500D01*
X84195500Y-68403567D01*
X84195500Y-68403565D01*
X84169910Y-68308062D01*
X84133891Y-68245675D01*
X84117419Y-68177779D01*
X84140271Y-68111752D01*
X84195192Y-68068561D01*
X84264745Y-68061919D01*
X84326848Y-68093934D01*
X84328960Y-68095997D01*
X85948181Y-69715218D01*
X85981666Y-69776541D01*
X85984500Y-69802899D01*
X85984500Y-77527500D01*
X85964815Y-77594539D01*
X85912011Y-77640294D01*
X85865389Y-77650450D01*
X85865423Y-77651099D01*
X85865429Y-77651146D01*
X85865426Y-77651146D01*
X85865436Y-77651324D01*
X85862123Y-77651501D01*
X85802516Y-77657908D01*
X85667671Y-77708202D01*
X85667664Y-77708206D01*
X85552455Y-77794452D01*
X85552452Y-77794455D01*
X85466206Y-77909664D01*
X85466202Y-77909671D01*
X85415908Y-78044517D01*
X85409501Y-78104116D01*
X85409501Y-78104123D01*
X85409500Y-78104135D01*
X85409500Y-78899870D01*
X85409501Y-78899876D01*
X85415908Y-78959483D01*
X85466202Y-79094328D01*
X85466206Y-79094335D01*
X85552452Y-79209544D01*
X85552455Y-79209547D01*
X85667664Y-79295793D01*
X85667671Y-79295797D01*
X85802517Y-79346091D01*
X85802516Y-79346091D01*
X85809444Y-79346835D01*
X85862127Y-79352500D01*
X86857872Y-79352499D01*
X86917483Y-79346091D01*
X87052331Y-79295796D01*
X87167546Y-79209546D01*
X87253796Y-79094331D01*
X87304091Y-78959483D01*
X87310500Y-78899873D01*
X87310499Y-78104135D01*
X87949500Y-78104135D01*
X87949500Y-78899870D01*
X87949501Y-78899876D01*
X87955908Y-78959483D01*
X88006202Y-79094328D01*
X88006206Y-79094335D01*
X88092452Y-79209544D01*
X88092455Y-79209547D01*
X88207664Y-79295793D01*
X88207671Y-79295797D01*
X88342517Y-79346091D01*
X88342516Y-79346091D01*
X88349444Y-79346835D01*
X88402127Y-79352500D01*
X89397872Y-79352499D01*
X89457483Y-79346091D01*
X89592331Y-79295796D01*
X89707546Y-79209546D01*
X89793796Y-79094331D01*
X89844091Y-78959483D01*
X89850500Y-78899873D01*
X89850499Y-78104135D01*
X90489500Y-78104135D01*
X90489500Y-78899870D01*
X90489501Y-78899876D01*
X90495908Y-78959483D01*
X90546202Y-79094328D01*
X90546206Y-79094335D01*
X90632452Y-79209544D01*
X90632455Y-79209547D01*
X90747664Y-79295793D01*
X90747671Y-79295797D01*
X90882517Y-79346091D01*
X90882516Y-79346091D01*
X90889444Y-79346835D01*
X90942127Y-79352500D01*
X91937872Y-79352499D01*
X91997483Y-79346091D01*
X92132331Y-79295796D01*
X92247546Y-79209546D01*
X92333796Y-79094331D01*
X92384091Y-78959483D01*
X92390500Y-78899873D01*
X92390499Y-78104135D01*
X93029500Y-78104135D01*
X93029500Y-78899870D01*
X93029501Y-78899876D01*
X93035908Y-78959483D01*
X93086202Y-79094328D01*
X93086206Y-79094335D01*
X93172452Y-79209544D01*
X93172455Y-79209547D01*
X93287664Y-79295793D01*
X93287671Y-79295797D01*
X93422517Y-79346091D01*
X93422516Y-79346091D01*
X93429444Y-79346835D01*
X93482127Y-79352500D01*
X94477872Y-79352499D01*
X94537483Y-79346091D01*
X94672331Y-79295796D01*
X94787546Y-79209546D01*
X94873796Y-79094331D01*
X94924091Y-78959483D01*
X94930500Y-78899873D01*
X94930499Y-78104128D01*
X94924091Y-78044517D01*
X94873796Y-77909669D01*
X94873795Y-77909668D01*
X94873793Y-77909664D01*
X94787547Y-77794455D01*
X94787544Y-77794452D01*
X94672335Y-77708206D01*
X94672328Y-77708202D01*
X94537482Y-77657908D01*
X94537483Y-77657908D01*
X94477883Y-77651501D01*
X94477881Y-77651500D01*
X94477873Y-77651500D01*
X94477864Y-77651500D01*
X94474548Y-77651322D01*
X94474615Y-77650065D01*
X94412461Y-77631815D01*
X94366706Y-77579011D01*
X94355500Y-77527500D01*
X94355500Y-69048807D01*
X94375185Y-68981768D01*
X94391819Y-68961125D01*
X94394665Y-68958278D01*
X94394669Y-68958276D01*
X94485276Y-68867669D01*
X94556465Y-68761127D01*
X94605501Y-68642744D01*
X94619530Y-68572218D01*
X94630500Y-68517071D01*
X94630500Y-68388928D01*
X94605502Y-68263261D01*
X94605501Y-68263260D01*
X94605501Y-68263256D01*
X94556465Y-68144873D01*
X94556464Y-68144872D01*
X94556461Y-68144866D01*
X94485276Y-68038331D01*
X94485273Y-68038327D01*
X94394672Y-67947726D01*
X94394668Y-67947723D01*
X94288133Y-67876538D01*
X94288124Y-67876533D01*
X94169744Y-67827499D01*
X94169738Y-67827497D01*
X94044071Y-67802500D01*
X94044069Y-67802500D01*
X93915931Y-67802500D01*
X93915929Y-67802500D01*
X93790261Y-67827497D01*
X93790255Y-67827499D01*
X93671875Y-67876533D01*
X93671866Y-67876538D01*
X93565331Y-67947723D01*
X93565327Y-67947726D01*
X93474726Y-68038327D01*
X93474723Y-68038331D01*
X93403538Y-68144866D01*
X93403533Y-68144875D01*
X93354499Y-68263255D01*
X93354497Y-68263261D01*
X93331117Y-68380799D01*
X93298732Y-68442710D01*
X93282519Y-68451941D01*
X93290703Y-68455679D01*
X93328477Y-68514457D01*
X93331117Y-68525200D01*
X93354497Y-68642738D01*
X93354499Y-68642744D01*
X93403533Y-68761124D01*
X93403538Y-68761133D01*
X93474722Y-68867667D01*
X93474723Y-68867668D01*
X93474724Y-68867669D01*
X93565331Y-68958276D01*
X93565333Y-68958277D01*
X93568181Y-68961125D01*
X93601666Y-69022448D01*
X93604500Y-69048807D01*
X93604500Y-77527500D01*
X93584815Y-77594539D01*
X93532011Y-77640294D01*
X93485389Y-77650450D01*
X93485423Y-77651099D01*
X93485429Y-77651146D01*
X93485426Y-77651146D01*
X93485436Y-77651324D01*
X93482123Y-77651501D01*
X93422516Y-77657908D01*
X93287671Y-77708202D01*
X93287664Y-77708206D01*
X93172455Y-77794452D01*
X93172452Y-77794455D01*
X93086206Y-77909664D01*
X93086202Y-77909671D01*
X93035908Y-78044517D01*
X93029501Y-78104116D01*
X93029501Y-78104123D01*
X93029500Y-78104135D01*
X92390499Y-78104135D01*
X92390499Y-78104128D01*
X92384091Y-78044517D01*
X92333796Y-77909669D01*
X92333795Y-77909668D01*
X92333793Y-77909664D01*
X92247547Y-77794455D01*
X92247544Y-77794452D01*
X92132335Y-77708206D01*
X92132328Y-77708202D01*
X91997482Y-77657908D01*
X91997483Y-77657908D01*
X91937883Y-77651501D01*
X91937881Y-77651500D01*
X91937873Y-77651500D01*
X91937864Y-77651500D01*
X91934548Y-77651322D01*
X91934615Y-77650065D01*
X91872461Y-77631815D01*
X91826706Y-77579011D01*
X91815500Y-77527500D01*
X91815500Y-69048807D01*
X91835185Y-68981768D01*
X91851819Y-68961125D01*
X91854665Y-68958278D01*
X91854669Y-68958276D01*
X91945276Y-68867669D01*
X92016465Y-68761127D01*
X92065501Y-68642744D01*
X92079530Y-68572218D01*
X92086500Y-68537179D01*
X92086500Y-68537177D01*
X92090500Y-68517069D01*
X92090500Y-68388931D01*
X92086500Y-68368822D01*
X92086500Y-68368819D01*
X92065502Y-68263261D01*
X92065501Y-68263260D01*
X92065501Y-68263256D01*
X92016465Y-68144873D01*
X92016464Y-68144872D01*
X92016461Y-68144866D01*
X91945276Y-68038331D01*
X91945273Y-68038327D01*
X91854672Y-67947726D01*
X91854668Y-67947723D01*
X91748133Y-67876538D01*
X91748124Y-67876533D01*
X91629744Y-67827499D01*
X91629738Y-67827497D01*
X91504071Y-67802500D01*
X91504069Y-67802500D01*
X91375931Y-67802500D01*
X91375929Y-67802500D01*
X91250261Y-67827497D01*
X91250255Y-67827499D01*
X91131875Y-67876533D01*
X91131866Y-67876538D01*
X91025331Y-67947723D01*
X91025327Y-67947726D01*
X90934726Y-68038327D01*
X90934723Y-68038331D01*
X90863538Y-68144866D01*
X90863533Y-68144875D01*
X90814499Y-68263255D01*
X90814497Y-68263261D01*
X90791117Y-68380799D01*
X90758732Y-68442710D01*
X90742519Y-68451941D01*
X90750703Y-68455679D01*
X90788477Y-68514457D01*
X90791117Y-68525200D01*
X90814497Y-68642738D01*
X90814499Y-68642744D01*
X90863533Y-68761124D01*
X90863538Y-68761133D01*
X90934722Y-68867667D01*
X90934723Y-68867668D01*
X90934724Y-68867669D01*
X91025331Y-68958276D01*
X91025333Y-68958277D01*
X91028181Y-68961125D01*
X91061666Y-69022448D01*
X91064500Y-69048807D01*
X91064500Y-77527500D01*
X91044815Y-77594539D01*
X90992011Y-77640294D01*
X90945389Y-77650450D01*
X90945423Y-77651099D01*
X90945429Y-77651146D01*
X90945426Y-77651146D01*
X90945436Y-77651324D01*
X90942123Y-77651501D01*
X90882516Y-77657908D01*
X90747671Y-77708202D01*
X90747664Y-77708206D01*
X90632455Y-77794452D01*
X90632452Y-77794455D01*
X90546206Y-77909664D01*
X90546202Y-77909671D01*
X90495908Y-78044517D01*
X90489501Y-78104116D01*
X90489501Y-78104123D01*
X90489500Y-78104135D01*
X89850499Y-78104135D01*
X89850499Y-78104128D01*
X89844091Y-78044517D01*
X89793796Y-77909669D01*
X89793795Y-77909668D01*
X89793793Y-77909664D01*
X89707547Y-77794455D01*
X89707544Y-77794452D01*
X89592335Y-77708206D01*
X89592328Y-77708202D01*
X89457482Y-77657908D01*
X89457483Y-77657908D01*
X89397883Y-77651501D01*
X89397881Y-77651500D01*
X89397873Y-77651500D01*
X89397864Y-77651500D01*
X89394548Y-77651322D01*
X89394615Y-77650065D01*
X89332461Y-77631815D01*
X89286706Y-77579011D01*
X89275500Y-77527500D01*
X89275500Y-61047807D01*
X89295185Y-60980768D01*
X89311819Y-60960125D01*
X89314665Y-60957278D01*
X89314669Y-60957276D01*
X89405276Y-60866669D01*
X89476465Y-60760127D01*
X89525501Y-60641744D01*
X89550500Y-60516069D01*
X89550500Y-60387931D01*
X89546500Y-60367822D01*
X89546500Y-60367819D01*
X89525502Y-60262261D01*
X89525501Y-60262260D01*
X89525501Y-60262256D01*
X89478409Y-60148567D01*
X89476466Y-60143875D01*
X89476461Y-60143866D01*
X89405276Y-60037331D01*
X89405273Y-60037327D01*
X89314672Y-59946726D01*
X89314668Y-59946723D01*
X89208133Y-59875538D01*
X89208124Y-59875533D01*
X89089744Y-59826499D01*
X89089738Y-59826497D01*
X88964071Y-59801500D01*
X88964069Y-59801500D01*
X88835931Y-59801500D01*
X88835929Y-59801500D01*
X88710261Y-59826497D01*
X88710255Y-59826499D01*
X88591875Y-59875533D01*
X88591866Y-59875538D01*
X88485331Y-59946723D01*
X88485327Y-59946726D01*
X88394726Y-60037327D01*
X88394723Y-60037331D01*
X88323538Y-60143866D01*
X88323533Y-60143875D01*
X88274499Y-60262255D01*
X88274497Y-60262261D01*
X88254451Y-60363037D01*
X88254451Y-60363040D01*
X88249500Y-60387931D01*
X88249500Y-60516069D01*
X88274499Y-60641744D01*
X88276470Y-60646502D01*
X88323533Y-60760124D01*
X88323538Y-60760133D01*
X88394722Y-60866667D01*
X88394723Y-60866668D01*
X88394724Y-60866669D01*
X88485331Y-60957276D01*
X88485333Y-60957277D01*
X88488181Y-60960125D01*
X88521666Y-61021448D01*
X88524500Y-61047807D01*
X88524500Y-77527500D01*
X88504815Y-77594539D01*
X88452011Y-77640294D01*
X88405389Y-77650450D01*
X88405423Y-77651099D01*
X88405429Y-77651146D01*
X88405426Y-77651146D01*
X88405436Y-77651324D01*
X88402123Y-77651501D01*
X88342516Y-77657908D01*
X88207671Y-77708202D01*
X88207664Y-77708206D01*
X88092455Y-77794452D01*
X88092452Y-77794455D01*
X88006206Y-77909664D01*
X88006202Y-77909671D01*
X87955908Y-78044517D01*
X87949501Y-78104116D01*
X87949501Y-78104123D01*
X87949500Y-78104135D01*
X87310499Y-78104135D01*
X87310499Y-78104128D01*
X87304091Y-78044517D01*
X87253796Y-77909669D01*
X87253795Y-77909668D01*
X87253793Y-77909664D01*
X87167547Y-77794455D01*
X87167544Y-77794452D01*
X87052335Y-77708206D01*
X87052328Y-77708202D01*
X86917482Y-77657908D01*
X86917483Y-77657908D01*
X86857883Y-77651501D01*
X86857881Y-77651500D01*
X86857873Y-77651500D01*
X86857864Y-77651500D01*
X86854548Y-77651322D01*
X86854615Y-77650065D01*
X86792461Y-77631815D01*
X86746706Y-77579011D01*
X86735500Y-77527500D01*
X86735500Y-69546567D01*
X86735500Y-69546565D01*
X86709910Y-69451062D01*
X86660475Y-69365438D01*
X86590562Y-69295525D01*
X82982819Y-65687782D01*
X82949334Y-65626459D01*
X82946500Y-65600101D01*
X82946500Y-65467928D01*
X82921502Y-65342261D01*
X82921501Y-65342260D01*
X82921501Y-65342256D01*
X82874409Y-65228567D01*
X82872466Y-65223875D01*
X82872461Y-65223866D01*
X82801276Y-65117331D01*
X82801273Y-65117327D01*
X82710672Y-65026726D01*
X82710668Y-65026723D01*
X82604133Y-64955538D01*
X82604124Y-64955533D01*
X82485744Y-64906499D01*
X82485738Y-64906497D01*
X82360071Y-64881500D01*
X82360069Y-64881500D01*
X82231931Y-64881500D01*
X82231929Y-64881500D01*
X82106261Y-64906497D01*
X82106255Y-64906499D01*
X81987875Y-64955533D01*
X81987866Y-64955538D01*
X81881331Y-65026723D01*
X81881327Y-65026726D01*
X81867181Y-65040873D01*
X81805858Y-65074358D01*
X81736166Y-65069374D01*
X81680233Y-65027502D01*
X81655816Y-64962038D01*
X81655500Y-64953192D01*
X81655500Y-60412807D01*
X81675185Y-60345768D01*
X81691819Y-60325125D01*
X81694665Y-60322278D01*
X81694669Y-60322276D01*
X81785276Y-60231669D01*
X81856465Y-60125127D01*
X81905501Y-60006744D01*
X81919871Y-59934502D01*
X81930500Y-59881071D01*
X81930500Y-59752928D01*
X81905502Y-59627261D01*
X81905501Y-59627260D01*
X81905501Y-59627256D01*
X81858409Y-59513566D01*
X81856466Y-59508875D01*
X81856461Y-59508866D01*
X81785276Y-59402331D01*
X81785273Y-59402327D01*
X81694672Y-59311726D01*
X81694668Y-59311723D01*
X81588133Y-59240538D01*
X81588124Y-59240533D01*
X81469744Y-59191499D01*
X81469738Y-59191497D01*
X81344071Y-59166500D01*
X81344069Y-59166500D01*
X81215931Y-59166500D01*
X81215929Y-59166500D01*
X81090261Y-59191497D01*
X81090255Y-59191499D01*
X80971875Y-59240533D01*
X80971866Y-59240538D01*
X80865331Y-59311723D01*
X80865327Y-59311726D01*
X80774726Y-59402327D01*
X80774723Y-59402331D01*
X80703538Y-59508866D01*
X80703533Y-59508875D01*
X80654499Y-59627255D01*
X80654497Y-59627261D01*
X80629500Y-59752928D01*
X80629500Y-59752931D01*
X80629500Y-59881069D01*
X80629500Y-59881071D01*
X80629499Y-59881071D01*
X80654497Y-60006738D01*
X80654499Y-60006744D01*
X80703533Y-60125124D01*
X80703538Y-60125133D01*
X80774722Y-60231667D01*
X80774723Y-60231668D01*
X80774724Y-60231669D01*
X80865331Y-60322276D01*
X80865333Y-60322277D01*
X80868181Y-60325125D01*
X80901666Y-60386448D01*
X80904500Y-60412807D01*
X80904500Y-62641607D01*
X80884815Y-62708646D01*
X80850622Y-62738273D01*
X80878425Y-62758322D01*
X80904007Y-62823340D01*
X80904500Y-62834392D01*
X80904500Y-77527500D01*
X80884815Y-77594539D01*
X80832011Y-77640294D01*
X80785389Y-77650450D01*
X80785423Y-77651099D01*
X80785429Y-77651146D01*
X80785426Y-77651146D01*
X80785436Y-77651324D01*
X80782123Y-77651501D01*
X80722516Y-77657908D01*
X80587671Y-77708202D01*
X80587664Y-77708206D01*
X80472455Y-77794452D01*
X80472452Y-77794455D01*
X80386206Y-77909664D01*
X80386202Y-77909671D01*
X80335908Y-78044517D01*
X80329501Y-78104116D01*
X80329501Y-78104123D01*
X80329500Y-78104135D01*
X77150499Y-78104135D01*
X77150499Y-78104128D01*
X77144091Y-78044517D01*
X77093796Y-77909669D01*
X77093795Y-77909668D01*
X77093793Y-77909664D01*
X77007547Y-77794455D01*
X77007544Y-77794452D01*
X76892335Y-77708206D01*
X76892328Y-77708202D01*
X76757482Y-77657908D01*
X76757483Y-77657908D01*
X76697883Y-77651501D01*
X76697881Y-77651500D01*
X76697873Y-77651500D01*
X76697864Y-77651500D01*
X76694548Y-77651322D01*
X76694615Y-77650065D01*
X76632461Y-77631815D01*
X76586706Y-77579011D01*
X76575500Y-77527500D01*
X76575500Y-72596898D01*
X76595185Y-72529859D01*
X76611814Y-72509222D01*
X78584217Y-70536818D01*
X78645540Y-70503334D01*
X78671898Y-70500500D01*
X78804071Y-70500500D01*
X78888615Y-70483682D01*
X78929744Y-70475501D01*
X79048127Y-70426465D01*
X79154669Y-70355276D01*
X79245276Y-70264669D01*
X79316465Y-70158127D01*
X79365501Y-70039744D01*
X79376363Y-69985139D01*
X79386500Y-69934179D01*
X79386500Y-69934177D01*
X79390500Y-69914069D01*
X79390500Y-69785931D01*
X79386500Y-69765822D01*
X79386500Y-69765819D01*
X79365502Y-69660261D01*
X79365501Y-69660260D01*
X79365501Y-69660256D01*
X79318409Y-69546567D01*
X79316466Y-69541875D01*
X79316461Y-69541866D01*
X79245276Y-69435331D01*
X79245273Y-69435327D01*
X79154672Y-69344726D01*
X79154668Y-69344723D01*
X79048133Y-69273538D01*
X79048124Y-69273533D01*
X78929744Y-69224499D01*
X78929738Y-69224497D01*
X78804071Y-69199500D01*
X78804069Y-69199500D01*
X78675931Y-69199500D01*
X78675929Y-69199500D01*
X78550261Y-69224497D01*
X78550255Y-69224499D01*
X78431875Y-69273533D01*
X78431866Y-69273538D01*
X78325331Y-69344723D01*
X78325327Y-69344726D01*
X78234726Y-69435327D01*
X78234723Y-69435331D01*
X78163538Y-69541866D01*
X78163533Y-69541875D01*
X78114499Y-69660255D01*
X78114497Y-69660261D01*
X78089500Y-69785928D01*
X78089500Y-69918100D01*
X78069815Y-69985139D01*
X78053181Y-70005781D01*
X75969438Y-72089525D01*
X75899526Y-72159436D01*
X75850091Y-72245059D01*
X75850091Y-72245060D01*
X75850090Y-72245062D01*
X75824500Y-72340565D01*
X75824500Y-72340567D01*
X75824500Y-77527500D01*
X75804815Y-77594539D01*
X75752011Y-77640294D01*
X75705389Y-77650450D01*
X75705423Y-77651099D01*
X75705429Y-77651146D01*
X75705426Y-77651146D01*
X75705436Y-77651324D01*
X75702123Y-77651501D01*
X75642516Y-77657908D01*
X75507671Y-77708202D01*
X75507664Y-77708206D01*
X75392455Y-77794452D01*
X75392452Y-77794455D01*
X75306206Y-77909664D01*
X75306202Y-77909671D01*
X75255908Y-78044517D01*
X75249501Y-78104116D01*
X75249501Y-78104123D01*
X75249500Y-78104135D01*
X74610499Y-78104135D01*
X74610499Y-78104128D01*
X74604091Y-78044517D01*
X74553796Y-77909669D01*
X74553795Y-77909668D01*
X74553793Y-77909664D01*
X74467547Y-77794455D01*
X74467544Y-77794452D01*
X74352335Y-77708206D01*
X74352328Y-77708202D01*
X74217482Y-77657908D01*
X74217483Y-77657908D01*
X74157883Y-77651501D01*
X74157881Y-77651500D01*
X74157873Y-77651500D01*
X74157864Y-77651500D01*
X74154548Y-77651322D01*
X74154615Y-77650065D01*
X74092461Y-77631815D01*
X74046706Y-77579011D01*
X74035500Y-77527500D01*
X74035500Y-62802071D01*
X79359499Y-62802071D01*
X79384497Y-62927738D01*
X79384499Y-62927744D01*
X79433533Y-63046124D01*
X79433538Y-63046133D01*
X79504722Y-63152667D01*
X79504723Y-63152668D01*
X79504724Y-63152669D01*
X79595331Y-63243276D01*
X79595333Y-63243277D01*
X79598181Y-63246125D01*
X79631666Y-63307448D01*
X79634500Y-63333807D01*
X79634500Y-73064192D01*
X79614815Y-73131231D01*
X79598181Y-73151873D01*
X79504726Y-73245327D01*
X79504723Y-73245331D01*
X79433538Y-73351866D01*
X79433533Y-73351875D01*
X79384499Y-73470255D01*
X79384497Y-73470261D01*
X79359500Y-73595928D01*
X79359500Y-73595931D01*
X79359500Y-73724069D01*
X79359500Y-73724071D01*
X79359499Y-73724071D01*
X79384497Y-73849738D01*
X79384499Y-73849744D01*
X79433533Y-73968124D01*
X79433538Y-73968133D01*
X79504723Y-74074668D01*
X79504726Y-74074672D01*
X79595327Y-74165273D01*
X79595331Y-74165276D01*
X79701866Y-74236461D01*
X79701875Y-74236466D01*
X79714550Y-74241716D01*
X79820256Y-74285501D01*
X79820260Y-74285501D01*
X79820261Y-74285502D01*
X79945928Y-74310500D01*
X79945931Y-74310500D01*
X80074071Y-74310500D01*
X80158615Y-74293682D01*
X80199744Y-74285501D01*
X80318127Y-74236465D01*
X80424669Y-74165276D01*
X80515276Y-74074669D01*
X80586465Y-73968127D01*
X80635501Y-73849744D01*
X80660500Y-73724069D01*
X80660500Y-73595931D01*
X80656500Y-73575822D01*
X80656500Y-73575819D01*
X80635502Y-73470261D01*
X80635501Y-73470260D01*
X80635501Y-73470256D01*
X80597574Y-73378692D01*
X80586466Y-73351875D01*
X80586461Y-73351866D01*
X80515276Y-73245331D01*
X80515273Y-73245327D01*
X80421819Y-73151873D01*
X80388334Y-73090550D01*
X80385500Y-73064192D01*
X80385500Y-63333807D01*
X80405185Y-63266768D01*
X80421819Y-63246125D01*
X80424665Y-63243278D01*
X80424669Y-63243276D01*
X80515276Y-63152669D01*
X80586465Y-63046127D01*
X80635501Y-62927744D01*
X80648524Y-62862273D01*
X80658883Y-62810200D01*
X80691268Y-62748289D01*
X80707480Y-62739057D01*
X80699297Y-62735320D01*
X80661523Y-62676542D01*
X80658883Y-62665799D01*
X80635502Y-62548261D01*
X80635501Y-62548260D01*
X80635501Y-62548256D01*
X80586465Y-62429873D01*
X80586464Y-62429872D01*
X80586461Y-62429866D01*
X80515276Y-62323331D01*
X80515273Y-62323327D01*
X80424672Y-62232726D01*
X80424668Y-62232723D01*
X80318133Y-62161538D01*
X80318124Y-62161533D01*
X80199744Y-62112499D01*
X80199738Y-62112497D01*
X80074071Y-62087500D01*
X80074069Y-62087500D01*
X79945931Y-62087500D01*
X79945929Y-62087500D01*
X79820261Y-62112497D01*
X79820255Y-62112499D01*
X79701875Y-62161533D01*
X79701866Y-62161538D01*
X79595331Y-62232723D01*
X79595327Y-62232726D01*
X79504726Y-62323327D01*
X79504723Y-62323331D01*
X79433538Y-62429866D01*
X79433533Y-62429875D01*
X79384499Y-62548255D01*
X79384497Y-62548261D01*
X79359500Y-62673928D01*
X79359500Y-62673931D01*
X79359500Y-62802069D01*
X79359500Y-62802071D01*
X79359499Y-62802071D01*
X74035500Y-62802071D01*
X74035500Y-61547898D01*
X74055185Y-61480859D01*
X74071814Y-61460222D01*
X76552217Y-58979818D01*
X76613540Y-58946334D01*
X76639898Y-58943500D01*
X76772071Y-58943500D01*
X76863700Y-58925273D01*
X76897744Y-58918501D01*
X77016127Y-58869465D01*
X77122669Y-58798276D01*
X77213276Y-58707669D01*
X77284465Y-58601127D01*
X77333501Y-58482744D01*
X77345440Y-58422723D01*
X77358500Y-58357071D01*
X77358500Y-58228928D01*
X77333502Y-58103261D01*
X77333501Y-58103260D01*
X77333501Y-58103256D01*
X77284465Y-57984873D01*
X77284464Y-57984872D01*
X77284461Y-57984866D01*
X77213276Y-57878331D01*
X77213273Y-57878327D01*
X77122672Y-57787726D01*
X77122668Y-57787723D01*
X77016133Y-57716538D01*
X77016124Y-57716533D01*
X76897744Y-57667499D01*
X76897738Y-57667497D01*
X76772071Y-57642500D01*
X76772069Y-57642500D01*
X76643931Y-57642500D01*
X76643929Y-57642500D01*
X76518261Y-57667497D01*
X76518255Y-57667499D01*
X76399875Y-57716533D01*
X76399866Y-57716538D01*
X76293331Y-57787723D01*
X76293327Y-57787726D01*
X76202726Y-57878327D01*
X76202723Y-57878331D01*
X76131538Y-57984866D01*
X76131533Y-57984875D01*
X76082499Y-58103255D01*
X76082497Y-58103261D01*
X76057500Y-58228928D01*
X76057500Y-58361100D01*
X76037815Y-58428139D01*
X76021181Y-58448781D01*
X73429438Y-61040525D01*
X73359526Y-61110436D01*
X73310091Y-61196059D01*
X73310091Y-61196060D01*
X73310090Y-61196062D01*
X73284500Y-61291565D01*
X73284500Y-61291567D01*
X73284500Y-77527500D01*
X73264815Y-77594539D01*
X73212011Y-77640294D01*
X73165389Y-77650450D01*
X73165423Y-77651099D01*
X73165429Y-77651146D01*
X73165426Y-77651146D01*
X73165436Y-77651324D01*
X73162123Y-77651501D01*
X73102516Y-77657908D01*
X72967671Y-77708202D01*
X72967664Y-77708206D01*
X72852455Y-77794452D01*
X72852452Y-77794455D01*
X72766206Y-77909664D01*
X72766202Y-77909671D01*
X72715908Y-78044517D01*
X72709501Y-78104116D01*
X72709501Y-78104123D01*
X72709500Y-78104135D01*
X72070499Y-78104135D01*
X72070499Y-78104128D01*
X72064091Y-78044517D01*
X72013796Y-77909669D01*
X72013795Y-77909668D01*
X72013793Y-77909664D01*
X71927547Y-77794455D01*
X71927544Y-77794452D01*
X71812335Y-77708206D01*
X71812328Y-77708202D01*
X71677482Y-77657908D01*
X71677483Y-77657908D01*
X71617883Y-77651501D01*
X71617881Y-77651500D01*
X71617873Y-77651500D01*
X71617864Y-77651500D01*
X71614548Y-77651322D01*
X71614615Y-77650065D01*
X71552461Y-77631815D01*
X71506706Y-77579011D01*
X71495500Y-77527500D01*
X71495500Y-70445807D01*
X71515185Y-70378768D01*
X71531819Y-70358125D01*
X71534665Y-70355278D01*
X71534669Y-70355276D01*
X71625276Y-70264669D01*
X71696465Y-70158127D01*
X71745501Y-70039744D01*
X71756363Y-69985139D01*
X71770500Y-69914071D01*
X71770500Y-69785928D01*
X71745502Y-69660261D01*
X71745501Y-69660260D01*
X71745501Y-69660256D01*
X71698409Y-69546567D01*
X71696466Y-69541875D01*
X71696461Y-69541866D01*
X71625276Y-69435331D01*
X71625273Y-69435327D01*
X71534672Y-69344726D01*
X71534668Y-69344723D01*
X71428133Y-69273538D01*
X71428124Y-69273533D01*
X71309744Y-69224499D01*
X71309738Y-69224497D01*
X71184071Y-69199500D01*
X71184069Y-69199500D01*
X71055931Y-69199500D01*
X71055929Y-69199500D01*
X70930261Y-69224497D01*
X70930255Y-69224499D01*
X70811875Y-69273533D01*
X70811866Y-69273538D01*
X70705331Y-69344723D01*
X70705327Y-69344726D01*
X70614726Y-69435327D01*
X70614723Y-69435331D01*
X70543538Y-69541866D01*
X70543533Y-69541875D01*
X70494499Y-69660255D01*
X70494497Y-69660261D01*
X70469500Y-69785928D01*
X70469500Y-69785931D01*
X70469500Y-69914069D01*
X70469500Y-69914071D01*
X70469499Y-69914071D01*
X70494497Y-70039738D01*
X70494499Y-70039744D01*
X70543533Y-70158124D01*
X70543538Y-70158133D01*
X70614722Y-70264667D01*
X70614723Y-70264668D01*
X70614724Y-70264669D01*
X70705331Y-70355276D01*
X70705333Y-70355277D01*
X70708181Y-70358125D01*
X70741666Y-70419448D01*
X70744500Y-70445807D01*
X70744500Y-77527500D01*
X70724815Y-77594539D01*
X70672011Y-77640294D01*
X70625389Y-77650450D01*
X70625423Y-77651099D01*
X70625429Y-77651146D01*
X70625426Y-77651146D01*
X70625436Y-77651324D01*
X70622123Y-77651501D01*
X70562516Y-77657908D01*
X70427671Y-77708202D01*
X70427664Y-77708206D01*
X70312455Y-77794452D01*
X70312452Y-77794455D01*
X70226206Y-77909664D01*
X70226202Y-77909671D01*
X70175908Y-78044517D01*
X70169501Y-78104116D01*
X70169501Y-78104123D01*
X70169500Y-78104135D01*
X69530499Y-78104135D01*
X69530499Y-78104128D01*
X69524091Y-78044517D01*
X69473796Y-77909669D01*
X69473795Y-77909668D01*
X69473793Y-77909664D01*
X69387547Y-77794455D01*
X69387544Y-77794452D01*
X69272335Y-77708206D01*
X69272328Y-77708202D01*
X69137482Y-77657908D01*
X69137483Y-77657908D01*
X69077883Y-77651501D01*
X69077881Y-77651500D01*
X69077873Y-77651500D01*
X69077864Y-77651500D01*
X69074548Y-77651322D01*
X69074615Y-77650065D01*
X69012461Y-77631815D01*
X68966706Y-77579011D01*
X68955500Y-77527500D01*
X68955500Y-70691899D01*
X68975185Y-70624860D01*
X68991819Y-70604218D01*
X69844500Y-69751537D01*
X70785475Y-68810563D01*
X70822866Y-68745799D01*
X70834910Y-68724938D01*
X70860500Y-68629435D01*
X70860500Y-59132565D01*
X70834910Y-59037062D01*
X70834908Y-59037059D01*
X70834908Y-59037057D01*
X70834907Y-59037056D01*
X70803194Y-58982128D01*
X70803191Y-58982123D01*
X70785477Y-58951439D01*
X70785473Y-58951434D01*
X70282819Y-58448780D01*
X70249334Y-58387457D01*
X70246500Y-58361099D01*
X70246500Y-58228928D01*
X70221502Y-58103261D01*
X70221501Y-58103260D01*
X70221501Y-58103256D01*
X70172465Y-57984873D01*
X70172464Y-57984872D01*
X70172461Y-57984866D01*
X70101276Y-57878331D01*
X70101273Y-57878327D01*
X70010672Y-57787726D01*
X70010668Y-57787723D01*
X69904133Y-57716538D01*
X69904124Y-57716533D01*
X69785744Y-57667499D01*
X69785738Y-57667497D01*
X69660071Y-57642500D01*
X69660069Y-57642500D01*
X69531931Y-57642500D01*
X69531929Y-57642500D01*
X69406261Y-57667497D01*
X69406255Y-57667499D01*
X69287875Y-57716533D01*
X69287866Y-57716538D01*
X69181331Y-57787723D01*
X69181327Y-57787726D01*
X69090726Y-57878327D01*
X69090723Y-57878331D01*
X69019538Y-57984866D01*
X69019533Y-57984875D01*
X68970499Y-58103255D01*
X68970497Y-58103261D01*
X68945500Y-58228928D01*
X68945500Y-58228931D01*
X68945500Y-58357069D01*
X68945500Y-58357071D01*
X68945499Y-58357071D01*
X68970497Y-58482738D01*
X68970499Y-58482744D01*
X69019533Y-58601124D01*
X69019538Y-58601133D01*
X69090723Y-58707668D01*
X69090726Y-58707672D01*
X69181327Y-58798273D01*
X69181331Y-58798276D01*
X69287866Y-58869461D01*
X69287872Y-58869464D01*
X69287873Y-58869465D01*
X69406256Y-58918501D01*
X69406260Y-58918501D01*
X69406261Y-58918502D01*
X69531928Y-58943500D01*
X69664100Y-58943500D01*
X69731139Y-58963185D01*
X69751781Y-58979819D01*
X70073181Y-59301218D01*
X70106666Y-59362541D01*
X70109500Y-59388899D01*
X70109500Y-67527772D01*
X70089815Y-67594811D01*
X70037011Y-67640566D01*
X69967853Y-67650510D01*
X69916611Y-67630876D01*
X69904129Y-67622536D01*
X69904124Y-67622533D01*
X69785744Y-67573499D01*
X69785738Y-67573497D01*
X69660071Y-67548500D01*
X69660069Y-67548500D01*
X69531931Y-67548500D01*
X69531929Y-67548500D01*
X69406261Y-67573497D01*
X69406255Y-67573499D01*
X69287875Y-67622533D01*
X69287870Y-67622536D01*
X69275389Y-67630876D01*
X69208711Y-67651752D01*
X69141331Y-67633266D01*
X69094642Y-67581286D01*
X69082500Y-67527772D01*
X69082500Y-59386565D01*
X69078090Y-59370108D01*
X69067995Y-59332433D01*
X69061135Y-59306830D01*
X69061135Y-59306829D01*
X69056910Y-59291062D01*
X69011893Y-59213090D01*
X69007475Y-59205437D01*
X68504819Y-58702781D01*
X68471334Y-58641458D01*
X68468500Y-58615100D01*
X68468500Y-58482928D01*
X68443502Y-58357261D01*
X68443501Y-58357260D01*
X68443501Y-58357256D01*
X68394465Y-58238873D01*
X68394464Y-58238872D01*
X68394461Y-58238866D01*
X68323276Y-58132331D01*
X68323273Y-58132327D01*
X68232672Y-58041726D01*
X68232668Y-58041723D01*
X68126133Y-57970538D01*
X68126124Y-57970533D01*
X68007744Y-57921499D01*
X68007738Y-57921497D01*
X67882071Y-57896500D01*
X67882069Y-57896500D01*
X67753931Y-57896500D01*
X67753929Y-57896500D01*
X67628261Y-57921497D01*
X67628255Y-57921499D01*
X67509875Y-57970533D01*
X67509866Y-57970538D01*
X67403331Y-58041723D01*
X67403327Y-58041726D01*
X67312726Y-58132327D01*
X67312723Y-58132331D01*
X67241538Y-58238866D01*
X67241533Y-58238875D01*
X67192499Y-58357255D01*
X67192497Y-58357261D01*
X67171500Y-58462819D01*
X67171500Y-58462822D01*
X67167500Y-58482931D01*
X67167500Y-58611069D01*
X67171500Y-58631177D01*
X67171500Y-58631179D01*
X67192497Y-58736738D01*
X67192499Y-58736744D01*
X67241533Y-58855124D01*
X67241538Y-58855133D01*
X67312723Y-58961668D01*
X67312726Y-58961672D01*
X67403327Y-59052273D01*
X67403331Y-59052276D01*
X67509866Y-59123461D01*
X67509872Y-59123464D01*
X67509873Y-59123465D01*
X67628256Y-59172501D01*
X67628260Y-59172501D01*
X67628261Y-59172502D01*
X67753928Y-59197500D01*
X67886100Y-59197500D01*
X67953139Y-59217185D01*
X67973781Y-59233819D01*
X68295181Y-59555218D01*
X68328666Y-59616541D01*
X68331500Y-59642899D01*
X68331500Y-67273772D01*
X68311815Y-67340811D01*
X68259011Y-67386566D01*
X68189853Y-67396510D01*
X68138611Y-67376876D01*
X68126129Y-67368536D01*
X68126124Y-67368533D01*
X68007744Y-67319499D01*
X68007738Y-67319497D01*
X67882071Y-67294500D01*
X67882069Y-67294500D01*
X67753931Y-67294500D01*
X67753929Y-67294500D01*
X67628261Y-67319497D01*
X67628255Y-67319499D01*
X67509875Y-67368533D01*
X67509866Y-67368538D01*
X67403331Y-67439723D01*
X67403327Y-67439726D01*
X67312726Y-67530327D01*
X67312723Y-67530331D01*
X67241538Y-67636866D01*
X67241533Y-67636875D01*
X67192499Y-67755255D01*
X67192497Y-67755261D01*
X67167500Y-67880928D01*
X67167500Y-68013100D01*
X67147815Y-68080139D01*
X67131181Y-68100781D01*
X60729438Y-74502525D01*
X60659526Y-74572436D01*
X60610091Y-74658059D01*
X60610091Y-74658060D01*
X60610090Y-74658062D01*
X60584500Y-74753565D01*
X60584500Y-74753567D01*
X60584500Y-77527500D01*
X60564815Y-77594539D01*
X60512011Y-77640294D01*
X60465389Y-77650450D01*
X60465423Y-77651099D01*
X60465429Y-77651146D01*
X60465426Y-77651146D01*
X60465436Y-77651324D01*
X60462123Y-77651501D01*
X60402516Y-77657908D01*
X60267671Y-77708202D01*
X60267664Y-77708206D01*
X60152455Y-77794452D01*
X60152452Y-77794455D01*
X60066206Y-77909664D01*
X60066202Y-77909671D01*
X60015908Y-78044517D01*
X60009501Y-78104116D01*
X60009501Y-78104123D01*
X60009500Y-78104135D01*
X59370499Y-78104135D01*
X59370499Y-78104128D01*
X59364091Y-78044517D01*
X59313796Y-77909669D01*
X59313795Y-77909668D01*
X59313793Y-77909664D01*
X59227547Y-77794455D01*
X59227544Y-77794452D01*
X59112335Y-77708206D01*
X59112328Y-77708202D01*
X58977482Y-77657908D01*
X58977483Y-77657908D01*
X58917883Y-77651501D01*
X58917881Y-77651500D01*
X58917873Y-77651500D01*
X58917864Y-77651500D01*
X58914548Y-77651322D01*
X58914615Y-77650065D01*
X58852461Y-77631815D01*
X58806706Y-77579011D01*
X58795500Y-77527500D01*
X58795500Y-74501899D01*
X58815185Y-74434860D01*
X58831819Y-74414218D01*
X61371820Y-71874217D01*
X63927474Y-69318563D01*
X63940775Y-69295525D01*
X63953470Y-69273538D01*
X63976907Y-69232943D01*
X63976908Y-69232942D01*
X63976908Y-69232940D01*
X63976910Y-69232938D01*
X64002500Y-69137435D01*
X64002500Y-64326071D01*
X66151499Y-64326071D01*
X66176497Y-64451738D01*
X66176499Y-64451744D01*
X66225533Y-64570124D01*
X66225538Y-64570133D01*
X66296723Y-64676668D01*
X66296726Y-64676672D01*
X66387327Y-64767273D01*
X66387331Y-64767276D01*
X66493866Y-64838461D01*
X66493872Y-64838464D01*
X66493873Y-64838465D01*
X66612256Y-64887501D01*
X66612260Y-64887501D01*
X66612261Y-64887502D01*
X66737928Y-64912500D01*
X66737931Y-64912500D01*
X66866071Y-64912500D01*
X66971640Y-64891500D01*
X66991744Y-64887501D01*
X67110127Y-64838465D01*
X67216669Y-64767276D01*
X67307276Y-64676669D01*
X67378465Y-64570127D01*
X67427501Y-64451744D01*
X67435682Y-64410615D01*
X67452500Y-64326071D01*
X67452500Y-64197928D01*
X67427502Y-64072261D01*
X67427501Y-64072260D01*
X67427501Y-64072256D01*
X67378465Y-63953873D01*
X67378464Y-63953872D01*
X67378461Y-63953866D01*
X67307276Y-63847331D01*
X67307273Y-63847327D01*
X67216672Y-63756726D01*
X67216668Y-63756723D01*
X67110133Y-63685538D01*
X67110123Y-63685533D01*
X67000047Y-63639938D01*
X66945644Y-63596097D01*
X66923579Y-63529803D01*
X66923500Y-63525377D01*
X66923500Y-57102899D01*
X66943185Y-57035860D01*
X66959819Y-57015218D01*
X68699218Y-55275819D01*
X68760541Y-55242334D01*
X68786899Y-55239500D01*
X82208192Y-55239500D01*
X82237626Y-55248143D01*
X82267616Y-55254666D01*
X82272634Y-55258422D01*
X82275231Y-55259185D01*
X82295871Y-55275817D01*
X82317179Y-55297124D01*
X82350666Y-55358446D01*
X82353500Y-55384807D01*
X82353500Y-58026192D01*
X82333815Y-58093231D01*
X82317181Y-58113873D01*
X82298726Y-58132327D01*
X82298723Y-58132331D01*
X82227538Y-58238866D01*
X82227533Y-58238875D01*
X82178499Y-58357255D01*
X82178497Y-58357261D01*
X82153500Y-58482928D01*
X82153500Y-58482931D01*
X82153500Y-58611069D01*
X82153500Y-58611071D01*
X82153499Y-58611071D01*
X82178497Y-58736738D01*
X82178499Y-58736744D01*
X82227533Y-58855124D01*
X82227538Y-58855133D01*
X82298723Y-58961668D01*
X82298725Y-58961671D01*
X82317179Y-58980124D01*
X82350666Y-59041446D01*
X82353500Y-59067807D01*
X82353500Y-62471192D01*
X82333815Y-62538231D01*
X82317181Y-62558873D01*
X82298726Y-62577327D01*
X82298723Y-62577331D01*
X82227538Y-62683866D01*
X82227533Y-62683875D01*
X82178499Y-62802255D01*
X82178497Y-62802261D01*
X82153500Y-62927928D01*
X82153500Y-62927931D01*
X82153500Y-63056069D01*
X82153500Y-63056071D01*
X82153499Y-63056071D01*
X82178497Y-63181738D01*
X82178499Y-63181744D01*
X82227533Y-63300124D01*
X82227538Y-63300133D01*
X82298723Y-63406668D01*
X82298726Y-63406672D01*
X82389327Y-63497273D01*
X82389331Y-63497276D01*
X82495866Y-63568461D01*
X82495872Y-63568464D01*
X82495873Y-63568465D01*
X82614256Y-63617501D01*
X82614260Y-63617501D01*
X82614261Y-63617502D01*
X82739928Y-63642500D01*
X82739931Y-63642500D01*
X82868071Y-63642500D01*
X82966481Y-63622924D01*
X82993744Y-63617501D01*
X83112127Y-63568465D01*
X83218669Y-63497276D01*
X83309276Y-63406669D01*
X83380465Y-63300127D01*
X83429501Y-63181744D01*
X83454500Y-63056069D01*
X83454500Y-62927931D01*
X83454500Y-62927928D01*
X83429502Y-62802261D01*
X83429501Y-62802260D01*
X83429501Y-62802256D01*
X83380465Y-62683873D01*
X83380464Y-62683872D01*
X83380461Y-62683866D01*
X83309276Y-62577331D01*
X83309273Y-62577327D01*
X83290819Y-62558873D01*
X83257334Y-62497550D01*
X83254500Y-62471192D01*
X83254500Y-59067807D01*
X83274185Y-59000768D01*
X83281193Y-58992071D01*
X86979499Y-58992071D01*
X87004497Y-59117738D01*
X87004499Y-59117744D01*
X87053533Y-59236124D01*
X87053538Y-59236133D01*
X87124722Y-59342667D01*
X87124723Y-59342668D01*
X87124724Y-59342669D01*
X87215331Y-59433276D01*
X87215333Y-59433277D01*
X87218181Y-59436125D01*
X87251666Y-59497448D01*
X87254500Y-59523807D01*
X87254500Y-75477192D01*
X87234815Y-75544231D01*
X87218181Y-75564873D01*
X87124726Y-75658327D01*
X87124723Y-75658331D01*
X87053538Y-75764866D01*
X87053533Y-75764875D01*
X87004499Y-75883255D01*
X87004497Y-75883261D01*
X86983500Y-75988819D01*
X86983500Y-75988822D01*
X86979500Y-76008931D01*
X86979500Y-76137069D01*
X86983500Y-76157177D01*
X86983500Y-76157179D01*
X87004497Y-76262738D01*
X87004499Y-76262744D01*
X87053533Y-76381124D01*
X87053538Y-76381133D01*
X87124723Y-76487668D01*
X87124726Y-76487672D01*
X87215327Y-76578273D01*
X87215331Y-76578276D01*
X87321866Y-76649461D01*
X87321872Y-76649464D01*
X87321873Y-76649465D01*
X87440256Y-76698501D01*
X87440260Y-76698501D01*
X87440261Y-76698502D01*
X87565928Y-76723500D01*
X87565931Y-76723500D01*
X87694071Y-76723500D01*
X87778615Y-76706682D01*
X87819744Y-76698501D01*
X87938127Y-76649465D01*
X88044669Y-76578276D01*
X88135276Y-76487669D01*
X88206465Y-76381127D01*
X88255501Y-76262744D01*
X88280500Y-76137069D01*
X88280500Y-76008931D01*
X88276500Y-75988822D01*
X88276500Y-75988819D01*
X88255502Y-75883261D01*
X88255501Y-75883260D01*
X88255501Y-75883256D01*
X88206465Y-75764873D01*
X88206464Y-75764872D01*
X88206461Y-75764866D01*
X88135276Y-75658331D01*
X88135273Y-75658327D01*
X88041819Y-75564873D01*
X88008334Y-75503550D01*
X88005500Y-75477192D01*
X88005500Y-59523807D01*
X88025185Y-59456768D01*
X88041819Y-59436125D01*
X88044665Y-59433278D01*
X88044669Y-59433276D01*
X88135276Y-59342669D01*
X88206465Y-59236127D01*
X88255501Y-59117744D01*
X88269871Y-59045502D01*
X88280500Y-58992071D01*
X89519499Y-58992071D01*
X89544497Y-59117738D01*
X89544499Y-59117744D01*
X89593533Y-59236124D01*
X89593538Y-59236133D01*
X89664722Y-59342667D01*
X89664723Y-59342668D01*
X89664724Y-59342669D01*
X89755331Y-59433276D01*
X89755333Y-59433277D01*
X89758181Y-59436125D01*
X89791666Y-59497448D01*
X89794500Y-59523807D01*
X89794500Y-75477192D01*
X89774815Y-75544231D01*
X89758181Y-75564873D01*
X89664726Y-75658327D01*
X89664723Y-75658331D01*
X89593538Y-75764866D01*
X89593533Y-75764875D01*
X89544499Y-75883255D01*
X89544497Y-75883261D01*
X89523500Y-75988819D01*
X89523500Y-75988822D01*
X89519500Y-76008931D01*
X89519500Y-76137069D01*
X89523500Y-76157177D01*
X89523500Y-76157179D01*
X89544497Y-76262738D01*
X89544499Y-76262744D01*
X89593533Y-76381124D01*
X89593538Y-76381133D01*
X89664723Y-76487668D01*
X89664726Y-76487672D01*
X89755327Y-76578273D01*
X89755331Y-76578276D01*
X89861866Y-76649461D01*
X89861872Y-76649464D01*
X89861873Y-76649465D01*
X89980256Y-76698501D01*
X89980260Y-76698501D01*
X89980261Y-76698502D01*
X90105928Y-76723500D01*
X90105931Y-76723500D01*
X90234071Y-76723500D01*
X90318615Y-76706682D01*
X90359744Y-76698501D01*
X90478127Y-76649465D01*
X90584669Y-76578276D01*
X90675276Y-76487669D01*
X90746465Y-76381127D01*
X90795501Y-76262744D01*
X90820500Y-76137069D01*
X90820500Y-76008931D01*
X90816500Y-75988822D01*
X90816500Y-75988819D01*
X90795502Y-75883261D01*
X90795501Y-75883260D01*
X90795501Y-75883256D01*
X90746465Y-75764873D01*
X90746464Y-75764872D01*
X90746461Y-75764866D01*
X90675276Y-75658331D01*
X90675273Y-75658327D01*
X90581819Y-75564873D01*
X90548334Y-75503550D01*
X90545500Y-75477192D01*
X90545500Y-68549392D01*
X90565185Y-68482353D01*
X90599377Y-68452725D01*
X90571575Y-68432677D01*
X90545993Y-68367658D01*
X90545500Y-68356607D01*
X90545500Y-60929392D01*
X90552040Y-60907116D01*
X90554110Y-60883992D01*
X90561699Y-60874221D01*
X90565185Y-60862353D01*
X90582729Y-60847150D01*
X90594544Y-60831941D01*
X90742519Y-60831941D01*
X90750703Y-60835679D01*
X90763255Y-60855211D01*
X90779375Y-60871917D01*
X90785927Y-60890489D01*
X90788477Y-60894457D01*
X90791117Y-60905200D01*
X90814497Y-61022738D01*
X90814499Y-61022744D01*
X90863533Y-61141124D01*
X90863538Y-61141133D01*
X90934722Y-61247667D01*
X90934723Y-61247668D01*
X90934724Y-61247669D01*
X91025331Y-61338276D01*
X91025333Y-61338277D01*
X91028181Y-61341125D01*
X91061666Y-61402448D01*
X91064500Y-61428807D01*
X91064500Y-64057435D01*
X91090090Y-64152938D01*
X91134269Y-64229459D01*
X91139526Y-64238563D01*
X92298181Y-65397218D01*
X92331666Y-65458541D01*
X92334500Y-65484899D01*
X92334500Y-75477192D01*
X92314815Y-75544231D01*
X92298181Y-75564873D01*
X92204726Y-75658327D01*
X92204723Y-75658331D01*
X92133538Y-75764866D01*
X92133533Y-75764875D01*
X92084499Y-75883255D01*
X92084497Y-75883261D01*
X92063500Y-75988819D01*
X92063500Y-75988822D01*
X92059500Y-76008931D01*
X92059500Y-76137069D01*
X92063500Y-76157177D01*
X92063500Y-76157179D01*
X92084497Y-76262738D01*
X92084499Y-76262744D01*
X92133533Y-76381124D01*
X92133538Y-76381133D01*
X92204723Y-76487668D01*
X92204726Y-76487672D01*
X92295327Y-76578273D01*
X92295331Y-76578276D01*
X92401866Y-76649461D01*
X92401872Y-76649464D01*
X92401873Y-76649465D01*
X92520256Y-76698501D01*
X92520260Y-76698501D01*
X92520261Y-76698502D01*
X92645928Y-76723500D01*
X92645931Y-76723500D01*
X92774071Y-76723500D01*
X92858615Y-76706682D01*
X92899744Y-76698501D01*
X93018127Y-76649465D01*
X93124669Y-76578276D01*
X93215276Y-76487669D01*
X93286465Y-76381127D01*
X93335501Y-76262744D01*
X93360500Y-76137069D01*
X93360500Y-76008931D01*
X93356500Y-75988822D01*
X93356500Y-75988819D01*
X93335502Y-75883261D01*
X93335501Y-75883260D01*
X93335501Y-75883256D01*
X93286465Y-75764873D01*
X93286464Y-75764872D01*
X93286461Y-75764866D01*
X93215276Y-75658331D01*
X93215273Y-75658327D01*
X93121819Y-75564873D01*
X93088334Y-75503550D01*
X93085500Y-75477192D01*
X93085500Y-68549392D01*
X93105185Y-68482353D01*
X93139377Y-68452725D01*
X93111575Y-68432677D01*
X93085993Y-68367658D01*
X93085500Y-68356607D01*
X93085500Y-65228567D01*
X93085500Y-65228565D01*
X93059910Y-65133062D01*
X93010475Y-65047438D01*
X92940562Y-64977525D01*
X91851819Y-63888782D01*
X91818334Y-63827459D01*
X91815500Y-63801101D01*
X91815500Y-61428807D01*
X91822469Y-61405071D01*
X92313499Y-61405071D01*
X92338497Y-61530738D01*
X92338499Y-61530744D01*
X92387533Y-61649124D01*
X92387538Y-61649133D01*
X92458722Y-61755667D01*
X92458723Y-61755668D01*
X92458724Y-61755669D01*
X92549331Y-61846276D01*
X92549333Y-61846277D01*
X92552181Y-61849125D01*
X92585666Y-61910448D01*
X92588500Y-61936807D01*
X92588500Y-63549435D01*
X92614090Y-63644938D01*
X92637530Y-63685538D01*
X92663526Y-63730563D01*
X96108181Y-67175218D01*
X96141666Y-67236541D01*
X96144500Y-67262899D01*
X96144500Y-77527500D01*
X96124815Y-77594539D01*
X96072011Y-77640294D01*
X96025389Y-77650450D01*
X96025423Y-77651099D01*
X96025429Y-77651146D01*
X96025426Y-77651146D01*
X96025436Y-77651324D01*
X96022123Y-77651501D01*
X95962516Y-77657908D01*
X95827671Y-77708202D01*
X95827664Y-77708206D01*
X95712455Y-77794452D01*
X95712452Y-77794455D01*
X95626206Y-77909664D01*
X95626202Y-77909671D01*
X95575908Y-78044517D01*
X95569501Y-78104116D01*
X95569501Y-78104123D01*
X95569500Y-78104135D01*
X95569500Y-78899870D01*
X95569501Y-78899876D01*
X95575908Y-78959483D01*
X95626202Y-79094328D01*
X95626206Y-79094335D01*
X95712452Y-79209544D01*
X95712455Y-79209547D01*
X95827664Y-79295793D01*
X95827671Y-79295797D01*
X95962517Y-79346091D01*
X95962516Y-79346091D01*
X95969444Y-79346835D01*
X96022127Y-79352500D01*
X97017872Y-79352499D01*
X97077483Y-79346091D01*
X97212331Y-79295796D01*
X97327546Y-79209546D01*
X97413796Y-79094331D01*
X97464091Y-78959483D01*
X97470500Y-78899873D01*
X97470499Y-78104135D01*
X98109500Y-78104135D01*
X98109500Y-78899870D01*
X98109501Y-78899876D01*
X98115908Y-78959483D01*
X98166202Y-79094328D01*
X98166206Y-79094335D01*
X98252452Y-79209544D01*
X98252455Y-79209547D01*
X98367664Y-79295793D01*
X98367671Y-79295797D01*
X98502517Y-79346091D01*
X98502516Y-79346091D01*
X98509444Y-79346835D01*
X98562127Y-79352500D01*
X99557872Y-79352499D01*
X99617483Y-79346091D01*
X99752331Y-79295796D01*
X99867546Y-79209546D01*
X99953796Y-79094331D01*
X100004091Y-78959483D01*
X100010500Y-78899873D01*
X100010499Y-78104135D01*
X100649500Y-78104135D01*
X100649500Y-78899870D01*
X100649501Y-78899876D01*
X100655908Y-78959483D01*
X100706202Y-79094328D01*
X100706206Y-79094335D01*
X100792452Y-79209544D01*
X100792455Y-79209547D01*
X100907664Y-79295793D01*
X100907671Y-79295797D01*
X101042517Y-79346091D01*
X101042516Y-79346091D01*
X101049444Y-79346835D01*
X101102127Y-79352500D01*
X102097872Y-79352499D01*
X102157483Y-79346091D01*
X102292331Y-79295796D01*
X102407546Y-79209546D01*
X102493796Y-79094331D01*
X102544091Y-78959483D01*
X102550500Y-78899873D01*
X102550499Y-78104128D01*
X102544091Y-78044517D01*
X102493796Y-77909669D01*
X102493795Y-77909668D01*
X102493793Y-77909664D01*
X102407547Y-77794455D01*
X102407544Y-77794452D01*
X102292335Y-77708206D01*
X102292328Y-77708202D01*
X102157482Y-77657908D01*
X102157483Y-77657908D01*
X102097883Y-77651501D01*
X102097881Y-77651500D01*
X102097873Y-77651500D01*
X102097864Y-77651500D01*
X102094548Y-77651322D01*
X102094615Y-77650065D01*
X102032461Y-77631815D01*
X101986706Y-77579011D01*
X101975500Y-77527500D01*
X101975500Y-70445807D01*
X101995185Y-70378768D01*
X102011819Y-70358125D01*
X102014665Y-70355278D01*
X102014669Y-70355276D01*
X102105276Y-70264669D01*
X102176465Y-70158127D01*
X102225501Y-70039744D01*
X102236363Y-69985139D01*
X102250500Y-69914071D01*
X102250500Y-69785928D01*
X102225502Y-69660261D01*
X102225501Y-69660260D01*
X102225501Y-69660256D01*
X102178409Y-69546567D01*
X102176466Y-69541875D01*
X102176461Y-69541866D01*
X102105276Y-69435331D01*
X102105273Y-69435327D01*
X102014672Y-69344726D01*
X102014668Y-69344723D01*
X101908133Y-69273538D01*
X101908124Y-69273533D01*
X101789744Y-69224499D01*
X101789738Y-69224497D01*
X101664071Y-69199500D01*
X101664069Y-69199500D01*
X101535931Y-69199500D01*
X101535929Y-69199500D01*
X101410261Y-69224497D01*
X101410255Y-69224499D01*
X101291875Y-69273533D01*
X101291866Y-69273538D01*
X101185331Y-69344723D01*
X101185327Y-69344726D01*
X101094726Y-69435327D01*
X101094723Y-69435331D01*
X101023538Y-69541866D01*
X101023533Y-69541875D01*
X100974499Y-69660255D01*
X100974497Y-69660261D01*
X100949500Y-69785928D01*
X100949500Y-69785931D01*
X100949500Y-69914069D01*
X100949500Y-69914071D01*
X100949499Y-69914071D01*
X100974497Y-70039738D01*
X100974499Y-70039744D01*
X101023533Y-70158124D01*
X101023538Y-70158133D01*
X101094722Y-70264667D01*
X101094723Y-70264668D01*
X101094724Y-70264669D01*
X101185331Y-70355276D01*
X101185333Y-70355277D01*
X101188181Y-70358125D01*
X101221666Y-70419448D01*
X101224500Y-70445807D01*
X101224500Y-77527500D01*
X101204815Y-77594539D01*
X101152011Y-77640294D01*
X101105389Y-77650450D01*
X101105423Y-77651099D01*
X101105429Y-77651146D01*
X101105426Y-77651146D01*
X101105436Y-77651324D01*
X101102123Y-77651501D01*
X101042516Y-77657908D01*
X100907671Y-77708202D01*
X100907664Y-77708206D01*
X100792455Y-77794452D01*
X100792452Y-77794455D01*
X100706206Y-77909664D01*
X100706202Y-77909671D01*
X100655908Y-78044517D01*
X100649501Y-78104116D01*
X100649501Y-78104123D01*
X100649500Y-78104135D01*
X100010499Y-78104135D01*
X100010499Y-78104128D01*
X100004091Y-78044517D01*
X99953796Y-77909669D01*
X99953795Y-77909668D01*
X99953793Y-77909664D01*
X99867547Y-77794455D01*
X99867544Y-77794452D01*
X99752335Y-77708206D01*
X99752328Y-77708202D01*
X99617482Y-77657908D01*
X99617483Y-77657908D01*
X99557883Y-77651501D01*
X99557881Y-77651500D01*
X99557873Y-77651500D01*
X99557864Y-77651500D01*
X99554548Y-77651322D01*
X99554615Y-77650065D01*
X99492461Y-77631815D01*
X99446706Y-77579011D01*
X99435500Y-77527500D01*
X99435500Y-70445807D01*
X99455185Y-70378768D01*
X99471819Y-70358125D01*
X99474665Y-70355278D01*
X99474669Y-70355276D01*
X99565276Y-70264669D01*
X99636465Y-70158127D01*
X99685501Y-70039744D01*
X99696363Y-69985139D01*
X99710500Y-69914071D01*
X99710500Y-69785928D01*
X99685502Y-69660261D01*
X99685501Y-69660260D01*
X99685501Y-69660256D01*
X99638409Y-69546567D01*
X99636466Y-69541875D01*
X99636461Y-69541866D01*
X99565276Y-69435331D01*
X99565273Y-69435327D01*
X99474672Y-69344726D01*
X99474668Y-69344723D01*
X99368133Y-69273538D01*
X99368124Y-69273533D01*
X99249744Y-69224499D01*
X99249738Y-69224497D01*
X99124071Y-69199500D01*
X99124069Y-69199500D01*
X98995931Y-69199500D01*
X98995929Y-69199500D01*
X98870261Y-69224497D01*
X98870255Y-69224499D01*
X98751875Y-69273533D01*
X98751866Y-69273538D01*
X98645331Y-69344723D01*
X98645327Y-69344726D01*
X98554726Y-69435327D01*
X98554723Y-69435331D01*
X98483538Y-69541866D01*
X98483533Y-69541875D01*
X98434499Y-69660255D01*
X98434497Y-69660261D01*
X98413500Y-69765819D01*
X98413500Y-69765822D01*
X98409500Y-69785931D01*
X98409500Y-69914069D01*
X98413500Y-69934177D01*
X98413500Y-69934179D01*
X98434497Y-70039738D01*
X98434499Y-70039744D01*
X98483533Y-70158124D01*
X98483538Y-70158133D01*
X98554722Y-70264667D01*
X98554723Y-70264668D01*
X98554724Y-70264669D01*
X98645331Y-70355276D01*
X98645333Y-70355277D01*
X98648181Y-70358125D01*
X98681666Y-70419448D01*
X98684500Y-70445807D01*
X98684500Y-77527500D01*
X98664815Y-77594539D01*
X98612011Y-77640294D01*
X98565389Y-77650450D01*
X98565423Y-77651099D01*
X98565429Y-77651146D01*
X98565426Y-77651146D01*
X98565436Y-77651324D01*
X98562123Y-77651501D01*
X98502516Y-77657908D01*
X98367671Y-77708202D01*
X98367664Y-77708206D01*
X98252455Y-77794452D01*
X98252452Y-77794455D01*
X98166206Y-77909664D01*
X98166202Y-77909671D01*
X98115908Y-78044517D01*
X98109501Y-78104116D01*
X98109501Y-78104123D01*
X98109500Y-78104135D01*
X97470499Y-78104135D01*
X97470499Y-78104128D01*
X97464091Y-78044517D01*
X97413796Y-77909669D01*
X97413795Y-77909668D01*
X97413793Y-77909664D01*
X97327547Y-77794455D01*
X97327544Y-77794452D01*
X97212335Y-77708206D01*
X97212328Y-77708202D01*
X97077482Y-77657908D01*
X97077483Y-77657908D01*
X97017883Y-77651501D01*
X97017881Y-77651500D01*
X97017873Y-77651500D01*
X97017864Y-77651500D01*
X97014548Y-77651322D01*
X97014615Y-77650065D01*
X96952461Y-77631815D01*
X96906706Y-77579011D01*
X96895500Y-77527500D01*
X96895500Y-67006567D01*
X96895500Y-67006565D01*
X96869910Y-66911062D01*
X96820475Y-66825438D01*
X96750562Y-66755525D01*
X93375819Y-63380782D01*
X93342334Y-63319459D01*
X93339500Y-63293101D01*
X93339500Y-61936807D01*
X93346470Y-61913071D01*
X93837499Y-61913071D01*
X93862497Y-62038738D01*
X93862499Y-62038744D01*
X93911533Y-62157124D01*
X93911538Y-62157133D01*
X93982722Y-62263667D01*
X93982723Y-62263668D01*
X93982724Y-62263669D01*
X94073331Y-62354276D01*
X94073333Y-62354277D01*
X94076181Y-62357125D01*
X94109666Y-62418448D01*
X94112500Y-62444807D01*
X94112500Y-63041435D01*
X94138090Y-63136938D01*
X94138091Y-63136939D01*
X94138091Y-63136940D01*
X94187526Y-63222563D01*
X97378181Y-66413218D01*
X97411666Y-66474541D01*
X97414500Y-66500899D01*
X97414500Y-75477192D01*
X97394815Y-75544231D01*
X97378181Y-75564873D01*
X97284726Y-75658327D01*
X97284723Y-75658331D01*
X97213538Y-75764866D01*
X97213533Y-75764875D01*
X97164499Y-75883255D01*
X97164497Y-75883261D01*
X97143500Y-75988819D01*
X97143500Y-75988822D01*
X97139500Y-76008931D01*
X97139500Y-76137069D01*
X97143500Y-76157177D01*
X97143500Y-76157179D01*
X97164497Y-76262738D01*
X97164499Y-76262744D01*
X97213533Y-76381124D01*
X97213538Y-76381133D01*
X97284723Y-76487668D01*
X97284726Y-76487672D01*
X97375327Y-76578273D01*
X97375331Y-76578276D01*
X97481866Y-76649461D01*
X97481872Y-76649464D01*
X97481873Y-76649465D01*
X97600256Y-76698501D01*
X97600260Y-76698501D01*
X97600261Y-76698502D01*
X97725928Y-76723500D01*
X97725931Y-76723500D01*
X97854071Y-76723500D01*
X97938615Y-76706682D01*
X97979744Y-76698501D01*
X98098127Y-76649465D01*
X98204669Y-76578276D01*
X98295276Y-76487669D01*
X98366465Y-76381127D01*
X98415501Y-76262744D01*
X98440500Y-76137069D01*
X98440500Y-76008931D01*
X98436500Y-75988822D01*
X98436500Y-75988819D01*
X98415502Y-75883261D01*
X98415501Y-75883260D01*
X98415501Y-75883256D01*
X98366465Y-75764873D01*
X98366464Y-75764872D01*
X98366461Y-75764866D01*
X98295276Y-75658331D01*
X98295273Y-75658327D01*
X98201819Y-75564873D01*
X98168334Y-75503550D01*
X98165500Y-75477192D01*
X98165500Y-66244567D01*
X98165500Y-66244565D01*
X98139910Y-66149062D01*
X98090475Y-66063438D01*
X98020562Y-65993525D01*
X94899819Y-62872782D01*
X94866334Y-62811459D01*
X94863500Y-62785101D01*
X94863500Y-62444807D01*
X94870469Y-62421071D01*
X95361499Y-62421071D01*
X95386497Y-62546738D01*
X95386499Y-62546744D01*
X95435533Y-62665124D01*
X95435538Y-62665133D01*
X95506723Y-62771668D01*
X95506726Y-62771672D01*
X95597327Y-62862273D01*
X95597331Y-62862276D01*
X95703866Y-62933461D01*
X95703872Y-62933464D01*
X95703873Y-62933465D01*
X95822256Y-62982501D01*
X95822260Y-62982501D01*
X95822261Y-62982502D01*
X95947928Y-63007500D01*
X96080101Y-63007500D01*
X96147140Y-63027185D01*
X96167782Y-63043819D01*
X103728181Y-70604218D01*
X103761666Y-70665541D01*
X103764500Y-70691899D01*
X103764500Y-77527500D01*
X103744815Y-77594539D01*
X103692011Y-77640294D01*
X103645389Y-77650450D01*
X103645423Y-77651099D01*
X103645429Y-77651146D01*
X103645426Y-77651146D01*
X103645436Y-77651324D01*
X103642123Y-77651501D01*
X103582516Y-77657908D01*
X103447671Y-77708202D01*
X103447664Y-77708206D01*
X103332455Y-77794452D01*
X103332452Y-77794455D01*
X103246206Y-77909664D01*
X103246202Y-77909671D01*
X103195908Y-78044517D01*
X103189501Y-78104116D01*
X103189501Y-78104123D01*
X103189500Y-78104135D01*
X103189500Y-78899870D01*
X103189501Y-78899876D01*
X103195908Y-78959483D01*
X103246202Y-79094328D01*
X103246206Y-79094335D01*
X103332452Y-79209544D01*
X103332455Y-79209547D01*
X103447664Y-79295793D01*
X103447671Y-79295797D01*
X103582517Y-79346091D01*
X103582516Y-79346091D01*
X103589444Y-79346835D01*
X103642127Y-79352500D01*
X104637872Y-79352499D01*
X104697483Y-79346091D01*
X104832331Y-79295796D01*
X104947546Y-79209546D01*
X105033796Y-79094331D01*
X105084091Y-78959483D01*
X105090500Y-78899873D01*
X105090499Y-78104128D01*
X105084091Y-78044517D01*
X105033796Y-77909669D01*
X105033795Y-77909668D01*
X105033793Y-77909664D01*
X104947547Y-77794455D01*
X104947544Y-77794452D01*
X104832335Y-77708206D01*
X104832328Y-77708202D01*
X104697482Y-77657908D01*
X104697483Y-77657908D01*
X104637883Y-77651501D01*
X104637881Y-77651500D01*
X104637873Y-77651500D01*
X104637864Y-77651500D01*
X104634548Y-77651322D01*
X104634615Y-77650065D01*
X104572461Y-77631815D01*
X104526706Y-77579011D01*
X104515500Y-77527500D01*
X104515500Y-70435567D01*
X104515500Y-70435565D01*
X104489910Y-70340062D01*
X104446382Y-70264669D01*
X104440475Y-70254437D01*
X104440473Y-70254435D01*
X104440472Y-70254433D01*
X98893109Y-64707071D01*
X99552499Y-64707071D01*
X99577497Y-64832738D01*
X99577499Y-64832744D01*
X99626533Y-64951124D01*
X99626538Y-64951133D01*
X99697723Y-65057668D01*
X99697726Y-65057672D01*
X99788327Y-65148273D01*
X99788331Y-65148276D01*
X99894866Y-65219461D01*
X99894875Y-65219466D01*
X99916842Y-65228565D01*
X100013256Y-65268501D01*
X100013260Y-65268501D01*
X100013261Y-65268502D01*
X100138928Y-65293500D01*
X100271101Y-65293500D01*
X100338140Y-65313185D01*
X100358782Y-65329819D01*
X106268181Y-71239218D01*
X106301666Y-71300541D01*
X106304500Y-71326899D01*
X106304500Y-77527500D01*
X106284815Y-77594539D01*
X106232011Y-77640294D01*
X106185389Y-77650450D01*
X106185423Y-77651099D01*
X106185429Y-77651146D01*
X106185426Y-77651146D01*
X106185436Y-77651324D01*
X106182123Y-77651501D01*
X106122516Y-77657908D01*
X105987671Y-77708202D01*
X105987664Y-77708206D01*
X105872455Y-77794452D01*
X105872452Y-77794455D01*
X105786206Y-77909664D01*
X105786202Y-77909671D01*
X105735908Y-78044517D01*
X105729501Y-78104116D01*
X105729501Y-78104123D01*
X105729500Y-78104135D01*
X105729500Y-78899870D01*
X105729501Y-78899876D01*
X105735908Y-78959483D01*
X105786202Y-79094328D01*
X105786206Y-79094335D01*
X105872452Y-79209544D01*
X105872455Y-79209547D01*
X105987664Y-79295793D01*
X105987671Y-79295797D01*
X106122517Y-79346091D01*
X106122516Y-79346091D01*
X106129444Y-79346835D01*
X106182127Y-79352500D01*
X107177872Y-79352499D01*
X107237483Y-79346091D01*
X107372331Y-79295796D01*
X107487546Y-79209546D01*
X107573796Y-79094331D01*
X107624091Y-78959483D01*
X107630500Y-78899873D01*
X107630499Y-78104128D01*
X107624091Y-78044517D01*
X107573796Y-77909669D01*
X107573795Y-77909668D01*
X107573793Y-77909664D01*
X107487547Y-77794455D01*
X107487544Y-77794452D01*
X107372335Y-77708206D01*
X107372328Y-77708202D01*
X107237482Y-77657908D01*
X107237483Y-77657908D01*
X107177883Y-77651501D01*
X107177881Y-77651500D01*
X107177873Y-77651500D01*
X107177864Y-77651500D01*
X107174548Y-77651322D01*
X107174615Y-77650065D01*
X107112461Y-77631815D01*
X107066706Y-77579011D01*
X107055500Y-77527500D01*
X107055500Y-71070567D01*
X107055500Y-71070565D01*
X107029910Y-70975062D01*
X106980475Y-70889438D01*
X106910562Y-70819525D01*
X100889819Y-64798782D01*
X100856334Y-64737459D01*
X100853500Y-64711101D01*
X100853500Y-64578928D01*
X100828502Y-64453261D01*
X100828501Y-64453260D01*
X100828501Y-64453256D01*
X100779465Y-64334873D01*
X100779464Y-64334872D01*
X100779461Y-64334866D01*
X100708276Y-64228331D01*
X100708273Y-64228327D01*
X100679017Y-64199071D01*
X101076499Y-64199071D01*
X101101497Y-64324738D01*
X101101499Y-64324744D01*
X101150533Y-64443124D01*
X101150538Y-64443133D01*
X101221723Y-64549668D01*
X101221726Y-64549672D01*
X101312327Y-64640273D01*
X101312331Y-64640276D01*
X101418866Y-64711461D01*
X101418872Y-64711464D01*
X101418873Y-64711465D01*
X101537256Y-64760501D01*
X101537260Y-64760501D01*
X101537261Y-64760502D01*
X101662928Y-64785500D01*
X101795101Y-64785500D01*
X101862140Y-64805185D01*
X101882782Y-64821819D01*
X108808181Y-71747218D01*
X108841666Y-71808541D01*
X108844500Y-71834899D01*
X108844500Y-77527500D01*
X108824815Y-77594539D01*
X108772011Y-77640294D01*
X108725389Y-77650450D01*
X108725423Y-77651099D01*
X108725429Y-77651146D01*
X108725426Y-77651146D01*
X108725436Y-77651324D01*
X108722123Y-77651501D01*
X108662516Y-77657908D01*
X108527671Y-77708202D01*
X108527664Y-77708206D01*
X108412455Y-77794452D01*
X108412452Y-77794455D01*
X108326206Y-77909664D01*
X108326202Y-77909671D01*
X108275908Y-78044517D01*
X108269501Y-78104116D01*
X108269501Y-78104123D01*
X108269500Y-78104135D01*
X108269500Y-78899870D01*
X108269501Y-78899876D01*
X108275908Y-78959483D01*
X108326202Y-79094328D01*
X108326206Y-79094335D01*
X108412452Y-79209544D01*
X108412455Y-79209547D01*
X108527664Y-79295793D01*
X108527671Y-79295797D01*
X108662517Y-79346091D01*
X108662516Y-79346091D01*
X108669444Y-79346835D01*
X108722127Y-79352500D01*
X109717872Y-79352499D01*
X109777483Y-79346091D01*
X109912331Y-79295796D01*
X110027546Y-79209546D01*
X110113796Y-79094331D01*
X110164091Y-78959483D01*
X110170500Y-78899873D01*
X110170499Y-78104128D01*
X110164091Y-78044517D01*
X110113796Y-77909669D01*
X110113795Y-77909668D01*
X110113793Y-77909664D01*
X110027547Y-77794455D01*
X110027544Y-77794452D01*
X109912335Y-77708206D01*
X109912328Y-77708202D01*
X109777482Y-77657908D01*
X109777483Y-77657908D01*
X109717883Y-77651501D01*
X109717881Y-77651500D01*
X109717873Y-77651500D01*
X109717864Y-77651500D01*
X109714548Y-77651322D01*
X109714615Y-77650065D01*
X109652461Y-77631815D01*
X109606706Y-77579011D01*
X109595500Y-77527500D01*
X109595500Y-71578567D01*
X109595500Y-71578565D01*
X109569910Y-71483062D01*
X109520475Y-71397438D01*
X109450562Y-71327525D01*
X102413819Y-64290782D01*
X102380334Y-64229459D01*
X102377500Y-64203101D01*
X102377500Y-64070928D01*
X102352502Y-63945261D01*
X102352501Y-63945260D01*
X102352501Y-63945256D01*
X102303465Y-63826873D01*
X102303464Y-63826872D01*
X102303461Y-63826866D01*
X102232276Y-63720331D01*
X102232273Y-63720327D01*
X102141672Y-63629726D01*
X102141668Y-63629723D01*
X102035133Y-63558538D01*
X102035124Y-63558533D01*
X101916744Y-63509499D01*
X101916738Y-63509497D01*
X101791071Y-63484500D01*
X101791069Y-63484500D01*
X101662931Y-63484500D01*
X101662929Y-63484500D01*
X101537261Y-63509497D01*
X101537255Y-63509499D01*
X101418875Y-63558533D01*
X101418866Y-63558538D01*
X101312331Y-63629723D01*
X101312327Y-63629726D01*
X101221726Y-63720327D01*
X101221723Y-63720331D01*
X101150538Y-63826866D01*
X101150533Y-63826875D01*
X101101499Y-63945255D01*
X101101497Y-63945261D01*
X101076500Y-64070928D01*
X101076500Y-64070931D01*
X101076500Y-64199069D01*
X101076500Y-64199071D01*
X101076499Y-64199071D01*
X100679017Y-64199071D01*
X100617672Y-64137726D01*
X100617668Y-64137723D01*
X100511133Y-64066538D01*
X100511124Y-64066533D01*
X100392744Y-64017499D01*
X100392738Y-64017497D01*
X100267071Y-63992500D01*
X100267069Y-63992500D01*
X100138931Y-63992500D01*
X100138929Y-63992500D01*
X100013261Y-64017497D01*
X100013255Y-64017499D01*
X99894875Y-64066533D01*
X99894866Y-64066538D01*
X99788331Y-64137723D01*
X99788327Y-64137726D01*
X99697726Y-64228327D01*
X99697723Y-64228331D01*
X99626538Y-64334866D01*
X99626533Y-64334875D01*
X99577499Y-64453255D01*
X99577497Y-64453261D01*
X99552500Y-64578928D01*
X99552500Y-64578931D01*
X99552500Y-64707069D01*
X99552500Y-64707071D01*
X99552499Y-64707071D01*
X98893109Y-64707071D01*
X98846558Y-64660520D01*
X96698819Y-62512781D01*
X96665334Y-62451458D01*
X96662500Y-62425100D01*
X96662500Y-62292928D01*
X96637502Y-62167261D01*
X96637501Y-62167260D01*
X96637501Y-62167256D01*
X96588465Y-62048873D01*
X96588464Y-62048872D01*
X96588461Y-62048866D01*
X96517276Y-61942331D01*
X96517273Y-61942327D01*
X96426672Y-61851726D01*
X96426668Y-61851723D01*
X96320133Y-61780538D01*
X96320124Y-61780533D01*
X96201744Y-61731499D01*
X96201738Y-61731497D01*
X96076071Y-61706500D01*
X96076069Y-61706500D01*
X95947931Y-61706500D01*
X95947929Y-61706500D01*
X95822261Y-61731497D01*
X95822255Y-61731499D01*
X95703875Y-61780533D01*
X95703866Y-61780538D01*
X95597331Y-61851723D01*
X95597327Y-61851726D01*
X95506726Y-61942327D01*
X95506723Y-61942331D01*
X95435538Y-62048866D01*
X95435533Y-62048875D01*
X95386499Y-62167255D01*
X95386497Y-62167261D01*
X95361500Y-62292928D01*
X95361500Y-62292931D01*
X95361500Y-62421069D01*
X95361500Y-62421071D01*
X95361499Y-62421071D01*
X94870469Y-62421071D01*
X94871098Y-62418929D01*
X94875181Y-62392267D01*
X94881627Y-62383072D01*
X94883185Y-62377768D01*
X94894533Y-62362751D01*
X94901070Y-62355343D01*
X94902669Y-62354276D01*
X94993276Y-62263669D01*
X95064465Y-62157127D01*
X95113501Y-62038744D01*
X95121682Y-61997615D01*
X95138500Y-61913071D01*
X95138500Y-61784928D01*
X95113502Y-61659261D01*
X95113501Y-61659260D01*
X95113501Y-61659256D01*
X95064465Y-61540873D01*
X95064464Y-61540872D01*
X95064461Y-61540866D01*
X94993276Y-61434331D01*
X94993273Y-61434327D01*
X94902672Y-61343726D01*
X94902668Y-61343723D01*
X94796133Y-61272538D01*
X94796124Y-61272533D01*
X94677744Y-61223499D01*
X94677738Y-61223497D01*
X94552071Y-61198500D01*
X94552069Y-61198500D01*
X94423931Y-61198500D01*
X94423929Y-61198500D01*
X94298261Y-61223497D01*
X94298255Y-61223499D01*
X94179875Y-61272533D01*
X94179866Y-61272538D01*
X94073331Y-61343723D01*
X94073327Y-61343726D01*
X93982726Y-61434327D01*
X93982723Y-61434331D01*
X93911538Y-61540866D01*
X93911533Y-61540875D01*
X93862499Y-61659255D01*
X93862497Y-61659261D01*
X93837500Y-61784928D01*
X93837500Y-61784931D01*
X93837500Y-61913069D01*
X93837500Y-61913071D01*
X93837499Y-61913071D01*
X93346470Y-61913071D01*
X93359185Y-61869768D01*
X93375819Y-61849125D01*
X93378665Y-61846278D01*
X93378669Y-61846276D01*
X93469276Y-61755669D01*
X93540465Y-61649127D01*
X93589501Y-61530744D01*
X93605065Y-61452500D01*
X93614500Y-61405071D01*
X93614500Y-61276928D01*
X93589502Y-61151261D01*
X93589501Y-61151260D01*
X93589501Y-61151256D01*
X93540465Y-61032873D01*
X93540464Y-61032872D01*
X93540461Y-61032866D01*
X93469276Y-60926331D01*
X93469273Y-60926327D01*
X93378672Y-60835726D01*
X93378668Y-60835723D01*
X93272133Y-60764538D01*
X93272124Y-60764533D01*
X93153744Y-60715499D01*
X93153738Y-60715497D01*
X93028071Y-60690500D01*
X93028069Y-60690500D01*
X92899931Y-60690500D01*
X92899929Y-60690500D01*
X92774261Y-60715497D01*
X92774255Y-60715499D01*
X92655875Y-60764533D01*
X92655866Y-60764538D01*
X92549331Y-60835723D01*
X92549327Y-60835726D01*
X92458726Y-60926327D01*
X92458723Y-60926331D01*
X92387538Y-61032866D01*
X92387533Y-61032875D01*
X92338499Y-61151255D01*
X92338497Y-61151261D01*
X92313500Y-61276928D01*
X92313500Y-61276931D01*
X92313500Y-61405069D01*
X92313500Y-61405071D01*
X92313499Y-61405071D01*
X91822469Y-61405071D01*
X91823098Y-61402929D01*
X91827181Y-61376267D01*
X91833627Y-61367072D01*
X91835185Y-61361768D01*
X91846533Y-61346751D01*
X91853070Y-61339343D01*
X91854669Y-61338276D01*
X91945276Y-61247669D01*
X92016465Y-61141127D01*
X92065501Y-61022744D01*
X92078524Y-60957276D01*
X92090500Y-60897071D01*
X92090500Y-60768928D01*
X92065502Y-60643261D01*
X92065501Y-60643260D01*
X92065501Y-60643256D01*
X92016465Y-60524873D01*
X92016464Y-60524872D01*
X92016461Y-60524866D01*
X91945276Y-60418331D01*
X91945273Y-60418327D01*
X91854672Y-60327726D01*
X91854668Y-60327723D01*
X91748133Y-60256538D01*
X91748124Y-60256533D01*
X91629744Y-60207499D01*
X91629738Y-60207497D01*
X91504071Y-60182500D01*
X91504069Y-60182500D01*
X91375931Y-60182500D01*
X91375929Y-60182500D01*
X91250261Y-60207497D01*
X91250255Y-60207499D01*
X91131875Y-60256533D01*
X91131866Y-60256538D01*
X91025331Y-60327723D01*
X91025327Y-60327726D01*
X90934726Y-60418327D01*
X90934723Y-60418331D01*
X90863538Y-60524866D01*
X90863533Y-60524875D01*
X90814499Y-60643255D01*
X90814497Y-60643261D01*
X90791117Y-60760799D01*
X90758732Y-60822710D01*
X90742519Y-60831941D01*
X90594544Y-60831941D01*
X90595889Y-60830210D01*
X90571575Y-60812677D01*
X90545993Y-60747658D01*
X90545500Y-60736607D01*
X90545500Y-59523807D01*
X90565185Y-59456768D01*
X90581819Y-59436125D01*
X90584665Y-59433278D01*
X90584669Y-59433276D01*
X90675276Y-59342669D01*
X90746465Y-59236127D01*
X90795501Y-59117744D01*
X90809871Y-59045502D01*
X90820500Y-58992071D01*
X90820500Y-58863928D01*
X90795502Y-58738261D01*
X90795501Y-58738260D01*
X90795501Y-58738256D01*
X90746465Y-58619873D01*
X90746464Y-58619872D01*
X90746461Y-58619866D01*
X90675276Y-58513331D01*
X90675273Y-58513327D01*
X90584672Y-58422726D01*
X90584668Y-58422723D01*
X90478133Y-58351538D01*
X90478124Y-58351533D01*
X90359744Y-58302499D01*
X90359738Y-58302497D01*
X90234071Y-58277500D01*
X90234069Y-58277500D01*
X90105931Y-58277500D01*
X90105929Y-58277500D01*
X89980261Y-58302497D01*
X89980255Y-58302499D01*
X89861875Y-58351533D01*
X89861866Y-58351538D01*
X89755331Y-58422723D01*
X89755327Y-58422726D01*
X89664726Y-58513327D01*
X89664723Y-58513331D01*
X89593538Y-58619866D01*
X89593533Y-58619875D01*
X89544499Y-58738255D01*
X89544497Y-58738261D01*
X89519500Y-58863928D01*
X89519500Y-58863931D01*
X89519500Y-58992069D01*
X89519500Y-58992071D01*
X89519499Y-58992071D01*
X88280500Y-58992071D01*
X88280500Y-58863928D01*
X88255502Y-58738261D01*
X88255501Y-58738260D01*
X88255501Y-58738256D01*
X88206465Y-58619873D01*
X88206464Y-58619872D01*
X88206461Y-58619866D01*
X88135276Y-58513331D01*
X88135273Y-58513327D01*
X88044672Y-58422726D01*
X88044668Y-58422723D01*
X87938133Y-58351538D01*
X87938124Y-58351533D01*
X87819744Y-58302499D01*
X87819738Y-58302497D01*
X87694071Y-58277500D01*
X87694069Y-58277500D01*
X87565931Y-58277500D01*
X87565929Y-58277500D01*
X87440261Y-58302497D01*
X87440255Y-58302499D01*
X87321875Y-58351533D01*
X87321866Y-58351538D01*
X87215331Y-58422723D01*
X87215327Y-58422726D01*
X87124726Y-58513327D01*
X87124723Y-58513331D01*
X87053538Y-58619866D01*
X87053533Y-58619875D01*
X87004499Y-58738255D01*
X87004497Y-58738261D01*
X86979500Y-58863928D01*
X86979500Y-58863931D01*
X86979500Y-58992069D01*
X86979500Y-58992071D01*
X86979499Y-58992071D01*
X83281193Y-58992071D01*
X83290821Y-58980124D01*
X83309274Y-58961671D01*
X83309276Y-58961669D01*
X83380465Y-58855127D01*
X83429501Y-58736744D01*
X83445310Y-58657271D01*
X83454500Y-58611071D01*
X83454500Y-58482928D01*
X83429502Y-58357261D01*
X83429501Y-58357260D01*
X83429501Y-58357256D01*
X83380465Y-58238873D01*
X83380464Y-58238872D01*
X83380461Y-58238866D01*
X83309276Y-58132331D01*
X83309273Y-58132327D01*
X83290819Y-58113873D01*
X83257334Y-58052550D01*
X83254500Y-58026192D01*
X83254500Y-56388000D01*
X106454340Y-56388000D01*
X106472569Y-56747457D01*
X106525541Y-57093238D01*
X106527071Y-57103226D01*
X106594302Y-57362886D01*
X106617288Y-57451662D01*
X106617288Y-57451663D01*
X106742284Y-57789161D01*
X106742290Y-57789174D01*
X106900793Y-58112306D01*
X106900798Y-58112315D01*
X107091178Y-58417750D01*
X107264340Y-58641458D01*
X107311487Y-58702366D01*
X107470323Y-58869461D01*
X107559459Y-58963232D01*
X107832548Y-59197672D01*
X107832551Y-59197674D01*
X108127959Y-59403284D01*
X108442653Y-59577953D01*
X108773404Y-59719890D01*
X108773414Y-59719893D01*
X108773419Y-59719895D01*
X109116806Y-59827633D01*
X109116809Y-59827633D01*
X109116817Y-59827636D01*
X109469368Y-59900087D01*
X109755825Y-59929217D01*
X109827439Y-59936500D01*
X109827440Y-59936500D01*
X111203361Y-59936500D01*
X111263038Y-59930431D01*
X111561432Y-59900087D01*
X111913983Y-59827636D01*
X111917614Y-59826497D01*
X112215302Y-59733097D01*
X112257396Y-59719890D01*
X112588147Y-59577953D01*
X112902841Y-59403284D01*
X113198249Y-59197674D01*
X113471341Y-58963232D01*
X113719313Y-58702366D01*
X113939622Y-58417750D01*
X114130006Y-58112307D01*
X114288512Y-57789170D01*
X114413514Y-57451655D01*
X114503729Y-57103226D01*
X114558230Y-56747457D01*
X114576460Y-56388000D01*
X114558230Y-56028543D01*
X114503729Y-55672774D01*
X114413514Y-55324345D01*
X114403432Y-55297124D01*
X114288515Y-54986838D01*
X114288514Y-54986837D01*
X114288512Y-54986830D01*
X114130006Y-54663693D01*
X114130001Y-54663684D01*
X113996391Y-54449327D01*
X113939622Y-54358250D01*
X113719313Y-54073634D01*
X113471341Y-53812768D01*
X113404711Y-53755568D01*
X113198251Y-53578327D01*
X112902841Y-53372716D01*
X112902836Y-53372713D01*
X112588146Y-53198046D01*
X112257401Y-53056112D01*
X112257380Y-53056104D01*
X111913993Y-52948366D01*
X111913987Y-52948365D01*
X111913984Y-52948364D01*
X111913983Y-52948364D01*
X111561432Y-52875913D01*
X111561431Y-52875912D01*
X111561427Y-52875912D01*
X111203361Y-52839500D01*
X111203360Y-52839500D01*
X111089292Y-52839500D01*
X110073292Y-52839500D01*
X110007400Y-52839500D01*
X109827440Y-52839500D01*
X109827439Y-52839500D01*
X109469372Y-52875912D01*
X109116812Y-52948365D01*
X109116806Y-52948366D01*
X108773419Y-53056104D01*
X108773398Y-53056112D01*
X108442653Y-53198046D01*
X108127963Y-53372713D01*
X108127958Y-53372716D01*
X107832548Y-53578327D01*
X107559459Y-53812767D01*
X107311482Y-54073639D01*
X107091178Y-54358249D01*
X106900798Y-54663684D01*
X106900793Y-54663693D01*
X106742290Y-54986825D01*
X106742284Y-54986838D01*
X106617288Y-55324336D01*
X106617288Y-55324337D01*
X106527070Y-55672778D01*
X106472569Y-56028542D01*
X106454340Y-56388000D01*
X83254500Y-56388000D01*
X83254500Y-55538500D01*
X83257050Y-55529814D01*
X83255762Y-55520853D01*
X83266740Y-55496812D01*
X83274185Y-55471461D01*
X83281025Y-55465533D01*
X83284787Y-55457297D01*
X83307021Y-55443007D01*
X83326989Y-55425706D01*
X83337503Y-55423418D01*
X83343565Y-55419523D01*
X83378500Y-55414500D01*
X83435399Y-55414500D01*
X83502438Y-55434185D01*
X83504252Y-55435373D01*
X83511873Y-55440465D01*
X83630256Y-55489501D01*
X83630260Y-55489501D01*
X83630261Y-55489502D01*
X83755928Y-55514500D01*
X83755931Y-55514500D01*
X83884071Y-55514500D01*
X83972990Y-55496812D01*
X84009744Y-55489501D01*
X84128127Y-55440465D01*
X84234669Y-55369276D01*
X84325276Y-55278669D01*
X84396465Y-55172127D01*
X84445501Y-55053744D01*
X84458810Y-54986838D01*
X84470500Y-54928071D01*
X84470500Y-54799928D01*
X84445502Y-54674261D01*
X84445501Y-54674260D01*
X84445501Y-54674256D01*
X84407574Y-54582692D01*
X84396466Y-54555875D01*
X84396461Y-54555866D01*
X84325276Y-54449331D01*
X84325273Y-54449327D01*
X84234672Y-54358726D01*
X84234668Y-54358723D01*
X84128133Y-54287538D01*
X84128124Y-54287533D01*
X84009744Y-54238499D01*
X84009738Y-54238497D01*
X83884071Y-54213500D01*
X83884069Y-54213500D01*
X83755931Y-54213500D01*
X83755929Y-54213500D01*
X83630261Y-54238497D01*
X83630255Y-54238499D01*
X83511876Y-54287533D01*
X83511873Y-54287534D01*
X83511873Y-54287535D01*
X83504287Y-54292603D01*
X83486242Y-54298253D01*
X83470334Y-54308477D01*
X83439371Y-54312928D01*
X83437611Y-54313480D01*
X83435399Y-54313500D01*
X83188601Y-54313500D01*
X83121562Y-54293815D01*
X83119747Y-54292626D01*
X83112127Y-54287535D01*
X83112124Y-54287533D01*
X83112123Y-54287533D01*
X82993744Y-54238499D01*
X82993738Y-54238497D01*
X82868071Y-54213500D01*
X82868069Y-54213500D01*
X82739931Y-54213500D01*
X82739929Y-54213500D01*
X82614261Y-54238497D01*
X82614255Y-54238499D01*
X82495875Y-54287533D01*
X82495866Y-54287538D01*
X82389331Y-54358723D01*
X82389327Y-54358726D01*
X82295873Y-54452181D01*
X82234550Y-54485666D01*
X82208192Y-54488500D01*
X68530564Y-54488500D01*
X68482812Y-54501295D01*
X68482811Y-54501294D01*
X68435063Y-54514089D01*
X68435062Y-54514089D01*
X68367530Y-54553079D01*
X68352915Y-54561518D01*
X68349435Y-54563527D01*
X66247526Y-56665436D01*
X66198091Y-56751059D01*
X66198091Y-56751060D01*
X66198090Y-56751062D01*
X66172500Y-56846565D01*
X66172500Y-56846567D01*
X66172500Y-64057433D01*
X66172595Y-64058155D01*
X66172500Y-64061054D01*
X66172500Y-64065562D01*
X66172352Y-64065562D01*
X66171272Y-64098528D01*
X66151500Y-64197926D01*
X66151500Y-64197931D01*
X66151500Y-64326069D01*
X66151500Y-64326071D01*
X66151499Y-64326071D01*
X64002500Y-64326071D01*
X64002500Y-59259565D01*
X63997691Y-59241619D01*
X63983190Y-59187500D01*
X63983190Y-59187498D01*
X63976911Y-59164065D01*
X63976910Y-59164063D01*
X63976910Y-59164062D01*
X63931893Y-59086090D01*
X63927475Y-59078437D01*
X63424819Y-58575781D01*
X63391334Y-58514458D01*
X63388500Y-58488100D01*
X63388500Y-58355928D01*
X63363502Y-58230261D01*
X63363501Y-58230260D01*
X63363501Y-58230256D01*
X63322937Y-58132327D01*
X63314466Y-58111875D01*
X63314461Y-58111866D01*
X63243276Y-58005331D01*
X63243273Y-58005327D01*
X63152672Y-57914726D01*
X63152668Y-57914723D01*
X63046133Y-57843538D01*
X63046124Y-57843533D01*
X62927744Y-57794499D01*
X62927738Y-57794497D01*
X62802071Y-57769500D01*
X62802069Y-57769500D01*
X62673931Y-57769500D01*
X62673929Y-57769500D01*
X62548261Y-57794497D01*
X62548255Y-57794499D01*
X62429875Y-57843533D01*
X62429866Y-57843538D01*
X62323331Y-57914723D01*
X62323327Y-57914726D01*
X62232726Y-58005327D01*
X62232723Y-58005331D01*
X62161538Y-58111866D01*
X62161533Y-58111875D01*
X62112499Y-58230255D01*
X62112497Y-58230261D01*
X62087500Y-58355928D01*
X62087500Y-58355931D01*
X62087500Y-58484069D01*
X62087500Y-58484071D01*
X62087499Y-58484071D01*
X62112497Y-58609738D01*
X62112499Y-58609744D01*
X62161533Y-58728124D01*
X62161538Y-58728133D01*
X62232723Y-58834668D01*
X62232726Y-58834672D01*
X62323327Y-58925273D01*
X62323331Y-58925276D01*
X62429866Y-58996461D01*
X62429875Y-58996466D01*
X62456692Y-59007574D01*
X62548256Y-59045501D01*
X62548260Y-59045501D01*
X62548261Y-59045502D01*
X62673928Y-59070500D01*
X62806100Y-59070500D01*
X62873139Y-59090185D01*
X62893781Y-59106819D01*
X63215181Y-59428218D01*
X63248666Y-59489541D01*
X63251500Y-59515899D01*
X63251500Y-68162772D01*
X63231815Y-68229811D01*
X63179011Y-68275566D01*
X63109853Y-68285510D01*
X63058611Y-68265876D01*
X63046129Y-68257536D01*
X63046124Y-68257533D01*
X62927744Y-68208499D01*
X62927738Y-68208497D01*
X62802071Y-68183500D01*
X62802069Y-68183500D01*
X62673931Y-68183500D01*
X62673929Y-68183500D01*
X62548261Y-68208497D01*
X62548255Y-68208499D01*
X62429875Y-68257533D01*
X62429870Y-68257536D01*
X62417389Y-68265876D01*
X62350711Y-68286752D01*
X62283331Y-68268266D01*
X62236642Y-68216286D01*
X62224500Y-68162772D01*
X62224500Y-59513566D01*
X62224500Y-59513565D01*
X62216169Y-59482475D01*
X62203534Y-59435320D01*
X62198910Y-59418062D01*
X62190478Y-59403458D01*
X62155382Y-59342669D01*
X62155380Y-59342666D01*
X62152419Y-59337537D01*
X62149475Y-59332437D01*
X62149473Y-59332435D01*
X62149472Y-59332433D01*
X61646819Y-58829780D01*
X61613334Y-58768457D01*
X61610500Y-58742099D01*
X61610500Y-58609928D01*
X61585502Y-58484261D01*
X61585501Y-58484260D01*
X61585501Y-58484256D01*
X61536465Y-58365873D01*
X61536464Y-58365872D01*
X61536461Y-58365866D01*
X61465276Y-58259331D01*
X61465273Y-58259327D01*
X61374672Y-58168726D01*
X61374668Y-58168723D01*
X61268133Y-58097538D01*
X61268124Y-58097533D01*
X61149744Y-58048499D01*
X61149738Y-58048497D01*
X61024071Y-58023500D01*
X61024069Y-58023500D01*
X60895931Y-58023500D01*
X60895929Y-58023500D01*
X60770261Y-58048497D01*
X60770255Y-58048499D01*
X60651875Y-58097533D01*
X60651866Y-58097538D01*
X60545331Y-58168723D01*
X60545327Y-58168726D01*
X60454726Y-58259327D01*
X60454723Y-58259331D01*
X60383538Y-58365866D01*
X60383533Y-58365875D01*
X60334499Y-58484255D01*
X60334497Y-58484261D01*
X60309500Y-58609928D01*
X60309500Y-58609931D01*
X60309500Y-58738069D01*
X60309500Y-58738071D01*
X60309499Y-58738071D01*
X60334497Y-58863738D01*
X60334499Y-58863744D01*
X60383533Y-58982123D01*
X60383538Y-58982133D01*
X60454723Y-59088668D01*
X60454726Y-59088672D01*
X60545327Y-59179273D01*
X60545331Y-59179276D01*
X60651866Y-59250461D01*
X60651872Y-59250464D01*
X60651873Y-59250465D01*
X60770256Y-59299501D01*
X60770260Y-59299501D01*
X60770261Y-59299502D01*
X60895928Y-59324500D01*
X61028100Y-59324500D01*
X61095139Y-59344185D01*
X61115781Y-59360819D01*
X61437181Y-59682218D01*
X61470666Y-59743541D01*
X61473500Y-59769899D01*
X61473500Y-67908772D01*
X61453815Y-67975811D01*
X61401011Y-68021566D01*
X61331853Y-68031510D01*
X61280611Y-68011876D01*
X61268129Y-68003536D01*
X61268124Y-68003533D01*
X61149744Y-67954499D01*
X61149738Y-67954497D01*
X61024071Y-67929500D01*
X61024069Y-67929500D01*
X60895931Y-67929500D01*
X60895929Y-67929500D01*
X60770261Y-67954497D01*
X60770255Y-67954499D01*
X60651875Y-68003533D01*
X60651870Y-68003536D01*
X60639389Y-68011876D01*
X60572711Y-68032752D01*
X60505331Y-68014266D01*
X60458642Y-67962286D01*
X60446500Y-67908772D01*
X60446500Y-59894566D01*
X60446500Y-59894565D01*
X60438169Y-59863475D01*
X60433705Y-59846813D01*
X60420910Y-59799062D01*
X60388724Y-59743314D01*
X60371475Y-59713437D01*
X59868819Y-59210781D01*
X59835334Y-59149458D01*
X59832500Y-59123100D01*
X59832500Y-58990928D01*
X59807502Y-58865261D01*
X59807501Y-58865260D01*
X59807501Y-58865256D01*
X59769574Y-58773692D01*
X59758466Y-58746875D01*
X59758461Y-58746866D01*
X59687276Y-58640331D01*
X59687273Y-58640327D01*
X59596672Y-58549726D01*
X59596668Y-58549723D01*
X59490133Y-58478538D01*
X59490124Y-58478533D01*
X59371744Y-58429499D01*
X59371738Y-58429497D01*
X59246071Y-58404500D01*
X59246069Y-58404500D01*
X59117931Y-58404500D01*
X59117929Y-58404500D01*
X58992261Y-58429497D01*
X58992255Y-58429499D01*
X58873875Y-58478533D01*
X58873866Y-58478538D01*
X58767331Y-58549723D01*
X58767327Y-58549726D01*
X58676726Y-58640327D01*
X58676723Y-58640331D01*
X58605538Y-58746866D01*
X58605533Y-58746875D01*
X58556499Y-58865255D01*
X58556497Y-58865261D01*
X58531500Y-58990928D01*
X58531500Y-58990931D01*
X58531500Y-59119069D01*
X58531500Y-59119071D01*
X58531499Y-59119071D01*
X58556497Y-59244738D01*
X58556499Y-59244744D01*
X58605533Y-59363124D01*
X58605538Y-59363133D01*
X58676723Y-59469668D01*
X58676726Y-59469672D01*
X58767327Y-59560273D01*
X58767331Y-59560276D01*
X58873866Y-59631461D01*
X58873872Y-59631464D01*
X58873873Y-59631465D01*
X58992256Y-59680501D01*
X58992260Y-59680501D01*
X58992261Y-59680502D01*
X59117928Y-59705500D01*
X59250100Y-59705500D01*
X59317139Y-59725185D01*
X59337781Y-59741819D01*
X59659181Y-60063218D01*
X59692666Y-60124541D01*
X59695500Y-60150899D01*
X59695500Y-67654772D01*
X59675815Y-67721811D01*
X59623011Y-67767566D01*
X59553853Y-67777510D01*
X59502611Y-67757876D01*
X59490129Y-67749536D01*
X59490124Y-67749533D01*
X59371744Y-67700499D01*
X59371738Y-67700497D01*
X59246071Y-67675500D01*
X59246069Y-67675500D01*
X59117931Y-67675500D01*
X59117929Y-67675500D01*
X58992261Y-67700497D01*
X58992255Y-67700499D01*
X58873875Y-67749533D01*
X58873870Y-67749536D01*
X58861389Y-67757876D01*
X58794711Y-67778752D01*
X58727331Y-67760266D01*
X58680642Y-67708286D01*
X58668500Y-67654772D01*
X58668500Y-60148567D01*
X58668500Y-60148565D01*
X58642910Y-60053062D01*
X58607013Y-59990886D01*
X58593475Y-59967437D01*
X58090819Y-59464781D01*
X58057334Y-59403458D01*
X58054500Y-59377100D01*
X58054500Y-59244928D01*
X58029502Y-59119261D01*
X58029501Y-59119260D01*
X58029501Y-59119256D01*
X57980465Y-59000873D01*
X57980464Y-59000872D01*
X57980461Y-59000866D01*
X57909276Y-58894331D01*
X57909273Y-58894327D01*
X57818672Y-58803726D01*
X57818668Y-58803723D01*
X57712133Y-58732538D01*
X57712124Y-58732533D01*
X57593744Y-58683499D01*
X57593738Y-58683497D01*
X57468071Y-58658500D01*
X57468069Y-58658500D01*
X57339931Y-58658500D01*
X57339929Y-58658500D01*
X57214261Y-58683497D01*
X57214255Y-58683499D01*
X57095875Y-58732533D01*
X57095866Y-58732538D01*
X56989331Y-58803723D01*
X56989327Y-58803726D01*
X56898726Y-58894327D01*
X56898723Y-58894331D01*
X56827538Y-59000866D01*
X56827533Y-59000875D01*
X56778499Y-59119255D01*
X56778497Y-59119261D01*
X56753500Y-59244928D01*
X56753500Y-59244931D01*
X56753500Y-59373069D01*
X56753500Y-59373071D01*
X56753499Y-59373071D01*
X56778497Y-59498738D01*
X56778499Y-59498744D01*
X56827533Y-59617124D01*
X56827538Y-59617133D01*
X56898723Y-59723668D01*
X56898726Y-59723672D01*
X56989327Y-59814273D01*
X56989331Y-59814276D01*
X57095866Y-59885461D01*
X57095872Y-59885464D01*
X57095873Y-59885465D01*
X57214256Y-59934501D01*
X57214260Y-59934501D01*
X57214261Y-59934502D01*
X57339928Y-59959500D01*
X57472100Y-59959500D01*
X57539139Y-59979185D01*
X57559781Y-59995819D01*
X57881181Y-60317218D01*
X57914666Y-60378541D01*
X57917500Y-60404899D01*
X57917500Y-63844772D01*
X57897815Y-63911811D01*
X57845011Y-63957566D01*
X57775853Y-63967510D01*
X57724611Y-63947876D01*
X57712129Y-63939536D01*
X57712124Y-63939533D01*
X57593744Y-63890499D01*
X57593738Y-63890497D01*
X57468071Y-63865500D01*
X57468069Y-63865500D01*
X57339931Y-63865500D01*
X57339929Y-63865500D01*
X57214261Y-63890497D01*
X57214255Y-63890499D01*
X57095875Y-63939533D01*
X57095866Y-63939538D01*
X56989331Y-64010723D01*
X56989327Y-64010726D01*
X56895873Y-64104181D01*
X56834550Y-64137666D01*
X56808192Y-64140500D01*
X51395808Y-64140500D01*
X51328769Y-64120815D01*
X51308127Y-64104181D01*
X51214672Y-64010726D01*
X51214668Y-64010723D01*
X51108133Y-63939538D01*
X51108124Y-63939533D01*
X50989744Y-63890499D01*
X50989738Y-63890497D01*
X50864071Y-63865500D01*
X50864069Y-63865500D01*
X50735931Y-63865500D01*
X50735929Y-63865500D01*
X50610261Y-63890497D01*
X50610255Y-63890499D01*
X50491875Y-63939533D01*
X50491866Y-63939538D01*
X50385331Y-64010723D01*
X50385327Y-64010726D01*
X50294726Y-64101327D01*
X50294723Y-64101331D01*
X50223538Y-64207866D01*
X50223533Y-64207875D01*
X50174499Y-64326255D01*
X50174497Y-64326261D01*
X50149500Y-64451928D01*
X50149500Y-64451931D01*
X50149500Y-64580069D01*
X50149500Y-64580071D01*
X50149499Y-64580071D01*
X50174497Y-64705738D01*
X50174499Y-64705744D01*
X50223533Y-64824124D01*
X50223538Y-64824133D01*
X50294723Y-64930668D01*
X50294726Y-64930672D01*
X50385327Y-65021273D01*
X50385331Y-65021276D01*
X50491866Y-65092461D01*
X50491870Y-65092463D01*
X50491873Y-65092465D01*
X50610256Y-65141501D01*
X50610260Y-65141501D01*
X50610261Y-65141502D01*
X50735928Y-65166500D01*
X50735931Y-65166500D01*
X50864071Y-65166500D01*
X50955700Y-65148273D01*
X50989744Y-65141501D01*
X51108127Y-65092465D01*
X51214669Y-65021276D01*
X51258420Y-64977525D01*
X51308127Y-64927819D01*
X51369450Y-64894334D01*
X51395808Y-64891500D01*
X56808192Y-64891500D01*
X56875231Y-64911185D01*
X56895873Y-64927819D01*
X56989327Y-65021273D01*
X56989331Y-65021276D01*
X57095866Y-65092461D01*
X57095870Y-65092463D01*
X57095873Y-65092465D01*
X57214256Y-65141501D01*
X57214260Y-65141501D01*
X57214261Y-65141502D01*
X57339928Y-65166500D01*
X57339931Y-65166500D01*
X57468071Y-65166500D01*
X57559700Y-65148273D01*
X57593744Y-65141501D01*
X57712127Y-65092465D01*
X57724607Y-65084125D01*
X57791284Y-65063247D01*
X57858665Y-65081730D01*
X57905356Y-65133708D01*
X57917500Y-65187227D01*
X57917500Y-65749772D01*
X57897815Y-65816811D01*
X57845011Y-65862566D01*
X57775853Y-65872510D01*
X57724611Y-65852876D01*
X57712129Y-65844536D01*
X57712124Y-65844533D01*
X57593744Y-65795499D01*
X57593738Y-65795497D01*
X57468071Y-65770500D01*
X57468069Y-65770500D01*
X57339931Y-65770500D01*
X57339929Y-65770500D01*
X57214261Y-65795497D01*
X57214255Y-65795499D01*
X57095875Y-65844533D01*
X57095866Y-65844538D01*
X56989331Y-65915723D01*
X56989327Y-65915726D01*
X56895873Y-66009181D01*
X56834550Y-66042666D01*
X56808192Y-66045500D01*
X48855808Y-66045500D01*
X48788769Y-66025815D01*
X48768127Y-66009181D01*
X48674672Y-65915726D01*
X48674668Y-65915723D01*
X48568133Y-65844538D01*
X48568124Y-65844533D01*
X48449744Y-65795499D01*
X48449738Y-65795497D01*
X48324071Y-65770500D01*
X48324069Y-65770500D01*
X48195931Y-65770500D01*
X48195929Y-65770500D01*
X48070261Y-65795497D01*
X48070255Y-65795499D01*
X47951875Y-65844533D01*
X47951866Y-65844538D01*
X47845331Y-65915723D01*
X47845327Y-65915726D01*
X47754726Y-66006327D01*
X47754723Y-66006331D01*
X47683538Y-66112866D01*
X47683533Y-66112875D01*
X47634499Y-66231255D01*
X47634497Y-66231261D01*
X47609500Y-66356928D01*
X47609500Y-66356931D01*
X47609500Y-66485069D01*
X47609500Y-66485071D01*
X47609499Y-66485071D01*
X47634497Y-66610738D01*
X47634499Y-66610744D01*
X47683533Y-66729124D01*
X47683538Y-66729133D01*
X47754723Y-66835668D01*
X47754726Y-66835672D01*
X47845327Y-66926273D01*
X47845331Y-66926276D01*
X47951866Y-66997461D01*
X47951870Y-66997463D01*
X47951873Y-66997465D01*
X48070256Y-67046501D01*
X48070260Y-67046501D01*
X48070261Y-67046502D01*
X48195928Y-67071500D01*
X48195931Y-67071500D01*
X48324071Y-67071500D01*
X48408615Y-67054682D01*
X48449744Y-67046501D01*
X48568127Y-66997465D01*
X48674669Y-66926276D01*
X48689886Y-66911059D01*
X48768127Y-66832819D01*
X48829450Y-66799334D01*
X48855808Y-66796500D01*
X56808192Y-66796500D01*
X56875231Y-66816185D01*
X56895873Y-66832819D01*
X56989327Y-66926273D01*
X56989331Y-66926276D01*
X57095866Y-66997461D01*
X57095870Y-66997463D01*
X57095873Y-66997465D01*
X57214256Y-67046501D01*
X57214260Y-67046501D01*
X57214261Y-67046502D01*
X57339928Y-67071500D01*
X57339931Y-67071500D01*
X57468071Y-67071500D01*
X57552615Y-67054682D01*
X57593744Y-67046501D01*
X57712127Y-66997465D01*
X57724607Y-66989125D01*
X57791284Y-66968247D01*
X57858665Y-66986730D01*
X57905356Y-67038708D01*
X57917500Y-67092227D01*
X57917500Y-67400772D01*
X57897815Y-67467811D01*
X57845011Y-67513566D01*
X57775853Y-67523510D01*
X57724611Y-67503876D01*
X57712129Y-67495536D01*
X57712124Y-67495533D01*
X57593744Y-67446499D01*
X57593738Y-67446497D01*
X57468071Y-67421500D01*
X57468069Y-67421500D01*
X57339931Y-67421500D01*
X57339929Y-67421500D01*
X57214261Y-67446497D01*
X57214255Y-67446499D01*
X57095875Y-67495533D01*
X57095866Y-67495538D01*
X56989331Y-67566723D01*
X56989327Y-67566726D01*
X56898726Y-67657327D01*
X56898723Y-67657331D01*
X56827538Y-67763866D01*
X56827533Y-67763875D01*
X56778499Y-67882255D01*
X56778497Y-67882261D01*
X56753500Y-68007928D01*
X56753500Y-68140100D01*
X56733815Y-68207139D01*
X56717181Y-68227781D01*
X52839782Y-72105181D01*
X52778459Y-72138666D01*
X52752101Y-72141500D01*
X45670564Y-72141500D01*
X45622812Y-72154295D01*
X45622811Y-72154294D01*
X45575063Y-72167089D01*
X45575062Y-72167089D01*
X45489435Y-72216527D01*
X40339526Y-77366436D01*
X40290091Y-77452059D01*
X40290091Y-77452060D01*
X40290090Y-77452062D01*
X40264500Y-77547565D01*
X40264500Y-77547567D01*
X40262397Y-77555416D01*
X40260099Y-77554800D01*
X40236726Y-77607603D01*
X40178392Y-77646061D01*
X40145418Y-77651003D01*
X40145423Y-77651099D01*
X40145429Y-77651146D01*
X40145426Y-77651146D01*
X40145436Y-77651324D01*
X40142123Y-77651501D01*
X40082516Y-77657908D01*
X39947671Y-77708202D01*
X39947664Y-77708206D01*
X39832455Y-77794452D01*
X39832452Y-77794455D01*
X39746206Y-77909664D01*
X39746202Y-77909671D01*
X39695908Y-78044517D01*
X39689501Y-78104116D01*
X39689501Y-78104123D01*
X39689500Y-78104135D01*
X33545900Y-78104135D01*
X33545900Y-62167071D01*
X47609499Y-62167071D01*
X47634497Y-62292738D01*
X47634499Y-62292744D01*
X47683533Y-62411124D01*
X47683538Y-62411133D01*
X47754723Y-62517668D01*
X47754726Y-62517672D01*
X47845327Y-62608273D01*
X47845331Y-62608276D01*
X47951866Y-62679461D01*
X47951875Y-62679466D01*
X47978692Y-62690574D01*
X48070256Y-62728501D01*
X48070260Y-62728501D01*
X48070261Y-62728502D01*
X48195928Y-62753500D01*
X48195931Y-62753500D01*
X48324071Y-62753500D01*
X48408615Y-62736682D01*
X48449744Y-62728501D01*
X48568127Y-62679465D01*
X48674669Y-62608276D01*
X48705618Y-62577327D01*
X48768127Y-62514819D01*
X48829450Y-62481334D01*
X48855808Y-62478500D01*
X52744192Y-62478500D01*
X52811231Y-62498185D01*
X52831873Y-62514819D01*
X52925327Y-62608273D01*
X52925331Y-62608276D01*
X53031866Y-62679461D01*
X53031875Y-62679466D01*
X53058692Y-62690574D01*
X53150256Y-62728501D01*
X53150260Y-62728501D01*
X53150261Y-62728502D01*
X53275928Y-62753500D01*
X53275931Y-62753500D01*
X53404071Y-62753500D01*
X53488615Y-62736682D01*
X53529744Y-62728501D01*
X53648127Y-62679465D01*
X53754669Y-62608276D01*
X53845276Y-62517669D01*
X53916465Y-62411127D01*
X53965501Y-62292744D01*
X53990500Y-62167069D01*
X53990500Y-62038931D01*
X53990500Y-62038928D01*
X53965502Y-61913261D01*
X53965501Y-61913260D01*
X53965501Y-61913256D01*
X53916465Y-61794873D01*
X53916464Y-61794872D01*
X53916461Y-61794866D01*
X53845276Y-61688331D01*
X53845273Y-61688327D01*
X53754672Y-61597726D01*
X53754668Y-61597723D01*
X53648133Y-61526538D01*
X53648124Y-61526533D01*
X53529744Y-61477499D01*
X53529738Y-61477497D01*
X53404071Y-61452500D01*
X53404069Y-61452500D01*
X53275931Y-61452500D01*
X53275929Y-61452500D01*
X53150261Y-61477497D01*
X53150255Y-61477499D01*
X53031875Y-61526533D01*
X53031866Y-61526538D01*
X52925331Y-61597723D01*
X52925327Y-61597726D01*
X52831873Y-61691181D01*
X52770550Y-61724666D01*
X52744192Y-61727500D01*
X48855808Y-61727500D01*
X48788769Y-61707815D01*
X48768127Y-61691181D01*
X48674672Y-61597726D01*
X48674668Y-61597723D01*
X48568133Y-61526538D01*
X48568124Y-61526533D01*
X48449744Y-61477499D01*
X48449738Y-61477497D01*
X48324071Y-61452500D01*
X48324069Y-61452500D01*
X48195931Y-61452500D01*
X48195929Y-61452500D01*
X48070261Y-61477497D01*
X48070255Y-61477499D01*
X47951875Y-61526533D01*
X47951866Y-61526538D01*
X47845331Y-61597723D01*
X47845327Y-61597726D01*
X47754726Y-61688327D01*
X47754723Y-61688331D01*
X47683538Y-61794866D01*
X47683533Y-61794875D01*
X47634499Y-61913255D01*
X47634497Y-61913261D01*
X47609500Y-62038928D01*
X47609500Y-62038931D01*
X47609500Y-62167069D01*
X47609500Y-62167071D01*
X47609499Y-62167071D01*
X33545900Y-62167071D01*
X33545900Y-56213676D01*
X37497900Y-56213676D01*
X37497900Y-56562323D01*
X37532072Y-56909290D01*
X37532075Y-56909307D01*
X37600087Y-57251234D01*
X37600090Y-57251245D01*
X37701302Y-57584896D01*
X37785317Y-57787726D01*
X37808435Y-57843538D01*
X37834727Y-57907011D01*
X37834729Y-57907016D01*
X37999073Y-58214481D01*
X37999090Y-58214509D01*
X38192778Y-58504386D01*
X38192782Y-58504391D01*
X38413968Y-58773906D01*
X38660493Y-59020431D01*
X38930007Y-59241616D01*
X38930012Y-59241620D01*
X39219890Y-59435309D01*
X39219895Y-59435312D01*
X39219907Y-59435320D01*
X39219916Y-59435324D01*
X39219918Y-59435326D01*
X39527383Y-59599670D01*
X39527385Y-59599670D01*
X39527391Y-59599674D01*
X39849505Y-59733098D01*
X40183145Y-59834307D01*
X40183151Y-59834308D01*
X40183154Y-59834309D01*
X40183165Y-59834312D01*
X40390402Y-59875533D01*
X40525099Y-59902326D01*
X40872073Y-59936500D01*
X40872076Y-59936500D01*
X41220724Y-59936500D01*
X41220727Y-59936500D01*
X41567701Y-59902326D01*
X41763018Y-59863475D01*
X41909634Y-59834312D01*
X41909645Y-59834309D01*
X41909645Y-59834308D01*
X41909655Y-59834307D01*
X42243295Y-59733098D01*
X42565409Y-59599674D01*
X42872893Y-59435320D01*
X42966059Y-59373069D01*
X43162788Y-59241620D01*
X43162793Y-59241616D01*
X43349155Y-59088672D01*
X43432301Y-59020436D01*
X43678836Y-58773901D01*
X43824799Y-58596043D01*
X43900017Y-58504391D01*
X43900021Y-58504386D01*
X44063763Y-58259327D01*
X44093720Y-58214493D01*
X44258074Y-57907009D01*
X44391498Y-57584895D01*
X44492707Y-57251255D01*
X44492709Y-57251245D01*
X44492712Y-57251234D01*
X44535552Y-57035860D01*
X44560726Y-56909301D01*
X44594900Y-56562327D01*
X44594900Y-56213673D01*
X44560726Y-55866699D01*
X44522152Y-55672774D01*
X44492712Y-55524765D01*
X44492709Y-55524754D01*
X44492708Y-55524751D01*
X44492707Y-55524745D01*
X44391498Y-55191105D01*
X44258074Y-54868991D01*
X44153988Y-54674261D01*
X44093726Y-54561518D01*
X44093724Y-54561516D01*
X44093720Y-54561507D01*
X44089957Y-54555875D01*
X43900021Y-54271613D01*
X43900017Y-54271608D01*
X43678831Y-54002093D01*
X43432306Y-53755568D01*
X43162791Y-53534382D01*
X43162786Y-53534378D01*
X42872909Y-53340690D01*
X42872881Y-53340673D01*
X42565416Y-53176329D01*
X42565411Y-53176327D01*
X42243296Y-53042902D01*
X41909645Y-52941690D01*
X41909634Y-52941687D01*
X41567707Y-52873675D01*
X41567690Y-52873672D01*
X41305306Y-52847830D01*
X41220727Y-52839500D01*
X40872073Y-52839500D01*
X40793849Y-52847204D01*
X40525109Y-52873672D01*
X40525092Y-52873675D01*
X40183165Y-52941687D01*
X40183154Y-52941690D01*
X39849503Y-53042902D01*
X39527388Y-53176327D01*
X39527383Y-53176329D01*
X39219918Y-53340673D01*
X39219890Y-53340690D01*
X38930013Y-53534378D01*
X38930008Y-53534382D01*
X38660493Y-53755568D01*
X38413968Y-54002093D01*
X38192782Y-54271608D01*
X38192778Y-54271613D01*
X37999090Y-54561490D01*
X37999073Y-54561518D01*
X37834729Y-54868983D01*
X37834727Y-54868988D01*
X37701302Y-55191103D01*
X37600090Y-55524754D01*
X37600087Y-55524765D01*
X37532075Y-55866692D01*
X37532072Y-55866709D01*
X37497900Y-56213676D01*
X33545900Y-56213676D01*
X33545900Y-51043500D01*
X33565585Y-50976461D01*
X33618389Y-50930706D01*
X33669900Y-50919500D01*
X116113900Y-50919500D01*
X116180939Y-50939185D01*
G37*
G04 #@! TD.AperFunction*
M02*
